<svg width="32" height="32" viewBox="0 0 32 32" fill="none" xmlns="http://www.w3.org/2000/svg">
<path d="M26.1924 10.0503L21.986 14L25.986 25L22.986 28L17.01 19.2526L13.986 22V25L10.986 28L9.21191 22.7682L3.98596 21L6.98596 18H9.98596L12.986 15L3.98596 9.00001L6.98596 6.00001L17.986 10L21.9498 5.80762L21.8646 5.87869C22.1431 5.59961 22.4739 5.37816 22.838 5.22699C23.2021 5.07582 23.5924 4.9979 23.9866 4.99768C24.3809 4.99746 24.7713 5.07496 25.1356 5.22573C25.4999 5.3765 25.8308 5.59759 26.1096 5.87636C26.3884 6.15513 26.6095 6.48612 26.7602 6.85039C26.911 7.21467 26.9885 7.60509 26.9883 7.99933C26.9881 8.39357 26.9102 8.78391 26.759 9.14802C26.6078 9.51212 26.3864 9.84287 26.1073 10.1213L26.1924 10.0503Z" stroke="black" stroke-width="2" stroke-linecap="round" stroke-linejoin="round"/>
</svg>
