<svg width="32" height="32" viewBox="0 0 32 32" fill="none" xmlns="http://www.w3.org/2000/svg">
<path d="M9 27H27" stroke="black" stroke-width="2" stroke-linecap="round" stroke-linejoin="round"/>
<path d="M3.34406 10H5.50003L8.00003 13H12L10.4388 8.31623C10.3887 8.16591 10.375 8.00583 10.3989 7.84919C10.4228 7.69255 10.4836 7.54383 10.5762 7.41529C10.6689 7.28675 10.7907 7.18206 10.9318 7.10986C11.0728 7.03765 11.229 7 11.3875 7H13.5L19 13H26C27.0609 13 28.0783 13.4214 28.8285 14.1716C29.5786 14.9217 30 15.9391 30 17V20H7.97615C7.11591 20 6.27859 19.7227 5.58843 19.2092C4.89826 18.6957 4.39203 17.9734 4.14485 17.1494L2.38623 11.2873C2.34143 11.138 2.33217 10.9803 2.35917 10.8268C2.38618 10.6732 2.44871 10.5281 2.54176 10.4031C2.63482 10.278 2.75583 10.1764 2.89513 10.1064C3.03443 10.0364 3.18816 10 3.34406 10Z" stroke="black" stroke-width="2" stroke-linecap="round" stroke-linejoin="round"/>
</svg>
