<svg width="40" height="40" viewBox="0 0 40 40" fill="none" xmlns="http://www.w3.org/2000/svg">
<circle r="20" transform="matrix(4.37114e-08 1 1 -4.37114e-08 20 20)" fill="#F8F8F8"/>
<path d="M15 20.0001L13.9393 21.0607L12.8787 20.0001L13.9393 18.9394L15 20.0001ZM25.3464 28.2251C25.9322 28.8109 25.9322 29.7607 25.3464 30.3464C24.7606 30.9322 23.8108 30.9322 23.2251 30.3464L25.3464 28.2251ZM23.2251 9.65369C23.8108 9.06791 24.7606 9.06791 25.3464 9.65369C25.9322 10.2395 25.9322 11.1892 25.3464 11.775L23.2251 9.65369ZM16.0607 18.9394L25.3464 28.2251L23.2251 30.3464L13.9393 21.0607L16.0607 18.9394ZM25.3464 11.775L16.0607 21.0607L13.9393 18.9394L23.2251 9.65369L25.3464 11.775Z" fill="#404040"/>
</svg>
