<svg width="40" height="40" viewBox="0 0 40 40" fill="none" xmlns="http://www.w3.org/2000/svg">
<circle cx="20" cy="20" r="20" transform="rotate(90 20 20)" fill="#F8F8F8"/>
<path d="M25 20.0001L26.0607 21.0607L27.1213 20.0001L26.0607 18.9394L25 20.0001ZM14.6536 28.2251C14.0678 28.8109 14.0678 29.7607 14.6536 30.3464C15.2394 30.9322 16.1892 30.9322 16.7749 30.3464L14.6536 28.2251ZM16.7749 9.65369C16.1892 9.06791 15.2394 9.06791 14.6536 9.65369C14.0678 10.2395 14.0678 11.1892 14.6536 11.775L16.7749 9.65369ZM23.9393 18.9394L14.6536 28.2251L16.7749 30.3464L26.0607 21.0607L23.9393 18.9394ZM14.6536 11.775L23.9393 21.0607L26.0607 18.9394L16.7749 9.65369L14.6536 11.775Z" fill="#404040"/>
</svg>
