<svg width="32" height="32" viewBox="0 0 32 32" fill="none" xmlns="http://www.w3.org/2000/svg">
<path d="M22.0209 12.4645H28.0209V6.46448" stroke="black" stroke-width="2" stroke-linecap="round" stroke-linejoin="round"/>
<path d="M8.22183 8.22183C9.24328 7.20038 10.4559 6.39013 11.7905 5.83733C13.1251 5.28452 14.5555 5 16 5C17.4445 5 18.8749 5.28452 20.2095 5.83733C21.5441 6.39013 22.7567 7.20038 23.7782 8.22183L28.0208 12.4645" stroke="black" stroke-width="2" stroke-linecap="round" stroke-linejoin="round"/>
<path d="M9.97913 19.5354H3.97913V25.5354" stroke="black" stroke-width="2" stroke-linecap="round" stroke-linejoin="round"/>
<path d="M23.7782 23.7783C22.7567 24.7997 21.5441 25.61 20.2095 26.1628C18.8749 26.7156 17.4445 27.0001 16 27.0001C14.5555 27.0001 13.1251 26.7156 11.7905 26.1628C10.4559 25.61 9.24327 24.7997 8.22183 23.7783L3.97919 19.5356" stroke="black" stroke-width="2" stroke-linecap="round" stroke-linejoin="round"/>
</svg>
