<svg width="32" height="32" viewBox="0 0 32 32" fill="none" xmlns="http://www.w3.org/2000/svg">
<path d="M20 13H30" stroke="black" stroke-width="2" stroke-linecap="round" stroke-linejoin="round"/>
<path d="M20 17H30" stroke="black" stroke-width="2" stroke-linecap="round" stroke-linejoin="round"/>
<path d="M20 21H30" stroke="black" stroke-width="2" stroke-linecap="round" stroke-linejoin="round"/>
<path d="M9 25H30" stroke="black" stroke-width="2" stroke-linecap="round" stroke-linejoin="round"/>
<path d="M15.8144 16.4518C15.5424 17.5429 14.9694 18.5356 14.1606 19.3168C13.3518 20.0979 12.3398 20.6362 11.24 20.87C10.1401 21.1039 8.9967 21.0241 7.94003 20.6396C6.88337 20.2551 5.956 19.5815 5.26364 18.6954C4.57128 17.8094 4.14179 16.7467 4.02415 15.6285C3.9065 14.5102 4.10543 13.3814 4.59825 12.3707C5.09107 11.36 5.85795 10.5081 6.81147 9.91214C7.76499 9.31618 8.86677 9.00012 9.99121 9" stroke="black" stroke-width="2" stroke-linecap="round" stroke-linejoin="round"/>
<path d="M9.99122 14.3096L9.98438 20.9863" stroke="black" stroke-width="2" stroke-linecap="round" stroke-linejoin="round"/>
<path d="M13.9912 6.5C14.6543 6.5 15.2901 6.76339 15.759 7.23223C16.2278 7.70107 16.4912 8.33696 16.4912 9C16.4912 9.66304 16.2278 10.2989 15.759 10.7678C15.2901 11.2366 14.6543 11.5 13.9912 11.5L5.99122 6.5C5.39672 6.5001 4.82171 6.71201 4.36932 7.09773C3.91694 7.48345 3.6168 8.01773 3.52272 8.60474C3.42865 9.19175 3.5468 9.79307 3.85599 10.3008C4.16518 10.8086 4.64517 11.1896 5.20986 11.3755" stroke="black" stroke-width="2" stroke-linecap="round" stroke-linejoin="round"/>
</svg>
