<svg width="32" height="32" viewBox="0 0 32 32" fill="none" xmlns="http://www.w3.org/2000/svg">
<path d="M26.2531 26.253C28.401 24.1051 25.5517 17.7735 19.8891 12.1109C14.2265 6.44826 7.89488 3.59902 5.747 5.7469C3.59911 7.89478 6.44836 14.2264 12.111 19.889C17.7736 25.5516 24.1052 28.4009 26.2531 26.253Z" stroke="black" stroke-width="2" stroke-linecap="round" stroke-linejoin="round"/>
<path d="M19.8891 19.8891C25.5517 14.2265 28.401 7.89489 26.2531 5.747C24.1052 3.59912 17.7736 6.44836 12.111 12.111C6.44836 17.7736 3.59911 24.1052 5.747 26.2531C7.89488 28.401 14.2265 25.5517 19.8891 19.8891Z" stroke="black" stroke-width="2" stroke-linecap="round" stroke-linejoin="round"/>
<path d="M16 17.5C16.8284 17.5 17.5 16.8284 17.5 16C17.5 15.1716 16.8284 14.5 16 14.5C15.1716 14.5 14.5 15.1716 14.5 16C14.5 16.8284 15.1716 17.5 16 17.5Z" fill="black"/>
</svg>
