<svg width="32" height="32" viewBox="0 0 32 32" fill="none" xmlns="http://www.w3.org/2000/svg">
<path d="M16 28C22.6274 28 28 22.6274 28 16C28 9.37258 22.6274 4 16 4C9.37258 4 4 9.37258 4 16C4 22.6274 9.37258 28 16 28Z" stroke="black" stroke-width="2" stroke-linecap="round" stroke-linejoin="round"/>
<path d="M21.1465 14.1289C21.251 13.4692 21.41 12.8192 21.622 12.1858" stroke="black" stroke-width="2" stroke-linecap="round" stroke-linejoin="round"/>
<path d="M21.6219 19.8137C21.4099 19.1803 21.2509 18.5303 21.1464 17.8706" stroke="black" stroke-width="2" stroke-linecap="round" stroke-linejoin="round"/>
<path d="M10.8535 14.1289C10.749 13.4691 10.59 12.8192 10.378 12.1858" stroke="black" stroke-width="2" stroke-linecap="round" stroke-linejoin="round"/>
<path d="M10.3781 19.8137C10.5901 19.1803 10.7491 18.5303 10.8536 17.8706" stroke="black" stroke-width="2" stroke-linecap="round" stroke-linejoin="round"/>
<path d="M23.3498 8.86692C23.7 8.3936 24.0844 7.94653 24.4998 7.5293" stroke="black" stroke-width="2" stroke-linecap="round" stroke-linejoin="round"/>
<path d="M24.4999 24.4706C24.0843 24.0532 23.6998 23.606 23.3495 23.1326" stroke="black" stroke-width="2" stroke-linecap="round" stroke-linejoin="round"/>
<path d="M7.50015 24.4706C7.91572 24.0532 8.3002 23.606 8.6505 23.1326" stroke="black" stroke-width="2" stroke-linecap="round" stroke-linejoin="round"/>
<path d="M8.65023 8.86696C8.29999 8.39363 7.9156 7.94655 7.50012 7.5293" stroke="black" stroke-width="2" stroke-linecap="round" stroke-linejoin="round"/>
</svg>
