<svg width="32" height="32" viewBox="0 0 32 32" fill="none" xmlns="http://www.w3.org/2000/svg">
<path d="M6 5L26 27" stroke="black" stroke-width="2" stroke-linecap="round" stroke-linejoin="round"/>
<path d="M12 27.9974H20" stroke="black" stroke-width="2" stroke-linecap="round" stroke-linejoin="round"/>
<path d="M11.5627 5.17274C12.9341 4.38889 14.489 3.98338 16.0685 3.99768C21.0172 4.03447 24.9755 8.14785 24.9755 13.1104V13.9974C24.9755 17.3341 25.4958 19.6271 26.1024 21.1665" stroke="black" stroke-width="2" stroke-linecap="round" stroke-linejoin="round"/>
<path d="M23.2705 23.9974H6.12304C5.9472 23.9969 5.77458 23.9501 5.6226 23.8617C5.47062 23.7732 5.34466 23.6462 5.25743 23.4935C5.1702 23.3408 5.12478 23.1678 5.12575 22.992C5.12672 22.8161 5.17405 22.6437 5.26296 22.4919C6.08837 21.072 7.02546 18.4741 7.02546 13.9974V12.9974C7.02233 11.1689 7.57771 9.3831 8.61729 7.87891" stroke="black" stroke-width="2" stroke-linecap="round" stroke-linejoin="round"/>
</svg>
