<svg width="32" height="32" viewBox="0 0 32 32" fill="none" xmlns="http://www.w3.org/2000/svg">
<path d="M12 28H20" stroke="black" stroke-width="2" stroke-linecap="round" stroke-linejoin="round"/>
<path d="M7.02547 14C7.02217 12.8192 7.25189 11.6494 7.70145 10.5576C8.15102 9.46583 8.81159 8.47346 9.64534 7.63738C10.4791 6.80131 11.4696 6.13796 12.5602 5.68535C13.6507 5.23274 14.8198 4.99976 16.0006 4.99976C17.1813 4.99976 18.3505 5.23274 19.441 5.68535C20.5316 6.13796 21.5221 6.80131 22.3558 7.63738C23.1896 8.47346 23.8502 9.46583 24.2997 10.5576C24.7493 11.6494 24.979 12.8192 24.9757 14V14C24.9757 18.4769 25.9124 21.0748 26.7373 22.4947C26.8262 22.6465 26.8735 22.8189 26.8744 22.9948C26.8754 23.1706 26.8299 23.3435 26.7427 23.4962C26.6554 23.6489 26.5295 23.7758 26.3775 23.8643C26.2256 23.9527 26.053 23.9995 25.8771 24H6.12304C5.9472 23.9995 5.77458 23.9527 5.6226 23.8642C5.47062 23.7758 5.34466 23.6488 5.25743 23.4961C5.1702 23.3434 5.12478 23.1704 5.12575 22.9946C5.12672 22.8187 5.17405 22.6462 5.26296 22.4945C6.08837 21.0746 7.02546 18.4767 7.02546 14H7.02547Z" stroke="black" stroke-width="2" stroke-linecap="round" stroke-linejoin="round"/>
<path d="M22.929 2.99854C24.9638 4.28311 26.6041 6.10497 27.6688 8.26299" stroke="black" stroke-width="2" stroke-linecap="round" stroke-linejoin="round"/>
<path d="M4.33105 8.26299C5.39575 6.10497 7.03604 4.28311 9.07087 2.99854" stroke="black" stroke-width="2" stroke-linecap="round" stroke-linejoin="round"/>
</svg>
