<svg width="32" height="32" viewBox="0 0 32 32" fill="none" xmlns="http://www.w3.org/2000/svg">
<path d="M6 5L26 27" stroke="black" stroke-width="2" stroke-linecap="round" stroke-linejoin="round"/>
<path d="M12 24V25C12 26.0609 12.4214 27.0783 13.1716 27.8284C13.9217 28.5786 14.9391 29 16 29C17.0609 29 18.0783 28.5786 18.8284 27.8284C19.5786 27.0783 20 26.0609 20 25V24" stroke="black" stroke-width="2" stroke-linecap="round" stroke-linejoin="round"/>
<path d="M23.2728 24H6.12304C5.9472 23.9995 5.77458 23.9527 5.6226 23.8642C5.47062 23.7757 5.34466 23.6488 5.25743 23.4961C5.1702 23.3434 5.12478 23.1704 5.12575 22.9945C5.12672 22.8187 5.17405 22.6462 5.26296 22.4945C6.08837 21.0746 7.02546 18.4767 7.02546 14V13C7.02233 11.1709 7.57808 9.3845 8.6183 7.88" stroke="black" stroke-width="2" stroke-linecap="round" stroke-linejoin="round"/>
<path d="M11.5645 5.17443C12.9354 4.39115 14.4898 3.98595 16.0686 4.00024C21.0173 4.03703 24.9757 8.15041 24.9757 13.113V14C24.9757 17.3335 25.495 19.6252 26.1008 21.1646" stroke="black" stroke-width="2" stroke-linecap="round" stroke-linejoin="round"/>
</svg>
