<svg width="32" height="32" viewBox="0 0 32 32" fill="none" xmlns="http://www.w3.org/2000/svg">
<path d="M4.18176 3L27.8181 29" stroke="black" stroke-width="2" stroke-linecap="round" stroke-linejoin="round"/>
<path d="M11.7482 5.37661L11.9992 5H19.9992L21.9992 8H26C26.5304 8 27.0391 8.21071 27.4142 8.58579C27.7893 8.96086 28 9.46957 28 10V23.2536" stroke="black" stroke-width="2" stroke-linecap="round" stroke-linejoin="round"/>
<path d="M25.0909 26H6C5.46957 26 4.96086 25.7893 4.58579 25.4142C4.21071 25.0391 4 24.5304 4 24V10C4 9.46957 4.21071 8.96086 4.58579 8.58579C4.96086 8.21071 5.46957 8 6 8H8.72726" stroke="black" stroke-width="2" stroke-linecap="round" stroke-linejoin="round"/>
<path d="M19.2674 19.5941C18.8416 20.0438 18.3275 20.4007 17.7574 20.6425C17.1873 20.8843 16.5734 21.0059 15.9542 20.9996C15.3349 20.9933 14.7236 20.8592 14.1586 20.6058C13.5935 20.3524 13.0869 19.9851 12.6703 19.5268C12.2537 19.0686 11.9362 18.5293 11.7376 17.9427C11.539 17.3561 11.4637 16.7349 11.5162 16.1178C11.5688 15.5008 11.7481 14.9012 12.0431 14.3567C12.338 13.8121 12.7421 13.3343 13.2302 12.9531" stroke="black" stroke-width="2" stroke-linecap="round" stroke-linejoin="round"/>
</svg>
