<svg width="32" height="32" viewBox="0 0 32 32" fill="none" xmlns="http://www.w3.org/2000/svg">
<path d="M5.99927 5.0011L25.9993 27.0011" stroke="black" stroke-width="2" stroke-linecap="round" stroke-linejoin="round"/>
<path d="M16.926 11.074L23.2929 4.70708C23.4328 4.56723 23.6109 4.47198 23.8049 4.4334C23.9989 4.39481 24.2 4.41462 24.3827 4.49031C24.5654 4.56599 24.7216 4.69417 24.8315 4.85861C24.9414 5.02306 25 5.2164 25 5.41419V19.9553" stroke="black" stroke-width="2" stroke-linecap="round" stroke-linejoin="round"/>
<path d="M25.9994 27.0011L3.41431 27C3.21653 27 3.02319 26.9414 2.85874 26.8315C2.69429 26.7216 2.56612 26.5654 2.49043 26.3827C2.41474 26.2 2.39494 25.9989 2.43352 25.8049C2.47211 25.611 2.56735 25.4328 2.7072 25.2929L14.0945 13.9056" stroke="black" stroke-width="2" stroke-linecap="round" stroke-linejoin="round"/>
</svg>
