<svg width="32" height="32" viewBox="0 0 32 32" fill="none" xmlns="http://www.w3.org/2000/svg">
<path d="M25.0001 5.41419V26C25.0001 26.2652 24.8947 26.5195 24.7072 26.7071C24.5197 26.8946 24.2653 27 24.0001 27H3.41431C3.21653 27 3.02319 26.9413 2.85874 26.8314C2.69429 26.7216 2.56612 26.5654 2.49043 26.3827C2.41474 26.1999 2.39494 25.9989 2.43352 25.8049C2.47211 25.6109 2.56735 25.4327 2.7072 25.2929L23.293 4.70708C23.4328 4.56723 23.611 4.47198 23.805 4.4334C23.999 4.39481 24.2001 4.41462 24.3828 4.49031C24.5655 4.56599 24.7217 4.69417 24.8316 4.85861C24.9414 5.02306 25.0001 5.2164 25.0001 5.41419Z" stroke="black" stroke-width="2" stroke-linecap="round" stroke-linejoin="round"/>
<path d="M20 8V27" stroke="black" stroke-width="2" stroke-linecap="round" stroke-linejoin="round"/>
</svg>
