<svg width="32" height="32" viewBox="0 0 32 32" fill="none" xmlns="http://www.w3.org/2000/svg">
<path d="M16 16V4" stroke="black" stroke-width="2" stroke-linecap="round" stroke-linejoin="round"/>
<path d="M26.3923 10L5.60767 22" stroke="black" stroke-width="2" stroke-linecap="round" stroke-linejoin="round"/>
<path d="M4.20011 18.1938C3.68055 15.3821 4.18043 12.4772 5.60999 10.0009C7.03954 7.52456 9.30511 5.63902 11.9998 4.68286V13.6906L4.20011 18.1938Z" stroke="black" stroke-width="2" stroke-linecap="round" stroke-linejoin="round"/>
<path d="M16 4C18.1024 4.00039 20.1679 4.55313 21.9895 5.60288C23.811 6.65263 25.3249 8.16254 26.3793 9.9814C27.4338 11.8003 27.9919 13.8643 27.9978 15.9667C28.0036 18.0691 27.457 20.1361 26.4126 21.9608C25.3683 23.7855 23.8629 25.3038 22.0471 26.3637C20.2314 27.4235 18.1691 27.9877 16.0667 27.9998C13.9643 28.0119 11.8956 27.4714 10.0679 26.4324C8.24008 25.3935 6.71733 23.8926 5.6521 22.08" stroke="black" stroke-width="2" stroke-linecap="round" stroke-linejoin="round"/>
</svg>
