<svg width="32" height="32" viewBox="0 0 32 32" fill="none" xmlns="http://www.w3.org/2000/svg">
<path d="M8.94792 18L4.00006 22V6C4.00006 5.73478 4.10542 5.48043 4.29295 5.29289C4.48049 5.10536 4.73484 5 5.00006 5H21.0001C21.2653 5 21.5196 5.10536 21.7072 5.29289C21.8947 5.48043 22.0001 5.73478 22.0001 6V17C22.0001 17.2652 21.8947 17.5196 21.7072 17.7071C21.5196 17.8946 21.2653 18 21.0001 18H8.94792Z" stroke="black" stroke-width="2" stroke-linecap="round" stroke-linejoin="round"/>
<path d="M10.0001 18V23C10.0001 23.2652 10.1054 23.5196 10.293 23.7071C10.4805 23.8946 10.7348 24 11.0001 24H23.0522L28.0001 28V12C28.0001 11.7348 27.8947 11.4804 27.7072 11.2929C27.5196 11.1054 27.2653 11 27.0001 11H22.0001" stroke="black" stroke-width="2" stroke-linecap="round" stroke-linejoin="round"/>
</svg>
