<svg width="32" height="32" viewBox="0 0 32 32" fill="none" xmlns="http://www.w3.org/2000/svg">
<path d="M9.74814 25.1679L5.64354 28.6184C5.49777 28.741 5.32004 28.8193 5.13126 28.8443C4.94247 28.8693 4.75048 28.8399 4.57785 28.7595C4.40523 28.6791 4.25915 28.551 4.15679 28.3905C4.05444 28.2299 4.00006 28.0434 4.00006 27.853V8C4.00006 7.73478 4.10542 7.48043 4.29295 7.29289C4.48049 7.10536 4.73484 7 5.00006 7H27.0001C27.2653 7 27.5196 7.10536 27.7072 7.29289C27.8947 7.48043 28.0001 7.73478 28.0001 8V24C28.0001 24.2652 27.8947 24.5196 27.7072 24.7071C27.5196 24.8946 27.2653 25 27.0001 25H10.2089L9.74814 25.1679Z" stroke="black" stroke-width="2" stroke-linecap="round" stroke-linejoin="round"/>
<path d="M12.0001 14H20.0001" stroke="black" stroke-width="2" stroke-linecap="round" stroke-linejoin="round"/>
<path d="M12.0001 18H20.0001" stroke="black" stroke-width="2" stroke-linecap="round" stroke-linejoin="round"/>
</svg>
