<svg width="32" height="32" viewBox="0 0 32 32" fill="none" xmlns="http://www.w3.org/2000/svg">
<path d="M5.67857 22.1247C4.18765 19.6114 3.66551 16.6402 4.21021 13.7692C4.75491 10.8981 6.32897 8.32466 8.63682 6.53203C10.9447 4.73941 13.8276 3.85093 16.7441 4.03344C19.6607 4.21595 22.4103 5.4569 24.4767 7.52325C26.543 9.5896 27.784 12.3392 27.9665 15.2558C28.149 18.1724 27.2606 21.0552 25.468 23.3631C23.6754 25.671 21.1019 27.245 18.2308 27.7897C15.3598 28.3345 12.3886 27.8123 9.87529 26.3214L9.87531 26.3213L5.73074 27.5055C5.55927 27.5545 5.37781 27.5567 5.20518 27.512C5.03254 27.4672 4.87501 27.3772 4.74891 27.2511C4.6228 27.125 4.53272 26.9674 4.48798 26.7948C4.44325 26.6221 4.4455 26.4407 4.49449 26.2692L5.67866 22.1246L5.67857 22.1247Z" stroke="black" stroke-width="2" stroke-linecap="round" stroke-linejoin="round"/>
<path d="M16 17.5C16.8284 17.5 17.5 16.8284 17.5 16C17.5 15.1716 16.8284 14.5 16 14.5C15.1716 14.5 14.5 15.1716 14.5 16C14.5 16.8284 15.1716 17.5 16 17.5Z" fill="black"/>
<path d="M10 17.5C10.8284 17.5 11.5 16.8284 11.5 16C11.5 15.1716 10.8284 14.5 10 14.5C9.17157 14.5 8.5 15.1716 8.5 16C8.5 16.8284 9.17157 17.5 10 17.5Z" fill="black"/>
<path d="M22 17.5C22.8284 17.5 23.5 16.8284 23.5 16C23.5 15.1716 22.8284 14.5 22 14.5C21.1716 14.5 20.5 15.1716 20.5 16C20.5 16.8284 21.1716 17.5 22 17.5Z" fill="black"/>
</svg>
