<svg width="32" height="32" viewBox="0 0 32 32" fill="none" xmlns="http://www.w3.org/2000/svg">
<path d="M6.80761 25.1924C5.65711 24.0419 6.42019 21.6265 5.8346 20.2111C5.22755 18.744 3 17.5631 3 16C3 14.4368 5.22756 13.256 5.8346 11.7888C6.4202 10.3735 5.65711 7.95811 6.80761 6.80761C7.95811 5.65711 10.3735 6.42019 11.7889 5.8346C13.256 5.22755 14.4369 3 16 3C17.5632 3 18.744 5.22756 20.2112 5.8346C21.6265 6.4202 24.0419 5.65711 25.1924 6.80761C26.3429 7.95811 25.5798 10.3735 26.1654 11.7889C26.7725 13.256 29 14.4369 29 16C29 17.5632 26.7724 18.744 26.1654 20.2112C25.5798 21.6265 26.3429 24.0419 25.1924 25.1924C24.0419 26.3429 21.6265 25.5798 20.2111 26.1654C18.744 26.7725 17.5631 29 16 29C14.4368 29 13.256 26.7724 11.7888 26.1654C10.3735 25.5798 7.95811 26.3429 6.80761 25.1924Z" stroke="black" stroke-width="2" stroke-linecap="round" stroke-linejoin="round"/>
<path d="M16 24C16.8284 24 17.5 23.3284 17.5 22.5C17.5 21.6716 16.8284 21 16 21C15.1716 21 14.5 21.6716 14.5 22.5C14.5 23.3284 15.1716 24 16 24Z" fill="black"/>
<path d="M15.9999 18.0005V17.0005C16.6921 17.0005 17.3688 16.7952 17.9444 16.4106C18.5199 16.026 18.9686 15.4794 19.2335 14.8399C19.4984 14.2003 19.5677 13.4966 19.4326 12.8177C19.2976 12.1387 18.9642 11.5151 18.4748 11.0256C17.9853 10.5361 17.3616 10.2028 16.6827 10.0677C16.0038 9.93269 15.3 10.002 14.6605 10.2669C14.0209 10.5318 13.4743 10.9804 13.0897 11.556C12.7052 12.1316 12.4999 12.8083 12.4999 13.5005" stroke="black" stroke-width="2" stroke-linecap="round" stroke-linejoin="round"/>
</svg>
