<svg width="32" height="32" viewBox="0 0 32 32" fill="none" xmlns="http://www.w3.org/2000/svg">
<path d="M6 5L26 27" stroke="black" stroke-width="2" stroke-linecap="round" stroke-linejoin="round"/>
<path d="M24.2368 25.0607C22.9107 25.6814 21.4642 26.0021 20 26H9.00003C8.00732 25.999 7.02618 25.7869 6.12172 25.3778C5.21725 24.9686 4.41016 24.3718 3.754 23.6268C3.09785 22.8819 2.60764 22.0059 2.31591 21.0571C2.02419 20.1082 1.93762 19.1081 2.06196 18.1232C2.1863 17.1384 2.51869 16.1912 3.03708 15.3446C3.55547 14.498 4.248 13.7713 5.06871 13.2128C5.88941 12.6544 6.81952 12.2768 7.79729 12.1053C8.77506 11.9338 9.77814 11.9722 10.7399 12.2179" stroke="black" stroke-width="2" stroke-linecap="round" stroke-linejoin="round"/>
<path d="M14.0791 7.94044C16.0714 6.47688 18.5352 5.80313 20.9951 6.0492C23.4549 6.29527 25.7364 7.44372 27.3993 9.27294C29.0623 11.1021 29.9887 13.4825 29.9999 15.9546C30.0112 18.4266 29.1063 20.8153 27.4601 22.6595" stroke="black" stroke-width="2" stroke-linecap="round" stroke-linejoin="round"/>
<path d="M10 16C9.99719 14.2138 10.4751 12.4598 11.3835 10.9219" stroke="black" stroke-width="2" stroke-linecap="round" stroke-linejoin="round"/>
</svg>
