<svg width="32" height="32" viewBox="0 0 32 32" fill="none" xmlns="http://www.w3.org/2000/svg">
<path d="M11 18.5C11 16.8189 11.4985 15.1755 12.4325 13.7777C13.3665 12.3798 14.694 11.2904 16.2472 10.647C17.8004 10.0037 19.5095 9.83535 21.1583 10.1633C22.8071 10.4913 24.3217 11.3008 25.5104 12.4896C26.6992 13.6783 27.5087 15.1929 27.8367 16.8417C28.1647 18.4906 27.9963 20.1996 27.353 21.7528C26.7097 23.306 25.6202 24.6335 24.2224 25.5675C22.8246 26.5015 21.1812 27 19.5 27H9.50002C8.70145 26.9993 7.91259 26.8248 7.18829 26.4884C6.46399 26.1521 5.82162 25.6621 5.30582 25.0525C4.79002 24.4428 4.41317 23.7281 4.20145 22.9581C3.98973 22.1881 3.94823 21.3813 4.07984 20.5936C4.21144 19.806 4.51299 19.0564 4.96352 18.3971C5.41405 17.7377 6.00277 17.1844 6.68874 16.7755C7.37471 16.3667 8.14149 16.1121 8.93579 16.0295C9.73008 15.9469 10.5328 16.0383 11.2882 16.2972" stroke="black" stroke-width="2" stroke-linecap="round" stroke-linejoin="round"/>
<path d="M9.95796 7.09139L9.43701 4.13696" stroke="black" stroke-width="2" stroke-linecap="round" stroke-linejoin="round"/>
<path d="M6.08563 9.55716L3.62817 7.83643" stroke="black" stroke-width="2" stroke-linecap="round" stroke-linejoin="round"/>
<path d="M5.09139 14.0391L2.13696 14.56" stroke="black" stroke-width="2" stroke-linecap="round" stroke-linejoin="round"/>
<path d="M14.4397 8.08563L16.1604 5.62817" stroke="black" stroke-width="2" stroke-linecap="round" stroke-linejoin="round"/>
<path d="M6.45543 16.9191C5.89248 16.2666 5.47669 15.5004 5.23636 14.6728C4.99602 13.8452 4.93677 12.9755 5.06264 12.1229C5.1885 11.2703 5.49653 10.4548 5.96577 9.73193C6.43501 9.00904 7.05445 8.39571 7.78194 7.93365C8.50944 7.4716 9.32792 7.17166 10.1817 7.05425C11.0355 6.93683 11.9046 7.00469 12.7298 7.25322C13.555 7.50174 14.317 7.92509 14.964 8.49448C15.6109 9.06386 16.1276 9.76591 16.479 10.5529" stroke="black" stroke-width="2" stroke-linecap="round" stroke-linejoin="round"/>
</svg>
