<svg width="32" height="32" viewBox="0 0 32 32" fill="none" xmlns="http://www.w3.org/2000/svg">
<path d="M16 30L19.2813 25" stroke="black" stroke-width="2" stroke-linecap="round" stroke-linejoin="round"/>
<path d="M12.3438 26L16.2813 20" stroke="black" stroke-width="2" stroke-linecap="round" stroke-linejoin="round"/>
<path d="M11 11.5C11 9.81886 11.4985 8.17547 12.4325 6.77766C13.3665 5.37984 14.694 4.29037 16.2472 3.64703C17.8004 3.00368 19.5095 2.83535 21.1583 3.16333C22.8071 3.4913 24.3217 4.30085 25.5104 5.4896C26.6992 6.67834 27.5087 8.1929 27.8367 9.84174C28.1647 11.4906 27.9963 13.1996 27.353 14.7528C26.7097 16.306 25.6202 17.6335 24.2224 18.5675C22.8246 19.5015 21.1812 20 19.5 20H9.50002C8.70145 19.9993 7.91259 19.8248 7.18829 19.4884C6.46399 19.1521 5.82162 18.6621 5.30582 18.0525C4.79002 17.4428 4.41317 16.7281 4.20145 15.9581C3.98973 15.1881 3.94823 14.3813 4.07984 13.5936C4.21144 12.806 4.51299 12.0564 4.96352 11.3971C5.41405 10.7377 6.00277 10.1844 6.68874 9.77553C7.37471 9.36667 8.14149 9.1121 8.93579 9.0295C9.73008 8.94691 10.5328 9.03827 11.2882 9.29724" stroke="black" stroke-width="2" stroke-linecap="round" stroke-linejoin="round"/>
</svg>
