<svg width="32" height="32" viewBox="0 0 32 32" fill="none" xmlns="http://www.w3.org/2000/svg">
<path d="M11 18.5C11 16.8189 11.4985 15.1755 12.4325 13.7777C13.3665 12.3798 14.694 11.2904 16.2472 10.647C17.8004 10.0037 19.5095 9.83535 21.1583 10.1633C22.8071 10.4913 24.3217 11.3008 25.5104 12.4896C26.6992 13.6783 27.5087 15.1929 27.8367 16.8417C28.1647 18.4906 27.9963 20.1996 27.353 21.7528C26.7097 23.306 25.6202 24.6335 24.2224 25.5675C22.8246 26.5015 21.1812 27 19.5 27H9.50002C8.70145 26.9993 7.91259 26.8248 7.18829 26.4884C6.46399 26.1521 5.82162 25.6621 5.30582 25.0525C4.79002 24.4428 4.41317 23.7281 4.20145 22.9581C3.98973 22.1881 3.94823 21.3813 4.07984 20.5936C4.21144 19.806 4.51299 19.0564 4.96352 18.3971C5.41405 17.7377 6.00277 17.1844 6.68874 16.7755C7.37471 16.3667 8.14149 16.1121 8.93579 16.0295C9.73008 15.9469 10.5328 16.0383 11.2882 16.2972" stroke="black" stroke-width="2" stroke-linecap="round" stroke-linejoin="round"/>
<path d="M5.87366 17.366C4.71141 16.8715 3.68248 16.1092 2.87074 15.1415C2.059 14.1738 1.48744 13.0279 1.20264 11.7974L1.20267 11.7972C2.52459 12.1005 3.90187 12.0629 5.20533 11.6882C6.50878 11.3134 7.69568 10.6137 8.6547 9.65469C9.61371 8.69567 10.3134 7.50877 10.6882 6.20532C11.0629 4.90187 11.1005 3.52458 10.7972 2.20266L10.7973 2.20264C12.5604 2.60973 14.1335 3.60228 15.26 5.01835C16.3864 6.43443 16.9998 8.19044 16.9999 9.99991C16.9999 10.1261 16.997 10.2516 16.9912 10.3764" stroke="black" stroke-width="2" stroke-linecap="round" stroke-linejoin="round"/>
</svg>
