<svg width="32" height="32" viewBox="0 0 32 32" fill="none" xmlns="http://www.w3.org/2000/svg">
<path d="M14.0646 22.3942C13.3721 23.2043 12.4762 23.8151 11.4692 24.164C10.4622 24.5128 9.38041 24.587 8.3352 24.3789C7.28998 24.1708 6.3191 23.6879 5.52247 22.98C4.72585 22.2721 4.13225 21.3647 3.80278 20.3511C3.47332 19.3376 3.41988 18.2546 3.64797 17.2136C3.87605 16.1726 4.37743 15.2111 5.1005 14.4282C5.82356 13.6453 6.74219 13.0692 7.76184 12.7592C8.78149 12.4492 9.86532 12.4166 10.9018 12.6646L10.9017 12.6649C10.3379 11.7562 10.0272 10.7134 10.0017 9.64426C9.97625 8.57517 10.237 7.5187 10.7569 6.58421C11.2769 5.64973 12.0372 4.87119 12.959 4.32919C13.8809 3.78718 14.9309 3.50142 16.0003 3.50146C17.0697 3.50151 18.1196 3.78737 19.0414 4.32946C19.9633 4.87155 20.7235 5.65015 21.2433 6.58468C21.7632 7.51922 22.0238 8.57571 21.9983 9.6448C21.9727 10.7139 21.6619 11.7567 21.098 12.6654L21.0971 12.6648C22.1344 12.4154 23.2195 12.447 24.2405 12.7564C25.2615 13.0658 26.1816 13.6418 26.9059 14.4251C27.6303 15.2084 28.1327 16.1707 28.3614 17.2127C28.5901 18.2548 28.5369 19.339 28.2072 20.3537C27.8774 21.3683 27.2832 22.2767 26.4856 22.9853C25.688 23.6939 24.7159 24.177 23.6695 24.3849C22.6231 24.5928 21.5402 24.5179 20.5323 24.1681C19.5244 23.8182 18.628 23.2059 17.9355 22.3944L20 28.9999H12L14.0646 22.3942Z" stroke="black" stroke-width="2" stroke-linecap="round" stroke-linejoin="round"/>
</svg>
