<svg width="30" height="40" viewBox="0 0 30 40" fill="none" xmlns="http://www.w3.org/2000/svg">
<path d="M0.5 36V4C0.5 2.067 2.067 0.5 4 0.5H17.9C18.7987 0.5 19.663 0.845712 20.3138 1.46552L28.4138 9.1798C29.1074 9.8404 29.5 10.7564 29.5 11.7143V36C29.5 37.933 27.933 39.5 26 39.5H4C2.067 39.5 0.5 37.933 0.5 36Z" fill="white" stroke="#E5E9EB"/>
<path fill-rule="evenodd" clip-rule="evenodd" d="M17.316 13.051C17.4407 13.0925 17.5559 13.1581 17.6552 13.2442C17.7545 13.3302 17.8358 13.4349 17.8946 13.5524C17.9534 13.6699 17.9885 13.7978 17.9978 13.9288C18.0071 14.0598 17.9906 14.1914 17.949 14.316L13.949 26.316C13.8652 26.5677 13.6849 26.7758 13.4476 26.8945C13.2104 27.0132 12.9357 27.0329 12.684 26.949C12.4323 26.8652 12.2243 26.6849 12.1055 26.4476C11.9868 26.2104 11.9672 25.9357 12.051 25.684L16.051 13.684C16.0925 13.5594 16.1581 13.4442 16.2442 13.3449C16.3302 13.2456 16.4349 13.1643 16.5524 13.1055C16.6699 13.0467 16.7978 13.0116 16.9288 13.0023C17.0598 12.9929 17.1914 13.0095 17.316 13.051V13.051ZM10.707 16.293C10.8945 16.4806 10.9998 16.7349 10.9998 17C10.9998 17.2652 10.8945 17.5195 10.707 17.707L8.41403 20L10.707 22.293C10.8025 22.3853 10.8787 22.4956 10.9311 22.6176C10.9835 22.7396 11.0111 22.8709 11.0123 23.0036C11.0134 23.1364 10.9881 23.2681 10.9379 23.391C10.8876 23.5139 10.8133 23.6255 10.7194 23.7194C10.6255 23.8133 10.5139 23.8876 10.391 23.9379C10.2681 23.9881 10.1364 24.0134 10.0036 24.0123C9.87085 24.0111 9.73963 23.9836 9.61763 23.9311C9.49562 23.8787 9.38528 23.8026 9.29303 23.707L6.29303 20.707C6.10556 20.5195 6.00024 20.2652 6.00024 20C6.00024 19.7349 6.10556 19.4806 6.29303 19.293L9.29303 16.293C9.48056 16.1056 9.73487 16.0003 10 16.0003C10.2652 16.0003 10.5195 16.1056 10.707 16.293V16.293ZM19.293 16.293C19.4806 16.1056 19.7349 16.0003 20 16.0003C20.2652 16.0003 20.5195 16.1056 20.707 16.293L23.707 19.293C23.8945 19.4806 23.9998 19.7349 23.9998 20C23.9998 20.2652 23.8945 20.5195 23.707 20.707L20.707 23.707C20.6148 23.8026 20.5044 23.8787 20.3824 23.9311C20.2604 23.9836 20.1292 24.0111 19.9964 24.0123C19.8637 24.0134 19.732 23.9881 19.6091 23.9379C19.4862 23.8876 19.3745 23.8133 19.2806 23.7194C19.1867 23.6255 19.1125 23.5139 19.0622 23.391C19.0119 23.2681 18.9866 23.1364 18.9878 23.0036C18.9889 22.8709 19.0165 22.7396 19.0689 22.6176C19.1213 22.4956 19.1975 22.3853 19.293 22.293L21.586 20L19.293 17.707C19.1056 17.5195 19.0002 17.2652 19.0002 17C19.0002 16.7349 19.1056 16.4806 19.293 16.293V16.293Z" fill="#1AC19D"/>
</svg>
