<svg width="32" height="32" viewBox="0 0 32 32" fill="none" xmlns="http://www.w3.org/2000/svg">
<path d="M27.9993 15.9265C28.0112 17.5168 27.7059 19.0935 27.1012 20.5644C26.4965 22.0353 25.6046 23.3708 24.4777 24.4929C19.8595 29.103 12.3144 29.1548 7.63646 24.6054C5.91957 22.9368 4.74104 20.7929 4.25239 18.4492C3.76375 16.1055 3.98734 13.6692 4.89442 11.4536C5.80149 9.23803 7.35058 7.34442 9.34249 6.01628C11.3344 4.68813 13.6781 3.98619 16.0721 4.00071C16.222 4.00101 16.37 4.03497 16.505 4.10007C16.6401 4.16518 16.7588 4.25977 16.8525 4.37687C16.9461 4.49397 17.0122 4.63059 17.046 4.77667C17.0798 4.92274 17.0804 5.07454 17.0477 5.22086C16.9165 5.8025 16.917 6.40611 17.0492 6.98752C17.1814 7.56893 17.442 8.11342 17.8118 8.58113C18.1816 9.04885 18.6513 9.42796 19.1865 9.69072C19.7217 9.95347 20.309 10.0932 20.9052 10.0997C21.1684 10.1019 21.4203 10.2075 21.6064 10.3936C21.7926 10.5798 21.8981 10.8316 21.9003 11.0948C21.9068 11.6911 22.0465 12.2783 22.3093 12.8135C22.572 13.3487 22.9511 13.8184 23.4188 14.1882C23.8866 14.558 24.431 14.8186 25.0124 14.9508C25.5938 15.083 26.1974 15.0835 26.7791 14.9523C26.9253 14.9196 27.077 14.9201 27.223 14.9538C27.369 14.9875 27.5056 15.0535 27.6227 15.147C27.7397 15.2404 27.8344 15.359 27.8996 15.4939C27.9647 15.6288 27.9988 15.7766 27.9993 15.9265V15.9265Z" stroke="black" stroke-width="2" stroke-linecap="round" stroke-linejoin="round"/>
<path d="M19.5 23C20.3284 23 21 22.3284 21 21.5C21 20.6716 20.3284 20 19.5 20C18.6716 20 18 20.6716 18 21.5C18 22.3284 18.6716 23 19.5 23Z" fill="black"/>
<path d="M11.5 22C12.3284 22 13 21.3284 13 20.5C13 19.6716 12.3284 19 11.5 19C10.6716 19 10 19.6716 10 20.5C10 21.3284 10.6716 22 11.5 22Z" fill="black"/>
<path d="M10.5 15C11.3284 15 12 14.3284 12 13.5C12 12.6716 11.3284 12 10.5 12C9.67157 12 9 12.6716 9 13.5C9 14.3284 9.67157 15 10.5 15Z" fill="black"/>
<path d="M17 17C17.8284 17 18.5 16.3284 18.5 15.5C18.5 14.6716 17.8284 14 17 14C16.1716 14 15.5 14.6716 15.5 15.5C15.5 16.3284 16.1716 17 17 17Z" fill="black"/>
</svg>
