<svg width="32" height="32" viewBox="0 0 32 32" fill="none" xmlns="http://www.w3.org/2000/svg">
<path d="M16 28C22.6274 28 28 22.6274 28 16C28 9.37258 22.6274 4 16 4C9.37258 4 4 9.37258 4 16C4 22.6274 9.37258 28 16 28Z" stroke="black" stroke-width="2" stroke-linecap="round" stroke-linejoin="round"/>
<path d="M20.0001 19.0001C19.3704 19.8394 18.4925 20.4593 17.4909 20.7721C16.4892 21.0848 15.4146 21.0745 14.4191 20.7425C13.4237 20.4106 12.5579 19.7739 11.9444 18.9226C11.3309 18.0714 11.0007 17.0486 11.0007 15.9993C11.0007 14.95 11.3309 13.9272 11.9444 13.0759C12.5579 12.2247 13.4236 11.588 14.4191 11.256C15.4145 10.9241 16.4892 10.9137 17.4908 11.2265C18.4925 11.5392 19.3703 12.1591 20.0001 12.9984" stroke="black" stroke-width="2" stroke-linecap="round" stroke-linejoin="round"/>
</svg>
