<svg width="30" height="40" viewBox="0 0 30 40" fill="none" xmlns="http://www.w3.org/2000/svg">
<path d="M0.75 36V4C0.75 2.20507 2.20507 0.75 4 0.75H17.9C18.7345 0.75 19.5371 1.07102 20.1414 1.64655L28.2414 9.36084C28.8855 9.97425 29.25 10.8248 29.25 11.7143V36C29.25 37.7949 27.7949 39.25 26 39.25H4C2.20508 39.25 0.75 37.7949 0.75 36Z" fill="white" stroke="#E5E9EB" stroke-width="1.5"/>
<path d="M8.98 16.96C8.68 16.86 8.31 16.81 7.86 16.8H4.76V24H7.86C8.95 24 9.75 23.55 10.27 22.66C10.66 21.99 10.85 21.18 10.85 20.23C10.85 19.85 10.81 19.45 10.71 19.03C10.62 18.62 10.45 18.23 10.2 17.87C9.89 17.43 9.48 17.13 8.98 16.96ZM7.61 22.75H6.22V18.05H7.61C8.29 18.05 8.75 18.25 8.98 18.64C9.21 19.03 9.32 19.6 9.32 20.33C9.32 20.86 9.24 21.31 9.09 21.7C8.81 22.4 8.32 22.75 7.61 22.75ZM17.0668 23.36C17.7968 22.67 18.1568 21.69 18.1568 20.39C18.1568 19.07 17.7968 18.08 17.0668 17.42C16.5268 16.86 15.7468 16.58 14.7168 16.58C13.6868 16.58 12.8968 16.86 12.3568 17.42C11.6268 18.08 11.2568 19.07 11.2568 20.39C11.2568 21.69 11.6268 22.67 12.3568 23.36C12.8968 23.92 13.6868 24.2 14.7168 24.2C15.7468 24.2 16.5268 23.92 17.0668 23.36ZM16.1368 22.27C15.7768 22.71 15.3068 22.93 14.7168 22.93C14.1168 22.93 13.6468 22.71 13.2868 22.27C12.9268 21.83 12.7568 21.2 12.7568 20.39C12.7568 19.58 12.9268 18.96 13.2868 18.52C13.6468 18.08 14.1168 17.86 14.7168 17.86C15.3068 17.86 15.7768 18.08 16.1368 18.52C16.4768 18.96 16.6568 19.59 16.6568 20.39C16.6568 21.2 16.4768 21.83 16.1368 22.27ZM19.56 17.55C18.89 18.23 18.55 19.21 18.55 20.46C18.55 21.62 18.85 22.54 19.44 23.2C20.03 23.87 20.84 24.2 21.88 24.2C22.71 24.2 23.4 23.96 23.94 23.46C24.47 22.97 24.8 22.33 24.94 21.55H23.45C23.34 21.92 23.22 22.2 23.07 22.38C22.79 22.73 22.39 22.9 21.86 22.9C21.35 22.9 20.92 22.7 20.59 22.3C20.25 21.9 20.09 21.29 20.09 20.48C20.09 19.68 20.24 19.05 20.56 18.61C20.88 18.17 21.31 17.95 21.85 17.95C22.39 17.95 22.8 18.11 23.07 18.42C23.22 18.59 23.35 18.85 23.45 19.2H24.95C24.93 18.75 24.76 18.3 24.45 17.86C23.89 17.06 23.01 16.67 21.8 16.67C20.89 16.67 20.15 16.96 19.56 17.55Z" fill="#4094F7"/>
</svg>
