<svg width="32" height="32" viewBox="0 0 32 32" fill="none" xmlns="http://www.w3.org/2000/svg">
<path d="M6 5L26 27" stroke="black" stroke-width="2" stroke-linecap="round" stroke-linejoin="round"/>
<path d="M11.4286 10.9714C11.1451 11.6101 10.9991 12.3012 11 12.9999" stroke="black" stroke-width="2" stroke-linecap="round" stroke-linejoin="round"/>
<path d="M10.8722 4.41301C12.3903 3.50714 14.1213 3.01979 15.889 3.00059C17.6567 2.98139 19.3979 3.43101 20.9353 4.30368C22.4726 5.17635 23.7513 6.44088 24.641 7.96849C25.5306 9.4961 25.9995 11.2322 26 13" stroke="black" stroke-width="2" stroke-linecap="round" stroke-linejoin="round"/>
<path d="M20.2424 27.0006C19.5216 27.8741 18.5486 28.5039 17.4565 28.8038C16.3643 29.1037 15.2062 29.0591 14.1403 28.6761C13.0745 28.2931 12.1528 27.5904 11.5013 26.664C10.8497 25.7376 10.5 24.6327 10.5 23.5001C10.5 18.3138 6.00001 20.0001 6.00001 13.0001C5.99664 10.8827 6.66851 8.81933 7.91798 7.10986" stroke="black" stroke-width="2" stroke-linecap="round" stroke-linejoin="round"/>
<path d="M20.3844 14.8761C20.7964 14.3386 21.0134 13.6771 21.0001 13C20.9995 12.2043 20.8091 11.4201 20.4448 10.7127C20.0804 10.0052 19.5526 9.39489 18.9052 8.93231C18.2577 8.46972 17.5092 8.16823 16.7219 8.05286C15.9345 7.9375 15.131 8.01158 14.3781 8.26896" stroke="black" stroke-width="2" stroke-linecap="round" stroke-linejoin="round"/>
<path d="M20.8614 21.3476C20.4835 21.4859 20.0779 21.531 19.6788 21.4791C19.2798 21.4272 18.8992 21.2797 18.5692 21.0493C18.2393 20.8189 17.9699 20.5123 17.7837 20.1556C17.5976 19.7988 17.5002 19.4024 17.5 19C17.4955 18.6138 17.5628 18.2301 17.6984 17.8684" stroke="black" stroke-width="2" stroke-linecap="round" stroke-linejoin="round"/>
</svg>
