<svg width="32" height="32" viewBox="0 0 32 32" fill="none" xmlns="http://www.w3.org/2000/svg">
<path d="M15.2651 4.79609L5.54913 15.3218C5.41729 15.4646 5.32993 15.6428 5.29774 15.8344C5.26555 16.0261 5.28993 16.2231 5.36789 16.4011C5.44585 16.5792 5.57401 16.7307 5.7367 16.837C5.89939 16.9434 6.08956 17 6.28394 17H25.716C25.9103 17 26.1005 16.9434 26.2632 16.837C26.4259 16.7307 26.5541 16.5792 26.632 16.4011C26.71 16.2231 26.7343 16.0261 26.7022 15.8344C26.67 15.6428 26.5826 15.4646 26.4508 15.3218L16.7348 4.79609C16.6411 4.69464 16.5275 4.61369 16.401 4.55832C16.2746 4.50295 16.138 4.47437 16 4.47437C15.8619 4.47437 15.7253 4.50295 15.5989 4.55832C15.4724 4.61369 15.3588 4.69464 15.2651 4.79609V4.79609Z" stroke="black" stroke-width="2" stroke-linecap="round" stroke-linejoin="round"/>
<path d="M5 22V25C5 25.5523 5.44772 26 6 26H26C26.5523 26 27 25.5523 27 25V22C27 21.4477 26.5523 21 26 21H6C5.44772 21 5 21.4477 5 22Z" stroke="black" stroke-width="2" stroke-linecap="round" stroke-linejoin="round"/>
</svg>
