<svg width="32" height="32" viewBox="0 0 32 32" fill="none" xmlns="http://www.w3.org/2000/svg">
<path d="M15.2239 4.9551L4.32484 18.3693C4.20565 18.516 4.13048 18.6935 4.10803 18.8811C4.08558 19.0688 4.11678 19.259 4.19802 19.4297C4.27925 19.6003 4.40718 19.7445 4.56699 19.8454C4.7268 19.9463 4.91194 19.9999 5.10095 19.9999H26.899C27.088 19.9999 27.2732 19.9463 27.433 19.8454C27.5928 19.7445 27.7207 19.6003 27.802 19.4297C27.8832 19.259 27.9144 19.0688 27.8919 18.8811C27.8695 18.6935 27.7943 18.516 27.6751 18.3693L16.7761 4.9551C16.6823 4.8397 16.564 4.74666 16.4298 4.68276C16.2955 4.61885 16.1487 4.58569 16 4.58569C15.8513 4.58569 15.7045 4.61885 15.5702 4.68276C15.436 4.74666 15.3176 4.8397 15.2239 4.9551Z" stroke="black" stroke-width="2" stroke-linecap="round" stroke-linejoin="round"/>
<path d="M28 26H4" stroke="black" stroke-width="2" stroke-linecap="round" stroke-linejoin="round"/>
</svg>
