<svg width="32" height="32" viewBox="0 0 32 32" fill="none" xmlns="http://www.w3.org/2000/svg">
<path d="M11.4438 12.4436L19.9291 20.9289" stroke="black" stroke-width="2" stroke-linecap="round" stroke-linejoin="round"/>
<path d="M27.0001 26.9793H9.00876L4.37271 22.3432C4.187 22.1575 4.03968 21.937 3.93917 21.6944C3.83866 21.4517 3.78693 21.1916 3.78693 20.929C3.78693 20.6664 3.83866 20.4063 3.93917 20.1636C4.03968 19.921 4.187 19.7005 4.37271 19.5148L18.5148 5.37265C18.8899 4.99758 19.3986 4.78687 19.9291 4.78687C20.4595 4.78687 20.9682 4.99758 21.3433 5.37265L27.0001 11.0295C27.1859 11.2152 27.3332 11.4357 27.4337 11.6784C27.5342 11.921 27.5859 12.1811 27.5859 12.4437C27.5859 12.7064 27.5342 12.9664 27.4337 13.2091C27.3332 13.4517 27.1859 13.6722 27.0001 13.8579L13.8788 26.9793" stroke="black" stroke-width="2" stroke-linecap="round" stroke-linejoin="round"/>
</svg>
