<svg width="32" height="32" viewBox="0 0 32 32" fill="none" xmlns="http://www.w3.org/2000/svg">
<path d="M22.4748 14.4749L23.0858 15.0858C23.2715 15.2715 23.4188 15.492 23.5193 15.7347C23.6198 15.9773 23.6715 16.2374 23.6715 16.5C23.6715 16.7627 23.6198 17.0228 23.5193 17.2654C23.4188 17.5081 23.2715 17.7285 23.0858 17.9143L22.2071 18.7929C22.0195 18.9805 21.7652 19.0858 21.5 19.0858C21.2348 19.0858 20.9804 18.9805 20.7929 18.7929L13.2071 11.2071C13.0195 11.0196 12.9142 10.7653 12.9142 10.5C12.9142 10.2348 13.0195 9.98047 13.2071 9.79294L14.0858 8.91426C14.2715 8.72854 14.492 8.58122 14.7346 8.48071C14.9773 8.3802 15.2373 8.32847 15.5 8.32847C15.7626 8.32847 16.0227 8.3802 16.2653 8.48071C16.508 8.58122 16.7285 8.72854 16.9142 8.91426L17.5251 9.52517L20.9736 6.07665C22.3221 4.72813 24.5194 4.64552 25.9043 5.95657C26.2444 6.27801 26.5165 6.66436 26.7046 7.09278C26.8927 7.5212 26.9931 7.98299 26.9996 8.45085C27.0062 8.91871 26.9189 9.38314 26.7429 9.81668C26.5669 10.2502 26.3057 10.6441 25.9748 10.9749L22.4748 14.4749Z" stroke="black" stroke-width="2" stroke-linecap="round" stroke-linejoin="round"/>
<path d="M19.8284 17.8285L12.8284 24.8285C12.332 25.3253 11.7136 25.6826 11.0353 25.8644C10.357 26.0463 9.64275 26.0462 8.96446 25.8644L6.03917 27.1414C5.85495 27.2219 5.65078 27.2449 5.45327 27.2075C5.25577 27.1702 5.0741 27.0742 4.93197 26.9321V26.9321C4.82992 26.83 4.761 26.6996 4.73418 26.5578C4.70737 26.416 4.72391 26.2694 4.78165 26.1371L6.13565 23.0356C5.95378 22.3573 5.95377 21.6431 6.13562 20.9648C6.31747 20.2864 6.67476 19.668 7.17154 19.1716L14.1715 12.1716" stroke="black" stroke-width="2" stroke-linecap="round" stroke-linejoin="round"/>
</svg>
