<svg width="32" height="32" viewBox="0 0 32 32" fill="none" xmlns="http://www.w3.org/2000/svg">
<path d="M6 5.00024L26 27.0002" stroke="black" stroke-width="2" stroke-linecap="round" stroke-linejoin="round"/>
<path d="M19.3634 19.7C18.3822 20.5919 17.0868 21.0575 15.7623 20.9943C14.4378 20.9312 13.1926 20.3445 12.3006 19.3633C11.4086 18.3822 10.9429 17.0869 11.006 15.7624C11.069 14.4378 11.6555 13.1926 12.6366 12.3005" stroke="black" stroke-width="2" stroke-linecap="round" stroke-linejoin="round"/>
<path d="M9.24931 8.57446C4.15315 11.1552 2 16.0003 2 16.0003C2 16.0003 6 24.9993 16 24.9993C18.343 25.018 20.6567 24.4783 22.7497 23.425" stroke="black" stroke-width="2" stroke-linecap="round" stroke-linejoin="round"/>
<path d="M26.0762 21.1377C28.8014 18.6968 30 16.0003 30 16.0003C30 16.0003 26 6.99929 16 6.99929C15.1339 6.99787 14.2692 7.06829 13.4147 7.20981" stroke="black" stroke-width="2" stroke-linecap="round" stroke-linejoin="round"/>
<path d="M16.9409 11.0886C18.0036 11.2927 18.9715 11.8358 19.6994 12.6365C20.4274 13.4373 20.876 14.4524 20.9781 15.5297" stroke="black" stroke-width="2" stroke-linecap="round" stroke-linejoin="round"/>
</svg>
