<svg width="32" height="32" viewBox="0 0 32 32" fill="none" xmlns="http://www.w3.org/2000/svg">
<path d="M27 17C27 23.4381 17.695 25.6467 16.2013 25.9598C16.0685 25.9878 15.9315 25.9878 15.7988 25.9598C14.305 25.6467 5 23.4381 5 17V9.70045C5 9.49518 5.06317 9.29488 5.18093 9.12675C5.2987 8.95862 5.46535 8.83081 5.65826 8.76066L15.6583 5.12429C15.879 5.04402 16.121 5.04402 16.3417 5.12429L26.3417 8.76066C26.5347 8.83081 26.7013 8.95862 26.8191 9.12675C26.9368 9.29488 27 9.49518 27 9.70045V17Z" stroke="black" stroke-width="2" stroke-linecap="round" stroke-linejoin="round"/>
<path d="M11 14H21" stroke="black" stroke-width="2" stroke-linecap="round" stroke-linejoin="round"/>
<path d="M11 18H21" stroke="black" stroke-width="2" stroke-linecap="round" stroke-linejoin="round"/>
<path d="M26.6763 19H28C28.7957 19 29.5588 18.6839 30.1214 18.1213C30.684 17.5587 31 16.7956 31 16V13C31 12.2044 30.684 11.4413 30.1214 10.8787C29.5588 10.3161 28.7957 10 28 10H27" stroke="black" stroke-width="2" stroke-linecap="round" stroke-linejoin="round"/>
<path d="M5.3239 19H4C3.20435 19 2.44129 18.6839 1.87868 18.1213C1.31607 17.5587 1 16.7956 1 16V13C1 12.2044 1.31607 11.4413 1.87868 10.8787C2.44129 10.3161 3.20435 10 4 10H5" stroke="black" stroke-width="2" stroke-linecap="round" stroke-linejoin="round"/>
</svg>
