<svg width="32" height="32" viewBox="0 0 32 32" fill="none" xmlns="http://www.w3.org/2000/svg">
<path d="M30.1915 15.1589L19.0408 7.99061C18.8897 7.8935 18.7153 7.83886 18.5358 7.83243C18.3563 7.826 18.1784 7.86802 18.0208 7.95408C17.8632 8.04013 17.7316 8.16704 17.64 8.32149C17.5484 8.47593 17.5 8.6522 17.5 8.83179V23.1685C17.5 23.348 17.5484 23.5243 17.64 23.6788C17.7316 23.8332 17.8632 23.9601 18.0208 24.0462C18.1784 24.1322 18.3563 24.1742 18.5358 24.1678C18.7153 24.1614 18.8897 24.1067 19.0408 24.0096L30.1915 16.8413C30.3324 16.7508 30.4482 16.6263 30.5285 16.4793C30.6087 16.3323 30.6507 16.1676 30.6507 16.0001C30.6507 15.8327 30.6087 15.6679 30.5285 15.5209C30.4482 15.374 30.3324 15.2495 30.1915 15.1589Z" stroke="black" stroke-width="2" stroke-linecap="round" stroke-linejoin="round"/>
<path d="M16.1915 15.1589L5.04076 7.99061C4.88969 7.8935 4.71527 7.83886 4.5358 7.83243C4.35633 7.826 4.17844 7.86802 4.02081 7.95408C3.86319 8.04013 3.73165 8.16704 3.64 8.32149C3.54836 8.47593 3.5 8.6522 3.5 8.83179V23.1685C3.5 23.348 3.54836 23.5243 3.64 23.6788C3.73165 23.8332 3.86319 23.9601 4.02081 24.0462C4.17844 24.1322 4.35633 24.1742 4.5358 24.1678C4.71527 24.1614 4.88969 24.1067 5.04076 24.0096L16.1915 16.8413C16.3324 16.7508 16.4482 16.6263 16.5285 16.4793C16.6087 16.3323 16.6507 16.1676 16.6507 16.0001C16.6507 15.8327 16.6087 15.6679 16.5285 15.5209C16.4482 15.374 16.3324 15.2495 16.1915 15.1589Z" stroke="black" stroke-width="2" stroke-linecap="round" stroke-linejoin="round"/>
</svg>
