<svg width="26" height="26" viewBox="0 0 26 26" fill="none" xmlns="http://www.w3.org/2000/svg">
<path d="M21.7039 8.35858L16.0164 2.67108C15.8616 2.52018 15.6537 2.43627 15.4375 2.43749H5.6875C5.25652 2.43749 4.8432 2.6087 4.53845 2.91344C4.2337 3.21819 4.0625 3.63151 4.0625 4.06249V21.9375C4.0625 22.3685 4.2337 22.7818 4.53845 23.0865C4.8432 23.3913 5.25652 23.5625 5.6875 23.5625H20.3125C20.7435 23.5625 21.1568 23.3913 21.4615 23.0865C21.7663 22.7818 21.9375 22.3685 21.9375 21.9375V8.93749C21.9387 8.72133 21.8548 8.51337 21.7039 8.35858ZM15.4375 8.93749V4.46874L19.9063 8.93749H15.4375Z" fill="#E0E0E0"/>
</svg>
