<svg width="32" height="32" viewBox="0 0 32 32" fill="none" xmlns="http://www.w3.org/2000/svg">
<path d="M6.33618 23.1153C7.43459 20.9049 8.00445 18.4695 8.00083 16.0012C7.9997 14.8017 8.2688 13.6174 8.78816 12.5362C9.30752 11.455 10.0638 10.5047 11.0008 9.75586" stroke="black" stroke-width="2" stroke-linecap="round" stroke-linejoin="round"/>
<path d="M16.0007 16.0012C16.007 20.0673 14.9755 24.0677 13.0038 27.6238" stroke="black" stroke-width="2" stroke-linecap="round" stroke-linejoin="round"/>
<path d="M12.0007 16.0012C12.0007 14.9404 12.4222 13.9229 13.1723 13.1728C13.9225 12.4226 14.9399 12.0012 16.0007 12.0012C17.0616 12.0012 18.079 12.4226 18.8292 13.1728C19.5793 13.9229 20.0007 14.9404 20.0007 16.0012C20.0066 20.1242 19.0983 24.1972 17.3413 27.927" stroke="black" stroke-width="2" stroke-linecap="round" stroke-linejoin="round"/>
<path d="M27.3206 23.001C27.7741 20.6953 28.0019 18.3509 28.0007 16.001C28.0007 12.8184 26.7364 9.76613 24.486 7.5157C22.2355 5.26526 19.1833 4.00098 16.0007 4.00098C12.8181 4.00098 9.76586 5.26526 7.51542 7.5157C5.26499 9.76613 4.0007 12.8184 4.0007 16.001C4.0022 17.3634 3.77127 18.7162 3.31787 20.001" stroke="black" stroke-width="2" stroke-linecap="round" stroke-linejoin="round"/>
<path d="M11.6008 20.001C11.1739 22.1037 10.4092 24.1234 9.33643 25.9816" stroke="black" stroke-width="2" stroke-linecap="round" stroke-linejoin="round"/>
<path d="M15.0007 8.06312C16.1267 7.92229 17.2698 8.02242 18.3541 8.35688C19.4385 8.69134 20.4394 9.25248 21.2904 10.0031C22.1414 10.7537 22.8232 11.6767 23.2904 12.7108C23.7577 13.7449 23.9998 14.8665 24.0007 16.0012C24.001 17.3384 23.9184 18.6743 23.7532 20.0012" stroke="black" stroke-width="2" stroke-linecap="round" stroke-linejoin="round"/>
<path d="M22.9926 24.001C22.8022 24.7408 22.5863 25.47 22.345 26.1885" stroke="black" stroke-width="2" stroke-linecap="round" stroke-linejoin="round"/>
</svg>
