<svg width="32" height="32" viewBox="0 0 32 32" fill="none" xmlns="http://www.w3.org/2000/svg">
<path d="M22.0008 16.0012C22.0058 19.9111 21.2441 23.784 19.759 27.4009" stroke="black" stroke-width="2" stroke-linecap="round" stroke-linejoin="round"/>
<path d="M20.4726 12.0008C19.6624 11.0952 18.5964 10.4569 17.4155 10.1704C16.2347 9.88389 14.9947 9.96265 13.8596 10.3963C12.7245 10.8299 11.7478 11.5979 11.0587 12.5988C10.3696 13.5996 10.0007 14.7861 10.0007 16.0012C10.0054 19.0506 9.23183 22.0508 7.75317 24.7177" stroke="black" stroke-width="2" stroke-linecap="round" stroke-linejoin="round"/>
<path d="M12.0006 4.68408C13.8109 4.04605 15.7477 3.85125 17.6488 4.11602C19.5498 4.38078 21.3597 5.09739 22.9267 6.20578C24.4938 7.31417 25.7723 8.78204 26.6551 10.4864C27.5379 12.1907 27.9993 14.0818 28.0007 16.0012C28.0023 18.6928 27.7031 21.3761 27.1086 24.0012" stroke="black" stroke-width="2" stroke-linecap="round" stroke-linejoin="round"/>
<path d="M2.9126 21.001C3.63189 19.4324 4.00308 17.7267 4.00068 16.001C3.99877 14.3124 4.35419 12.6424 5.04358 11.1008C5.73297 9.55927 6.74073 8.18103 8.00065 7.05664" stroke="black" stroke-width="2" stroke-linecap="round" stroke-linejoin="round"/>
<path d="M13.8231 26.0012C13.5696 26.5536 13.296 27.0944 13.0024 27.6235" stroke="black" stroke-width="2" stroke-linecap="round" stroke-linejoin="round"/>
<path d="M15.9993 16.001C16.0008 18.0248 15.7467 20.0408 15.2432 22.001" stroke="black" stroke-width="2" stroke-linecap="round" stroke-linejoin="round"/>
</svg>
