<svg width="32" height="32" viewBox="0 0 32 32" fill="none" xmlns="http://www.w3.org/2000/svg">
<path d="M22.4235 18.5C22.2108 19.8621 21.571 21.1214 20.5962 22.0962C19.6214 23.071 18.3621 23.7109 17 23.9235" stroke="black" stroke-width="2" stroke-linecap="round" stroke-linejoin="round"/>
<path d="M9.00449 8.16961C7.07472 11.0788 5.5 14.4018 5.5 17.4999C5.5 20.2847 6.60625 22.9554 8.57538 24.9246C10.5445 26.8937 13.2152 27.9999 16 27.9999C18.7848 27.9999 21.4555 26.8937 23.4246 24.9246C25.3938 22.9554 26.5 20.2847 26.5 17.4999C26.5 10.9999 22 5.99995 18.3529 2.35889L18.3528 2.35899L14 11.4999L9.00463 8.1697L9.00449 8.16961Z" stroke="black" stroke-width="2" stroke-linecap="round" stroke-linejoin="round"/>
</svg>
