<svg width="32" height="32" viewBox="0 0 32 32" fill="none" xmlns="http://www.w3.org/2000/svg">
<path d="M19.5 11C20.3284 11 21 10.3284 21 9.5C21 8.67157 20.3284 8 19.5 8C18.6716 8 18 8.67157 18 9.5C18 10.3284 18.6716 11 19.5 11Z" fill="black"/>
<path d="M2 22.9954C30.9802 29.3389 27.9739 9.43341 27.1484 5.61997C27.1077 5.43159 27.0136 5.25891 26.8773 5.12264C26.741 4.98636 26.5684 4.89226 26.38 4.8516C22.5665 4.0261 2.66058 1.01978 9 30" stroke="black" stroke-width="2" stroke-linecap="round" stroke-linejoin="round"/>
<path d="M25.1684 18.9988C23.5642 19.0213 21.9718 18.7219 20.4853 18.1183C18.9988 17.5147 17.6485 16.6191 16.5141 15.4846C15.3797 14.3501 14.4844 12.9996 13.881 11.513C13.2776 10.0265 12.9785 8.43402 13.0012 6.82983" stroke="black" stroke-width="2" stroke-linecap="round" stroke-linejoin="round"/>
</svg>
