<svg width="32" height="32" viewBox="0 0 32 32" fill="none" xmlns="http://www.w3.org/2000/svg">
<path d="M19.5 11C20.3284 11 21 10.3284 21 9.5C21 8.67157 20.3284 8 19.5 8C18.6716 8 18 8.67157 18 9.5C18 10.3284 18.6716 11 19.5 11Z" fill="black"/>
<path d="M23.2879 20.9931C23.1925 20.9976 23.0965 20.9999 23 20.9999C21.4087 20.9999 19.8826 20.3678 18.7574 19.2426C17.6321 18.1173 17 16.5912 17 14.9999C15.4087 14.9999 13.8826 14.3678 12.7574 13.2426C11.6321 12.1173 11 10.5912 11 8.99992C11 8.90288 11.0023 8.80639 11.0069 8.71045" stroke="black" stroke-width="2" stroke-linecap="round" stroke-linejoin="round"/>
<path d="M7.77212 19.1473L1 21.9954L8 24L10 31L12.85 24.2249V24.2249C30.145 23.8143 27.8508 8.86273 27.1478 5.61739C27.1073 5.42978 27.0136 5.25782 26.8779 5.1221C26.7421 4.98638 26.5702 4.89266 26.3826 4.85216C23.1374 4.14918 8.18689 1.85522 7.77211 19.1473H7.77212Z" stroke="black" stroke-width="2" stroke-linecap="round" stroke-linejoin="round"/>
</svg>
