<svg width="32" height="32" viewBox="0 0 32 32" fill="none" xmlns="http://www.w3.org/2000/svg">
<path d="M9.00024 3H23.0002C23.2655 3 23.5198 3.10536 23.7074 3.29289C23.8949 3.48043 24.0002 3.73478 24.0002 4V9.66667C24.0002 9.88304 23.9301 10.0936 23.8002 10.2667L21.2002 13.7333C21.0704 13.9064 21.0002 14.117 21.0002 14.3333V28C21.0002 28.2652 20.8949 28.5196 20.7074 28.7071C20.5198 28.8946 20.2655 29 20.0002 29H12.0002C11.735 29 11.4807 28.8946 11.2931 28.7071C11.1056 28.5196 11.0002 28.2652 11.0002 28V14.3333C11.0002 14.117 10.9301 13.9064 10.8002 13.7333L8.20024 10.2667C8.07042 10.0936 8.00024 9.88304 8.00024 9.66667V4C8.00024 3.73478 8.1056 3.48043 8.29314 3.29289C8.48067 3.10536 8.73503 3 9.00024 3V3Z" stroke="black" stroke-width="2" stroke-linecap="round" stroke-linejoin="round"/>
<path d="M16.0002 15V19" stroke="black" stroke-width="2" stroke-linecap="round" stroke-linejoin="round"/>
<path d="M8.00024 8H24.0002" stroke="black" stroke-width="2" stroke-linecap="round" stroke-linejoin="round"/>
</svg>
