<svg width="32" height="32" viewBox="0 0 32 32" fill="none" xmlns="http://www.w3.org/2000/svg">
<path d="M13 4V11.723C13 11.9043 12.9507 12.0821 12.8575 12.2375L4.90868 25.4855C4.81764 25.6372 4.76849 25.8104 4.76625 25.9874C4.76402 26.1643 4.80878 26.3387 4.89597 26.4927C4.98316 26.6467 5.10966 26.7748 5.26254 26.8639C5.41542 26.953 5.58921 27 5.76618 27H26.2338C26.4108 27 26.5846 26.953 26.7374 26.8639C26.8903 26.7748 27.0168 26.6467 27.104 26.4927C27.1912 26.3387 27.236 26.1643 27.2337 25.9874C27.2315 25.8104 27.1823 25.6372 27.0913 25.4855L19.1425 12.2375C19.0492 12.0821 19 11.9043 19 11.723V4" stroke="black" stroke-width="2" stroke-linecap="round" stroke-linejoin="round"/>
<path d="M11 4H21" stroke="black" stroke-width="2" stroke-linecap="round" stroke-linejoin="round"/>
<path d="M7.82709 20.6206C9.30506 19.5433 11.8422 18.9211 16 21C20.463 23.2315 23.0587 22.3507 24.4815 21.1357" stroke="black" stroke-width="2" stroke-linecap="round" stroke-linejoin="round"/>
</svg>
