<svg width="32" height="32" viewBox="0 0 32 32" fill="none" xmlns="http://www.w3.org/2000/svg">
<path d="M16 24.9999C18 24.9999 21.307 24.9774 25.1112 22.781C28.9154 20.5847 30.1465 17.8332 30.5404 16.4246C30.5758 16.2973 30.5854 16.1642 30.5687 16.0331C30.5521 15.902 30.5095 15.7755 30.4434 15.661C30.3773 15.5466 30.2891 15.4465 30.1839 15.3665C30.0787 15.2865 29.9586 15.2283 29.8306 15.1952C28.9079 14.9587 27.3145 14.7449 25.2645 15.2312" stroke="black" stroke-width="2" stroke-linecap="round" stroke-linejoin="round"/>
<path d="M6.73525 15.2312C4.68541 14.745 3.09205 14.9587 2.16938 15.1952C2.04142 15.2283 1.92133 15.2865 1.81612 15.3665C1.71092 15.4465 1.6227 15.5466 1.55662 15.661C1.49054 15.7755 1.44793 15.902 1.43127 16.0331C1.41462 16.1642 1.42425 16.2973 1.4596 16.4246C1.85353 17.8332 3.08458 20.5847 6.88881 22.781C10.693 24.9774 14 24.9999 16 24.9999" stroke="black" stroke-width="2" stroke-linecap="round" stroke-linejoin="round"/>
<path d="M16 24.9999C16 24.9999 21 22.2726 21 14.9999C21 9.30184 17.9308 6.39399 16.6017 5.40191C16.428 5.27191 16.2169 5.20166 16 5.20166C15.7831 5.20166 15.572 5.27191 15.3983 5.40191C14.0692 6.39399 11 9.30184 11 14.9999C11 22.2726 16 24.9999 16 24.9999Z" stroke="black" stroke-width="2" stroke-linecap="round" stroke-linejoin="round"/>
<path d="M16 25C17.4988 24.6812 21.5413 22.4022 23.9641 18.2057C26.387 14.0092 25.7902 10.6583 25.3169 9.20093C25.2407 8.96577 25.0801 8.7672 24.866 8.64361C24.6519 8.52001 24.3996 8.48017 24.1579 8.53179C22.7247 8.85671 21.3843 9.50369 20.2383 10.4237" stroke="black" stroke-width="2" stroke-linecap="round" stroke-linejoin="round"/>
<path d="M11.7615 10.4236C10.6156 9.50366 9.27522 8.8567 7.84205 8.53179C7.60031 8.48017 7.34802 8.52001 7.13395 8.64361C6.91988 8.7672 6.75923 8.96577 6.68307 9.20093C6.20975 10.6583 5.61299 14.0092 8.03584 18.2057C10.4587 22.4022 14.5012 24.6812 15.9999 25" stroke="black" stroke-width="2" stroke-linecap="round" stroke-linejoin="round"/>
</svg>
