<svg width="32" height="32" viewBox="0 0 32 32" fill="none" xmlns="http://www.w3.org/2000/svg">
<path d="M16 19.5C17.933 19.5 19.5 17.933 19.5 16C19.5 14.067 17.933 12.5 16 12.5C14.067 12.5 12.5 14.067 12.5 16C12.5 17.933 14.067 19.5 16 19.5Z" stroke="black" stroke-width="2" stroke-linecap="round" stroke-linejoin="round"/>
<path d="M14.3785 12.8978C13.4629 10.9723 12.5 8.5735 12.5 7C12.5 6.07174 12.8687 5.1815 13.5251 4.52513C14.1815 3.86875 15.0717 3.5 16 3.5C16.9283 3.5 17.8185 3.86875 18.4749 4.52513C19.1313 5.1815 19.5 6.07174 19.5 7C19.5 8.5735 18.5371 10.9723 17.6215 12.8978" stroke="black" stroke-width="2" stroke-linecap="round" stroke-linejoin="round"/>
<path d="M12.5026 15.8531C10.3772 15.6834 7.81838 15.3178 6.45569 14.5311C5.65208 14.0668 5.06576 13.3024 4.82568 12.4059C4.5856 11.5094 4.71142 10.5542 5.17546 9.7505C5.63951 8.94675 6.40378 8.36022 7.3002 8.11989C8.19663 7.87955 9.15181 8.0051 9.95569 8.46891C11.3184 9.25566 12.9144 11.2889 14.1241 13.0447" stroke="black" stroke-width="2" stroke-linecap="round" stroke-linejoin="round"/>
<path d="M14.1241 18.9555C12.9144 20.7112 11.3184 22.7445 9.95569 23.5312C9.15181 23.995 8.19663 24.1206 7.3002 23.8802C6.40378 23.6399 5.63951 23.0534 5.17546 22.2496C4.71142 21.4459 4.5856 20.4907 4.82568 19.5942C5.06576 18.6977 5.65208 17.9333 6.45569 17.469C7.81839 16.6823 10.3772 16.3167 12.5026 16.147" stroke="black" stroke-width="2" stroke-linecap="round" stroke-linejoin="round"/>
<path d="M17.6215 19.1023C18.5371 21.0278 19.5 23.4266 19.5 25.0001C19.5 25.9284 19.1313 26.8186 18.4749 27.475C17.8185 28.1314 16.9283 28.5001 16 28.5001C15.0717 28.5001 14.1815 28.1314 13.5251 27.475C12.8687 26.8186 12.5 25.9284 12.5 25.0001C12.5 23.4266 13.4629 21.0278 14.3785 19.1023" stroke="black" stroke-width="2" stroke-linecap="round" stroke-linejoin="round"/>
<path d="M19.4972 16.147C21.6226 16.3167 24.1814 16.6823 25.5441 17.469C26.3477 17.9333 26.934 18.6977 27.1741 19.5942C27.4142 20.4907 27.2884 21.4459 26.8243 22.2496C26.3603 23.0534 25.596 23.6399 24.6996 23.8802C23.8032 24.1206 22.848 23.995 22.0441 23.5312C20.6814 22.7444 19.0854 20.7112 17.8757 18.9555" stroke="black" stroke-width="2" stroke-linecap="round" stroke-linejoin="round"/>
<path d="M17.8757 13.0447C19.0854 11.2889 20.6814 9.25566 22.0441 8.46891C22.848 8.0051 23.8032 7.87955 24.6996 8.11989C25.596 8.36022 26.3603 8.94675 26.8243 9.7505C27.2884 10.5542 27.4142 11.5094 27.1741 12.4059C26.934 13.3024 26.3477 14.0668 25.5441 14.5311C24.1814 15.3178 21.6226 15.6834 19.4972 15.8531" stroke="black" stroke-width="2" stroke-linecap="round" stroke-linejoin="round"/>
</svg>
