<svg width="32" height="32" viewBox="0 0 32 32" fill="none" xmlns="http://www.w3.org/2000/svg">
<path d="M23.0711 23.071C17.8799 28.2621 10.6717 27.8484 7.20579 27.2614C6.58918 27.1575 6.02027 26.864 5.5781 26.4218C5.13594 25.9797 4.84248 25.4108 4.73849 24.7942C4.15156 21.3283 3.73781 14.12 8.92895 8.92886C14.1201 3.73771 21.3284 4.15147 24.7942 4.7384C25.4109 4.84239 25.9798 5.13585 26.4219 5.57801C26.8641 6.02018 27.1576 6.58909 27.2615 7.20569C27.8485 10.6716 28.2622 17.8799 23.0711 23.071Z" stroke="black" stroke-width="2" stroke-linecap="round" stroke-linejoin="round"/>
<path d="M20 12L12 20" stroke="black" stroke-width="2" stroke-linecap="round" stroke-linejoin="round"/>
<path d="M15.5858 12.7573L19.2426 16.4142" stroke="black" stroke-width="2" stroke-linecap="round" stroke-linejoin="round"/>
<path d="M12.7574 15.5857L16.4142 19.2425" stroke="black" stroke-width="2" stroke-linecap="round" stroke-linejoin="round"/>
<path d="M18.528 4.52808L27.472 13.472" stroke="black" stroke-width="2" stroke-linecap="round" stroke-linejoin="round"/>
<path d="M4.52798 18.5281L13.472 27.4721" stroke="black" stroke-width="2" stroke-linecap="round" stroke-linejoin="round"/>
</svg>
