<svg width="32" height="32" viewBox="0 0 32 32" fill="none" xmlns="http://www.w3.org/2000/svg">
<path d="M19 13.5H23" stroke="black" stroke-width="2" stroke-linecap="round" stroke-linejoin="round"/>
<path d="M9 13.5H13" stroke="black" stroke-width="2" stroke-linecap="round" stroke-linejoin="round"/>
<path d="M11 11.5V15.5" stroke="black" stroke-width="2" stroke-linecap="round" stroke-linejoin="round"/>
<path d="M21.5023 6.96753L10.5005 7.00005C8.97233 7.00017 7.49298 7.53858 6.3222 8.52079C5.15141 9.50299 4.36402 10.8662 4.09823 12.3711L4.0993 12.3713L2.05375 22.8917C1.92454 23.6247 2.03239 24.3799 2.36163 25.0475C2.69086 25.715 3.22434 26.2603 3.88458 26.604C4.54482 26.9477 5.29744 27.072 6.03313 26.9588C6.76882 26.8456 7.44927 26.5008 7.97566 25.9746L7.97545 25.9743L13.3799 20.0001L21.5023 19.9675C23.2262 19.9675 24.8795 19.2827 26.0985 18.0637C27.3175 16.8447 28.0023 15.1914 28.0023 13.4675C28.0023 11.7436 27.3175 10.0903 26.0985 8.87134C24.8795 7.65235 23.2262 6.96753 21.5023 6.96753V6.96753Z" stroke="black" stroke-width="2" stroke-linecap="round" stroke-linejoin="round"/>
<path d="M27.9035 12.3389L29.9474 22.8918C30.0766 23.6248 29.9688 24.38 29.6395 25.0475C29.3103 25.7151 28.7768 26.2603 28.1166 26.6041C27.4563 26.9478 26.7037 27.0721 25.968 26.9589C25.2323 26.8457 24.5519 26.5009 24.0255 25.9746L24.0257 25.9744L18.625 19.9791" stroke="black" stroke-width="2" stroke-linecap="round" stroke-linejoin="round"/>
</svg>
