<svg width="32" height="32" viewBox="0 0 32 32" fill="none" xmlns="http://www.w3.org/2000/svg">
<path d="M16 22.0002C19.3137 22.0002 22 19.314 22 16.0002C22 12.6865 19.3137 10.0002 16 10.0002C12.6863 10.0002 10 12.6865 10 16.0002C10 19.314 12.6863 22.0002 16 22.0002Z" stroke="black" stroke-width="2" stroke-linecap="round" stroke-linejoin="round"/>
<path d="M24.6759 10.0813C24.9716 10.5156 25.2343 10.9714 25.4618 11.445L28.7051 13.2455C29.1001 15.0598 29.1015 16.9378 28.7091 18.7527L25.464 20.5541C25.2358 21.0274 24.9723 21.4828 24.6759 21.9166L24.7383 25.6256C23.3646 26.8749 21.7389 27.815 19.9709 28.3826L16.7883 26.473C16.2644 26.512 15.7382 26.5116 15.2143 26.4718L12.0334 28.3803C10.2647 27.8153 8.63762 26.8775 7.26207 25.6302L7.32454 21.9191C7.02878 21.4849 6.76606 21.029 6.53861 20.5554L3.29533 18.755C2.9003 16.9406 2.89894 15.0627 3.29136 13.2478L6.53644 11.4463C6.76464 10.9731 7.02807 10.5176 7.32452 10.0838L7.26209 6.37485C8.63584 5.12557 10.2615 4.18541 12.0295 3.6178L15.2121 5.52741C15.7361 5.48841 16.2622 5.48882 16.7861 5.52866L19.967 3.6201C21.7357 4.18515 23.3628 5.12296 24.7383 6.37026L24.6759 10.0813Z" stroke="black" stroke-width="2" stroke-linecap="round" stroke-linejoin="round"/>
</svg>
