<svg width="32" height="32" viewBox="0 0 32 32" fill="none" xmlns="http://www.w3.org/2000/svg">
<path d="M10.375 14H21.625L24.4514 6.46311C24.4886 6.36389 24.5563 6.27905 24.6449 6.22084C24.7334 6.16264 24.8382 6.13407 24.9441 6.13927C25.0499 6.14447 25.1514 6.18317 25.2338 6.24977C25.3162 6.31638 25.3753 6.40745 25.4026 6.50984L28.8188 19.3205C28.8719 19.5194 28.8622 19.7299 28.7911 19.9232C28.7201 20.1165 28.5911 20.2831 28.4218 20.4003L16.5692 28.6059C16.402 28.7217 16.2034 28.7838 16 28.7838C15.7966 28.7838 15.598 28.7217 15.4308 28.6059L3.57825 20.4003C3.40894 20.2831 3.27995 20.1165 3.20889 19.9232C3.13783 19.73 3.12817 19.5195 3.18123 19.3205L6.59739 6.50984C6.6247 6.40745 6.68383 6.31638 6.76625 6.24978C6.84868 6.18317 6.95013 6.14448 7.05598 6.13928C7.16182 6.13408 7.26658 6.16264 7.35514 6.22085C7.44369 6.27905 7.51146 6.36389 7.54867 6.46311L10.375 14Z" stroke="black" stroke-width="2" stroke-linecap="round" stroke-linejoin="round"/>
<path d="M16.0824 28.7804L21.625 14H27.4" stroke="black" stroke-width="2" stroke-linecap="round" stroke-linejoin="round"/>
<path d="M4.59998 14H10.375L15.9176 28.7804" stroke="black" stroke-width="2" stroke-linecap="round" stroke-linejoin="round"/>
</svg>
