<svg width="32" height="32" viewBox="0 0 32 32" fill="none" xmlns="http://www.w3.org/2000/svg">
<path d="M4.97668 28.0179C4.97998 28.1927 5.02892 28.3635 5.11866 28.5135C5.20839 28.6635 5.3358 28.7875 5.48823 28.873C5.64066 28.9586 5.81282 29.0028 5.98761 29.0013C6.1624 28.9997 6.33375 28.9525 6.48466 28.8643L27.4642 16.8554C27.6191 16.7726 27.7485 16.6492 27.8388 16.4985C27.929 16.3479 27.9767 16.1755 27.9767 15.9999C27.9767 15.8243 27.929 15.6519 27.8388 15.5013C27.7485 15.3506 27.6191 15.2273 27.4642 15.1444L6.48466 3.13556C6.33375 3.04733 6.1624 3.00011 5.98761 2.99857C5.81282 2.99704 5.64066 3.04124 5.48823 3.12679C5.3358 3.21235 5.20839 3.33628 5.11866 3.48629C5.02892 3.6363 4.97998 3.80716 4.97668 3.98193V28.0179Z" stroke="black" stroke-width="2" stroke-linecap="round" stroke-linejoin="round"/>
<path d="M5.2793 3.2793L21.9894 19.9894" stroke="black" stroke-width="2" stroke-linecap="round" stroke-linejoin="round"/>
<path d="M5.27936 28.7207L21.9894 12.0107" stroke="black" stroke-width="2" stroke-linecap="round" stroke-linejoin="round"/>
</svg>
