<svg width="32" height="32" viewBox="0 0 32 32" fill="none" xmlns="http://www.w3.org/2000/svg">
<path d="M20.9999 15V8.5C20.9999 7.83696 21.2633 7.20107 21.7322 6.73223C22.201 6.26339 22.8369 6 23.4999 6C24.163 6 24.7989 6.26339 25.2677 6.73223C25.7366 7.20107 25.9999 7.83696 25.9999 8.5V19C25.9999 20.3132 25.7413 21.6136 25.2387 22.8268C24.7362 24.0401 23.9996 25.1425 23.071 26.0711C22.1424 26.9997 21.04 27.7362 19.8268 28.2388C18.6135 28.7413 17.3132 29 15.9999 29C10.4771 29 7.99995 26 3.92888 17.4108C3.7644 17.1265 3.65757 16.8125 3.61449 16.4869C3.57141 16.1612 3.59293 15.8303 3.67781 15.513C3.76269 15.1956 3.90928 14.8982 4.10919 14.6375C4.30911 14.3769 4.55842 14.1582 4.8429 13.9939C5.12737 13.8297 5.44142 13.7231 5.7671 13.6803C6.09278 13.6375 6.4237 13.6593 6.74095 13.7445C7.0582 13.8296 7.35557 13.9764 7.61604 14.1766C7.87652 14.3767 8.095 14.6262 8.259 14.9108L10.9999 19.6583V6.5C10.9999 5.83696 11.2633 5.20107 11.7322 4.73223C12.201 4.26339 12.8369 4 13.4999 4C14.163 4 14.7989 4.26339 15.2677 4.73223C15.7366 5.20107 15.9999 5.83696 15.9999 6.5V15" stroke="black" stroke-width="2" stroke-linecap="round" stroke-linejoin="round"/>
<path d="M21 15V4.5C21 3.83696 20.7366 3.20107 20.2678 2.73223C19.7989 2.26339 19.163 2 18.5 2C17.837 2 17.2011 2.26339 16.7322 2.73223C16.2634 3.20107 16 3.83696 16 4.5V15" stroke="black" stroke-width="2" stroke-linecap="round" stroke-linejoin="round"/>
</svg>
