<svg width="32" height="32" viewBox="0 0 32 32" fill="none" xmlns="http://www.w3.org/2000/svg">
<path d="M15.9999 13V4.5C15.9999 3.83696 15.7366 3.20107 15.2677 2.73223C14.7989 2.26339 14.163 2 13.4999 2C12.8369 2 12.201 2.26339 11.7322 2.73223C11.2633 3.20107 10.9999 3.83696 10.9999 4.5V19.6583L8.259 14.9108C8.095 14.6262 7.87652 14.3767 7.61604 14.1766C7.35557 13.9764 7.0582 13.8296 6.74095 13.7445C6.4237 13.6593 6.09278 13.6375 5.7671 13.6803C5.44142 13.7231 5.12737 13.8297 4.8429 13.9939C4.55842 14.1582 4.30911 14.3769 4.10919 14.6375C3.90928 14.8982 3.76269 15.1956 3.67781 15.513C3.59293 15.8303 3.57141 16.1612 3.61449 16.4869C3.65757 16.8125 3.7644 17.1265 3.92888 17.4108C7.99995 26 10.4771 29 15.9999 29C17.3132 29 18.6135 28.7413 19.8268 28.2388C21.04 27.7362 22.1424 26.9997 23.071 26.0711C23.9996 25.1425 24.7362 24.0401 25.2387 22.8268C25.7413 21.6136 25.9999 20.3132 25.9999 19V14C25.9999 13.337 25.7366 12.7011 25.2677 12.2322C24.7989 11.7634 24.163 11.5 23.4999 11.5C22.8369 11.5 22.201 11.7634 21.7322 12.2322C21.2633 12.7011 20.9999 13.337 20.9999 14" stroke="black" stroke-width="2" stroke-linecap="round" stroke-linejoin="round"/>
<path d="M21 14V12.5C21 11.837 20.7366 11.2011 20.2678 10.7322C19.7989 10.2634 19.163 10 18.5 10C17.837 10 17.2011 10.2634 16.7322 10.7322C16.2634 11.2011 16 11.837 16 12.5V13" stroke="black" stroke-width="2" stroke-linecap="round" stroke-linejoin="round"/>
</svg>
