<svg width="32" height="32" viewBox="0 0 32 32" fill="none" xmlns="http://www.w3.org/2000/svg">
<path d="M6.47643 15.2378C6.32876 14.9817 6.1321 14.7573 5.89768 14.5773C5.66326 14.3973 5.39567 14.2652 5.11019 14.1886C4.82472 14.1121 4.52696 14.0925 4.23392 14.1311C3.94088 14.1696 3.65831 14.2655 3.40234 14.4133C3.14638 14.5611 2.92204 14.7578 2.74214 14.9923C2.56224 15.2268 2.43031 15.4945 2.35387 15.78C2.27744 16.0655 2.25801 16.3633 2.2967 16.6563C2.33538 16.9493 2.43141 17.2319 2.57931 17.4878L7.20431 25.4985C8.39779 27.5656 10.3636 29.074 12.6692 29.6918C14.9748 30.3096 17.4314 29.9862 19.4985 28.7927C21.5657 27.5992 23.0741 25.6335 23.6919 23.3279C24.3097 21.0222 23.9862 18.5656 22.7928 16.4985L20.6678 12.8179C20.3694 12.3011 19.878 11.924 19.3016 11.7695C18.7252 11.6151 18.111 11.696 17.5942 11.9943C17.0774 12.2927 16.7003 12.7841 16.5459 13.3605C16.3914 13.9369 16.4723 14.5511 16.7707 15.0679" stroke="black" stroke-width="2" stroke-linecap="round" stroke-linejoin="round"/>
<path d="M13.3735 18.184L8.62349 9.95679C8.32512 9.44 7.83368 9.06291 7.25728 8.90846C6.68087 8.75401 6.06672 8.83487 5.54993 9.13324C5.03314 9.4316 4.65605 9.92305 4.5016 10.4994C4.34715 11.0759 4.42801 11.69 4.72638 12.2068L9.47638 20.434" stroke="black" stroke-width="2" stroke-linecap="round" stroke-linejoin="round"/>
<path d="M18.7707 18.5321L13.5207 9.43879C13.2221 8.9223 12.7307 8.5455 12.1545 8.39123C11.5782 8.23697 10.9643 8.31787 10.4476 8.61615C9.93101 8.91442 9.55397 9.40566 9.39944 9.98185C9.24491 10.558 9.32552 11.172 9.62356 11.6888" stroke="black" stroke-width="2" stroke-linecap="round" stroke-linejoin="round"/>
<path d="M12.3806 8.46398L11.0876 6.22454C10.94 5.96851 10.7433 5.74408 10.5089 5.56407C10.2745 5.38406 10.0069 5.252 9.7214 5.17544C9.43593 5.09887 9.13816 5.0793 8.84513 5.11785C8.55209 5.15639 8.26951 5.25229 8.01355 5.40008C7.75759 5.54786 7.53324 5.74462 7.35334 5.97913C7.17344 6.21363 7.04151 6.48129 6.96508 6.7668C6.88865 7.05231 6.86922 7.35008 6.9079 7.6431C6.94658 7.93612 7.04262 8.21865 7.19052 8.47454L7.48341 8.98183" stroke="black" stroke-width="2" stroke-linecap="round" stroke-linejoin="round"/>
<path d="M23.5046 23.9394C25.0295 22.5577 26.0351 20.6953 26.3539 18.6624C26.6728 16.6295 26.2856 14.5487 25.2568 12.7665L23.1318 9.08587C22.9842 8.82984 22.7875 8.60541 22.5531 8.4254C22.3187 8.24539 22.0511 8.11333 21.7656 8.03676C21.4801 7.9602 21.1824 7.94063 20.8893 7.97918C20.5963 8.01772 20.3137 8.11362 20.0577 8.2614C19.8018 8.40919 19.5774 8.60595 19.3975 8.84046C19.2176 9.07496 19.0857 9.34262 19.0093 9.62813C18.9328 9.91364 18.9134 10.2114 18.9521 10.5044C18.9908 10.7974 19.0868 11.08 19.2347 11.3359" stroke="black" stroke-width="2" stroke-linecap="round" stroke-linejoin="round"/>
<path d="M19.5277 11.8434L15.9847 5.70679C15.837 5.4509 15.6403 5.22662 15.4059 5.04675C15.1714 4.86687 14.9039 4.73493 14.6185 4.65846C14.0421 4.50401 13.4279 4.58487 12.9111 4.88324C12.3943 5.1816 12.0173 5.67305 11.8628 6.24945C11.7084 6.82585 11.7892 7.44 12.0876 7.95679" stroke="black" stroke-width="2" stroke-linecap="round" stroke-linejoin="round"/>
<path d="M22.1058 1.40894L21.5881 3.34079" stroke="black" stroke-width="2" stroke-linecap="round" stroke-linejoin="round"/>
<path d="M25.8829 3.17017L24.7357 4.80847" stroke="black" stroke-width="2" stroke-linecap="round" stroke-linejoin="round"/>
<path d="M28.8298 6.11719L27.1915 7.26434" stroke="black" stroke-width="2" stroke-linecap="round" stroke-linejoin="round"/>
</svg>
