<svg width="32" height="32" viewBox="0 0 32 32" fill="none" xmlns="http://www.w3.org/2000/svg">
<path d="M14.9992 13.3024L11.7492 7.67324C11.4183 7.09907 11.329 6.41703 11.5007 5.777C11.6725 5.13697 12.0914 4.59133 12.6653 4.25999C13.2392 3.92865 13.9212 3.83872 14.5613 4.00997C15.2015 4.18122 15.7475 4.59963 16.0793 5.17324L21.0793 13.8335" stroke="black" stroke-width="2" stroke-linecap="round" stroke-linejoin="round"/>
<path d="M11.169 16.6685L6.41899 8.44126C6.25451 8.15693 6.14768 7.84297 6.1046 7.51732C6.06152 7.19168 6.08304 6.86074 6.16792 6.54342C6.25281 6.22609 6.39939 5.92861 6.59931 5.66796C6.79922 5.40732 7.04853 5.18863 7.33301 5.02439C7.61748 4.86015 7.93153 4.75358 8.25721 4.71077C8.58289 4.66797 8.91381 4.68976 9.23106 4.77491C9.54832 4.86006 9.84568 5.00689 10.1062 5.20702C10.3666 5.40715 10.5851 5.65665 10.7491 5.94126L14.9991 13.3025" stroke="black" stroke-width="2" stroke-linecap="round" stroke-linejoin="round"/>
<path d="M19.2492 20.6635C18.5861 19.5151 18.4064 18.1503 18.7497 16.8694C19.0929 15.5885 19.9309 14.4964 21.0793 13.8334L19.8293 11.6683C19.6648 11.384 19.558 11.07 19.5149 10.7444C19.4718 10.4187 19.4933 10.0878 19.5782 9.77047C19.6631 9.45314 19.8097 9.15566 20.0096 8.89502C20.2095 8.63437 20.4588 8.41568 20.7433 8.25144C21.0278 8.0872 21.3418 7.98063 21.6675 7.93782C21.9932 7.89502 22.3241 7.91681 22.6414 8.00196C22.9586 8.08711 23.256 8.23395 23.5165 8.43408C23.7769 8.63421 23.9954 8.8837 24.1594 9.16831L26.6594 13.4984C27.3164 14.6357 27.7429 15.8913 27.9145 17.1935C28.0862 18.4956 27.9996 19.8188 27.6598 21.0875C27.32 22.3562 26.7336 23.5455 25.9341 24.5875C25.1347 25.6296 24.1377 26.5039 23.0003 27.1606C21.8628 27.8173 20.6072 28.2435 19.305 28.4149C18.0028 28.5863 16.6796 28.4994 15.411 28.1593C14.1424 27.8193 12.9532 27.2326 11.9113 26.4329C10.8695 25.6332 9.99535 24.636 9.3389 23.4984L4.0889 14.4052C3.75804 13.831 3.66869 13.149 3.84047 12.5089C4.01225 11.8689 4.43111 11.3233 5.00501 10.9919C5.57891 10.6606 6.26088 10.5707 6.90105 10.7419C7.54122 10.9131 8.08721 11.3316 8.41903 11.9052L11.169 16.6683" stroke="black" stroke-width="2" stroke-linecap="round" stroke-linejoin="round"/>
<path d="M10.1368 30.0003C8.44183 28.8243 7.02895 27.2868 6 25.4988" stroke="black" stroke-width="2" stroke-linecap="round" stroke-linejoin="round"/>
<path d="M22 3.875C23.141 3.87485 24.2618 4.17519 25.2498 4.74581C26.2379 5.31643 27.0582 6.1372 27.6282 7.12554" stroke="black" stroke-width="2" stroke-linecap="round" stroke-linejoin="round"/>
</svg>
