<svg width="32" height="32" viewBox="0 0 32 32" fill="none" xmlns="http://www.w3.org/2000/svg">
<g opacity="0.6">
<path d="M26.105 9H5.89506C5.64896 9 5.41151 9.09075 5.22814 9.25487C5.04476 9.419 4.92835 9.64498 4.90117 9.88957L3.1234 25.8896C3.10786 26.0293 3.12199 26.1708 3.16486 26.3048C3.20772 26.4387 3.27836 26.5621 3.37215 26.6669C3.46595 26.7717 3.58079 26.8555 3.70919 26.9129C3.83758 26.9703 3.97664 27 4.11728 27H27.8827C28.0234 27 28.1624 26.9703 28.2908 26.9129C28.4192 26.8555 28.5341 26.7717 28.6279 26.6669C28.7217 26.5621 28.7923 26.4387 28.8352 26.3048C28.878 26.1708 28.8922 26.0293 28.8766 25.8896L27.0989 9.88957C27.0717 9.64498 26.9553 9.419 26.7719 9.25487C26.5885 9.09075 26.3511 9 26.105 9Z" stroke="black" stroke-width="2" stroke-linecap="round" stroke-linejoin="round"/>
<path d="M11 13V9C11 7.67392 11.5268 6.40215 12.4645 5.46447C13.4021 4.52678 14.6739 4 16 4C17.3261 4 18.5979 4.52678 19.5355 5.46447C20.4732 6.40215 21 7.67392 21 9V13" stroke="black" stroke-width="2" stroke-linecap="round" stroke-linejoin="round"/>
</g>
</svg>
