<svg width="32" height="32" viewBox="0 0 32 32" fill="none" xmlns="http://www.w3.org/2000/svg">
<path d="M30.0897 15.2232L27 16.7681L23 9.10781L26.1212 7.54722C26.3557 7.42998 26.6268 7.40951 26.8763 7.49022C27.1257 7.57094 27.3335 7.74639 27.4548 7.97878L30.5289 13.8659C30.5904 13.9836 30.6278 14.1124 30.639 14.2447C30.6501 14.3771 30.6348 14.5103 30.5939 14.6367C30.553 14.763 30.4874 14.8799 30.4008 14.9807C30.3142 15.0814 30.2085 15.1638 30.0897 15.2232V15.2232Z" stroke="black" stroke-width="2" stroke-linecap="round" stroke-linejoin="round"/>
<path d="M5.00004 16.634L1.91033 15.0892C1.79155 15.0298 1.68579 14.9473 1.59922 14.8466C1.51265 14.7459 1.447 14.629 1.40612 14.5026C1.36523 14.3763 1.34992 14.243 1.36108 14.1107C1.37224 13.9784 1.40965 13.8496 1.47112 13.7319L4.54523 7.84475C4.66658 7.61236 4.87435 7.43691 5.12378 7.35619C5.37322 7.27548 5.64438 7.29594 5.87887 7.41319L9.00004 8.97377L5.00004 16.634Z" stroke="black" stroke-width="2" stroke-linecap="round" stroke-linejoin="round"/>
<path d="M27 16.768L25 19.1078L20.4004 23.7074C20.2783 23.8295 20.1266 23.9179 19.9602 23.964C19.7938 24.0101 19.6182 24.0123 19.4507 23.9704L12.2061 22.1593C12.0702 22.1253 11.943 22.0632 11.8326 21.9769L5 16.634" stroke="black" stroke-width="2" stroke-linecap="round" stroke-linejoin="round"/>
<path d="M25.0001 19.1077L19.5001 15.1077L17.9001 16.3077C17.2077 16.827 16.3655 17.1077 15.5001 17.1077C14.6346 17.1077 13.7924 16.827 13.1001 16.3077L12.4225 15.7995C12.3078 15.7135 12.213 15.6039 12.1445 15.4781C12.0759 15.3523 12.0351 15.2133 12.025 15.0704C12.0148 14.9274 12.0355 14.784 12.0856 14.6498C12.1357 14.5156 12.214 14.3937 12.3154 14.2924L17.2072 9.40056C17.3 9.3077 17.4103 9.23404 17.5316 9.18379C17.6529 9.13353 17.7829 9.10767 17.9143 9.10767H23.0001" stroke="black" stroke-width="2" stroke-linecap="round" stroke-linejoin="round"/>
<path d="M9.07178 8.97363L15.4868 7.10344C15.7159 7.03664 15.9614 7.054 16.1789 7.1524L20.5 9.10761" stroke="black" stroke-width="2" stroke-linecap="round" stroke-linejoin="round"/>
<path d="M14 26.6077L10.2326 25.6658C10.0797 25.6276 9.938 25.5538 9.81907 25.4504L7 23" stroke="black" stroke-width="2" stroke-linecap="round" stroke-linejoin="round"/>
</svg>
