<svg width="32" height="32" viewBox="0 0 32 32" fill="none" xmlns="http://www.w3.org/2000/svg">
<path d="M7.41431 5H24.5859C24.7837 5 24.977 5.05865 25.1414 5.16853C25.3059 5.27841 25.4341 5.43459 25.5098 5.61732C25.5854 5.80004 25.6053 6.00111 25.5667 6.19509C25.5281 6.38907 25.4328 6.56725 25.293 6.70711L16.0001 16L6.7072 6.70711C6.56735 6.56725 6.47211 6.38907 6.43352 6.19509C6.39494 6.00111 6.41474 5.80004 6.49043 5.61732C6.56612 5.43459 6.69429 5.27841 6.85874 5.16853C7.02319 5.05865 7.21653 5 7.41431 5Z" stroke="black" stroke-width="2" stroke-linecap="round" stroke-linejoin="round"/>
<path d="M7.41431 27H24.5859C24.7837 27 24.977 26.9414 25.1414 26.8315C25.3059 26.7216 25.4341 26.5654 25.5098 26.3827C25.5854 26.2 25.6053 25.9989 25.5667 25.8049C25.5281 25.6109 25.4328 25.4327 25.293 25.2929L16.0001 16L6.7072 25.2929C6.56735 25.4327 6.47211 25.6109 6.43352 25.8049C6.39494 25.9989 6.41474 26.2 6.49043 26.3827C6.56612 26.5654 6.69429 26.7216 6.85874 26.8315C7.02319 26.9414 7.21653 27 7.41431 27Z" stroke="black" stroke-width="2" stroke-linecap="round" stroke-linejoin="round"/>
<path d="M22 10H10" stroke="black" stroke-width="2" stroke-linecap="round" stroke-linejoin="round"/>
<path d="M16 16V21" stroke="black" stroke-width="2" stroke-linecap="round" stroke-linejoin="round"/>
</svg>
