<svg width="32" height="32" viewBox="0 0 32 32" fill="none" xmlns="http://www.w3.org/2000/svg">
<path d="M19 14H24" stroke="black" stroke-width="2" stroke-linecap="round" stroke-linejoin="round"/>
<path d="M19 18H24" stroke="black" stroke-width="2" stroke-linecap="round" stroke-linejoin="round"/>
<path d="M11.5126 18C13.1694 18 14.5126 16.6569 14.5126 15C14.5126 13.3431 13.1694 12 11.5126 12C9.85572 12 8.51257 13.3431 8.51257 15C8.51257 16.6569 9.85572 18 11.5126 18Z" stroke="black" stroke-width="2" stroke-linecap="round" stroke-linejoin="round"/>
<path d="M7.63855 20.9999C7.86049 20.1413 8.36141 19.3807 9.0626 18.8377C9.76379 18.2947 10.6255 18 11.5124 18C12.3992 18 13.261 18.2946 13.9622 18.8375C14.6634 19.3805 15.1644 20.141 15.3864 20.9997" stroke="black" stroke-width="2" stroke-linecap="round" stroke-linejoin="round"/>
<path d="M27 6H5C4.44772 6 4 6.44772 4 7V25C4 25.5523 4.44772 26 5 26H27C27.5523 26 28 25.5523 28 25V7C28 6.44772 27.5523 6 27 6Z" stroke="black" stroke-width="2" stroke-linecap="round" stroke-linejoin="round"/>
</svg>
