<svg width="32" height="32" viewBox="0 0 32 32" fill="none" xmlns="http://www.w3.org/2000/svg">
<path d="M26 5H6C5.44772 5 5 5.44772 5 6V26C5 26.5523 5.44772 27 6 27H26C26.5523 27 27 26.5523 27 26V6C27 5.44772 26.5523 5 26 5Z" stroke="black" stroke-width="2" stroke-linecap="round" stroke-linejoin="round"/>
<path d="M27 20.0001L21.7071 14.7072C21.5196 14.5197 21.2652 14.4143 21 14.4143C20.7348 14.4143 20.4804 14.5197 20.2929 14.7072L14.7071 20.293C14.5196 20.4805 14.2652 20.5859 14 20.5859C13.7348 20.5859 13.4804 20.4805 13.2929 20.293L10.7071 17.7072C10.5196 17.5197 10.2652 17.4143 10 17.4143C9.73478 17.4143 9.48043 17.5197 9.29289 17.7072L5 22.0001" stroke="black" stroke-width="2" stroke-linecap="round" stroke-linejoin="round"/>
<path d="M12.5 13C13.3284 13 14 12.3284 14 11.5C14 10.6716 13.3284 10 12.5 10C11.6716 10 11 10.6716 11 11.5C11 12.3284 11.6716 13 12.5 13Z" fill="black"/>
</svg>
