<svg width="32" height="32" viewBox="0 0 32 32" fill="none" xmlns="http://www.w3.org/2000/svg">
<path d="M18.3113 11.3114L25 18C25 18 16 30 3 27L24.7322 4.73227C24.9644 4.50001 25.24 4.31575 25.5433 4.19003C25.8466 4.0643 26.1718 3.99956 26.5002 3.99951C26.8285 3.99946 27.1537 4.0641 27.4571 4.18974C27.7604 4.31538 28.0361 4.49955 28.2683 4.73175C28.5005 4.96394 28.6847 5.23959 28.8103 5.54297C28.9359 5.84636 29.0006 6.17152 29.0005 6.49988C29.0005 6.82825 28.9357 7.15339 28.81 7.45673C28.6843 7.76008 28.5 8.03568 28.2678 8.2678L21.972 14.9735" stroke="black" stroke-width="2" stroke-linecap="round" stroke-linejoin="round"/>
</svg>
