<svg width="32" height="32" viewBox="0 0 32 32" fill="none" xmlns="http://www.w3.org/2000/svg">
<path d="M10 15.999H22" stroke="black" stroke-width="2" stroke-linecap="round" stroke-linejoin="round"/>
<path d="M12.999 21.9995H7.99902C6.40772 21.9995 4.8816 21.3674 3.75638 20.2422C2.63116 19.1169 1.99902 17.5908 1.99902 15.9995C1.99902 14.4082 2.63116 12.8821 3.75638 11.7569C4.8816 10.6317 6.40772 9.99951 7.99902 9.99951H12.999" stroke="black" stroke-width="2" stroke-linecap="round" stroke-linejoin="round"/>
<path d="M19 21.9995H24C25.5913 21.9995 27.1174 21.3674 28.2426 20.2422C29.3679 19.1169 30 17.5908 30 15.9995C30 14.4082 29.3679 12.8821 28.2426 11.7569C27.1174 10.6317 25.5913 9.99951 24 9.99951H19" stroke="black" stroke-width="2" stroke-linecap="round" stroke-linejoin="round"/>
</svg>
