<svg width="32" height="32" viewBox="0 0 32 32" fill="none" xmlns="http://www.w3.org/2000/svg">
<path d="M11.7568 20.2415L20.2421 11.7562" stroke="black" stroke-width="2" stroke-linecap="round" stroke-linejoin="round"/>
<path d="M18.1207 22.3638L14.5852 25.8993C13.4599 27.0242 11.9339 27.6561 10.3427 27.656C8.75163 27.6558 7.22571 27.0237 6.10062 25.8986C4.97553 24.7735 4.3434 23.2476 4.34326 21.6565C4.34313 20.0654 4.975 18.5394 6.0999 17.4141L9.63543 13.8785" stroke="black" stroke-width="2" stroke-linecap="round" stroke-linejoin="round"/>
<path d="M22.3639 18.1206L25.8995 14.5851C27.0244 13.4598 27.6563 11.9337 27.6561 10.3426C27.656 8.75151 27.0238 7.22559 25.8988 6.1005C24.7737 4.97541 23.2477 4.34328 21.6566 4.34314C20.0655 4.343 18.5395 4.97487 17.4142 6.09977L13.8787 9.6353" stroke="black" stroke-width="2" stroke-linecap="round" stroke-linejoin="round"/>
</svg>
