<svg width="32" height="32" viewBox="0 0 32 32" fill="none" xmlns="http://www.w3.org/2000/svg">
<path d="M12 9V6" stroke="black" stroke-width="2" stroke-linecap="round" stroke-linejoin="round"/>
<path d="M20 26V23" stroke="black" stroke-width="2" stroke-linecap="round" stroke-linejoin="round"/>
<path d="M9 12H6" stroke="black" stroke-width="2" stroke-linecap="round" stroke-linejoin="round"/>
<path d="M26 20H23" stroke="black" stroke-width="2" stroke-linecap="round" stroke-linejoin="round"/>
<path d="M8.87861 16.0503L7.46439 17.4645C6.52717 18.4023 6.00078 19.6739 6.00098 20.9997C6.00117 22.3256 6.52794 23.597 7.46544 24.5345C8.40294 25.472 9.67441 25.9988 11.0002 25.999C12.3261 25.9992 13.5977 25.4728 14.5355 24.5356L15.9497 23.1214" stroke="black" stroke-width="2" stroke-linecap="round" stroke-linejoin="round"/>
<path d="M23.1214 15.9498L24.5356 14.5356C25.4728 13.5978 25.9992 12.3262 25.999 11.0004C25.9988 9.67453 25.472 8.40306 24.5345 7.46556C23.597 6.52806 22.3256 6.0013 20.9997 6.0011C19.6739 6.0009 18.4023 6.52729 17.4645 7.46452L16.0503 8.87873" stroke="black" stroke-width="2" stroke-linecap="round" stroke-linejoin="round"/>
</svg>
