<svg width="32" height="32" viewBox="0 0 32 32" fill="none" xmlns="http://www.w3.org/2000/svg">
<path d="M18.1207 22.3637L14.5852 25.8992C13.4599 27.0241 11.9339 27.656 10.3427 27.6559C8.75163 27.6557 7.22571 27.0236 6.10062 25.8985C4.97553 24.7734 4.3434 23.2475 4.34326 21.6564C4.34313 20.0653 4.975 18.5392 6.0999 17.4139L9.63543 13.8784" stroke="black" stroke-width="2" stroke-linecap="round" stroke-linejoin="round"/>
<path d="M22.3639 18.1205L25.8995 14.5849C27.0244 13.4596 27.6563 11.9336 27.6561 10.3425C27.656 8.75138 27.0238 7.22547 25.8988 6.10038C24.7737 4.97528 23.2477 4.34315 21.6566 4.34302C20.0655 4.34288 18.5395 4.97475 17.4142 6.09965L13.8787 9.63518" stroke="black" stroke-width="2" stroke-linecap="round" stroke-linejoin="round"/>
<path d="M18.1207 22.3637L14.5852 25.8992C13.4599 27.0241 11.9339 27.656 10.3427 27.6559C8.75163 27.6557 7.22571 27.0236 6.10062 25.8985C4.97553 24.7734 4.3434 23.2475 4.34326 21.6564C4.34313 20.0653 4.975 18.5392 6.0999 17.4139L9.63543 13.8784" stroke="black" stroke-width="2" stroke-linecap="round" stroke-linejoin="round"/>
<path d="M22.3639 18.1205L25.8995 14.5849C27.0244 13.4596 27.6563 11.9336 27.6561 10.3425C27.656 8.75138 27.0238 7.22547 25.8988 6.10038C24.7737 4.97528 23.2477 4.34315 21.6566 4.34302C20.0655 4.34288 18.5395 4.97475 17.4142 6.09965L13.8787 9.63518" stroke="black" stroke-width="2" stroke-linecap="round" stroke-linejoin="round"/>
</svg>
