<svg width="32" height="32" viewBox="0 0 32 32" fill="none" xmlns="http://www.w3.org/2000/svg">
<path d="M15.9112 11.8787C16.4667 11.3232 17.2179 11.0077 18.0035 11.0001C18.789 10.9925 19.5462 11.2934 20.1124 11.8381C21.324 13.0046 21.2953 14.9798 20.106 16.1691L11.729 24.2931C11.6338 24.3854 11.5579 24.4957 11.5057 24.6176C11.4536 24.7396 11.4262 24.8706 11.4252 25.0033C11.4242 25.1359 11.4495 25.2674 11.4998 25.3901C11.5501 25.5128 11.6243 25.6243 11.718 25.718L15.2998 29.2998C15.4861 29.4861 15.7385 29.5914 16.002 29.5926C16.2655 29.5939 16.5189 29.4912 16.707 29.3066L25.0148 21.1598C28.9137 17.2609 29.0269 10.9105 25.157 6.98275C24.231 6.0426 23.1281 5.29503 21.9118 4.78311C20.6955 4.2712 19.39 4.00507 18.0704 4.00007C16.7508 3.99507 15.4433 4.25129 14.2232 4.75397C13.0031 5.25664 11.8945 5.99584 10.9614 6.92893L2.69853 15.2929C2.51288 15.4808 2.40913 15.7346 2.40993 15.9988C2.41074 16.2629 2.51603 16.516 2.70282 16.7028L6.2846 20.2846C6.37816 20.3782 6.48934 20.4522 6.61172 20.5025C6.7341 20.5528 6.86524 20.5783 6.99754 20.5775C7.12984 20.5767 7.26067 20.5497 7.38246 20.498C7.50424 20.4463 7.61456 20.371 7.70701 20.2763L15.9112 11.8787Z" stroke="black" stroke-width="2" stroke-linecap="round" stroke-linejoin="round"/>
<path d="M15.8468 20.2996L20.8203 25.273" stroke="black" stroke-width="2" stroke-linecap="round" stroke-linejoin="round"/>
<path d="M6.74457 11.1973L11.718 16.1707" stroke="black" stroke-width="2" stroke-linecap="round" stroke-linejoin="round"/>
</svg>
