<svg width="32" height="32" viewBox="0 0 32 32" fill="none" xmlns="http://www.w3.org/2000/svg">
<path d="M3.99927 6.33337V23.6667C3.99927 23.822 4.03541 23.9751 4.10484 24.1139C4.17427 24.2528 4.27507 24.3736 4.39927 24.4667C4.52346 24.5599 4.66764 24.6228 4.82038 24.6506C4.97312 24.6783 5.13023 24.6702 5.27927 24.6267L27.2793 18.21C27.487 18.1495 27.6694 18.0231 27.7993 17.85C27.9291 17.6769 27.9993 17.4664 27.9993 17.25V12.75C27.9993 12.5337 27.9291 12.3231 27.7993 12.15C27.6694 11.9769 27.487 11.8506 27.2793 11.79L5.27927 5.37337C5.13023 5.32991 4.97312 5.32173 4.82038 5.3495C4.66764 5.37728 4.52346 5.44023 4.39927 5.53337C4.27507 5.62652 4.17427 5.74731 4.10484 5.88616C4.03541 6.02502 3.99927 6.17813 3.99927 6.33337V6.33337Z" stroke="black" stroke-width="2" stroke-linecap="round" stroke-linejoin="round"/>
<path d="M23 19.4581V24C23 24.2652 22.8946 24.5196 22.7071 24.7071C22.5196 24.8946 22.2652 25 22 25H18C17.7348 25 17.4804 24.8946 17.2929 24.7071C17.1054 24.5196 17 24.2652 17 24V8.79187" stroke="black" stroke-width="2" stroke-linecap="round" stroke-linejoin="round"/>
</svg>
