<svg width="32" height="32" viewBox="0 0 32 32" fill="none" xmlns="http://www.w3.org/2000/svg">
<path d="M22.0534 22.6602C20.8261 23.7755 19.3146 24.5301 17.6856 24.8407C16.0566 25.1513 14.3734 25.0058 12.8219 24.4203C11.2703 23.8348 9.91072 22.832 8.89307 21.5226C7.87542 20.2132 7.23931 18.6481 7.05493 17" stroke="black" stroke-width="2" stroke-linecap="round" stroke-linejoin="round"/>
<path d="M19.3628 19.7002C18.4435 20.5381 17.2439 21.0017 16 21H16C14.6739 21 13.4021 20.4732 12.4645 19.5355C11.5268 18.5978 11 17.3261 11 16V10.5002" stroke="black" stroke-width="2" stroke-linecap="round" stroke-linejoin="round"/>
<path d="M16 25V29" stroke="black" stroke-width="2" stroke-linecap="round" stroke-linejoin="round"/>
<path d="M6 5L26 27" stroke="black" stroke-width="2" stroke-linecap="round" stroke-linejoin="round"/>
<path d="M11.7449 5.37304C12.1927 4.64726 12.8188 4.04816 13.5636 3.63278C14.3084 3.2174 15.1472 2.99956 16 3H16C16.6566 3 17.3068 3.12933 17.9134 3.3806C18.52 3.63187 19.0712 4.00017 19.5355 4.46446C19.9998 4.92875 20.3681 5.47995 20.6194 6.08658C20.8707 6.6932 21 7.34338 21 7.99999V15.5536" stroke="black" stroke-width="2" stroke-linecap="round" stroke-linejoin="round"/>
<path d="M24.945 17C24.859 17.7803 24.6706 18.5458 24.3848 19.2769" stroke="black" stroke-width="2" stroke-linecap="round" stroke-linejoin="round"/>
</svg>
