<svg width="32" height="32" viewBox="0 0 32 32" fill="none" xmlns="http://www.w3.org/2000/svg">
<path d="M4.67379 5.94552L11.9994 27.1084C12.0684 27.3077 12.1986 27.4801 12.3715 27.6009C12.5443 27.7218 12.7509 27.7849 12.9618 27.7812C13.1726 27.7775 13.3769 27.7073 13.5455 27.5805C13.714 27.4538 13.8382 27.277 13.9002 27.0754L16.8446 17.506C16.8926 17.3501 16.978 17.2083 17.0933 17.0929C17.2086 16.9776 17.3504 16.8922 17.5063 16.8443L27.0758 13.8998C27.2773 13.8378 27.4541 13.7136 27.5809 13.5451C27.7077 13.3766 27.7779 13.1723 27.7815 12.9614C27.7852 12.7506 27.7221 12.5439 27.6013 12.3711C27.4805 12.1983 27.3081 12.068 27.1088 11.9991L5.94589 4.67342C5.76855 4.61204 5.57751 4.60179 5.39462 4.64385C5.21173 4.68592 5.04437 4.7786 4.91167 4.9113C4.77897 5.044 4.68629 5.21136 4.64422 5.39425C4.60215 5.57714 4.6124 5.76818 4.67379 5.94552V5.94552Z" stroke="black" stroke-width="2" stroke-linecap="round" stroke-linejoin="round"/>
</svg>
