<svg width="32" height="32" viewBox="0 0 32 32" fill="none" xmlns="http://www.w3.org/2000/svg">
<path d="M22.3461 8.95833C22.3425 9.75065 22.1756 10.5337 21.8558 11.2586C21.536 11.9835 21.0702 12.6347 20.4874 13.1715C19.2625 14.294 17.6614 14.9167 16 14.9167C14.3385 14.9167 12.7374 14.294 11.5126 13.1715C10.9269 12.637 10.4592 11.9862 10.1391 11.2608C9.8191 10.5354 9.65381 9.75122 9.65381 8.95833C9.65381 8.16545 9.8191 7.38127 10.1391 6.65585C10.4592 5.93042 10.9269 5.27968 11.5126 4.74515C12.7374 3.62267 14.3385 3 16 3C17.6614 3 19.2625 3.62267 20.4874 4.74515C21.0702 5.28194 21.536 5.93313 21.8558 6.65804C22.1756 7.38295 22.3425 8.16602 22.3461 8.95833V8.95833Z" stroke="black" stroke-width="2" stroke-linecap="round" stroke-linejoin="round"/>
<path d="M23.5 21.9584C23.4958 22.8948 23.2985 23.8202 22.9205 24.6769C22.5426 25.5337 21.992 26.3032 21.3033 26.9376C19.8557 28.2642 17.9635 29.0001 16 29.0001C14.0365 29.0001 12.1443 28.2642 10.6967 26.9376C10.0046 26.3059 9.4518 25.5369 9.07358 24.6795C8.69535 23.8222 8.5 22.8955 8.5 21.9584C8.5 21.0214 8.69535 20.0946 9.07358 19.2373C9.4518 18.38 10.0046 17.6109 10.6967 16.9792C12.1443 15.6526 14.0365 14.9167 16 14.9167C17.9635 14.9167 19.8557 15.6526 21.3033 16.9792C21.992 17.6136 22.5426 18.3832 22.9205 19.2399C23.2985 20.0966 23.4958 21.022 23.5 21.9584Z" stroke="black" stroke-width="2" stroke-linecap="round" stroke-linejoin="round"/>
</svg>
