<svg width="32" height="32" viewBox="0 0 32 32" fill="none" xmlns="http://www.w3.org/2000/svg">
<path d="M16 28C22.6274 28 28 22.6274 28 16C28 9.37258 22.6274 4 16 4C9.37258 4 4 9.37258 4 16C4 22.6274 9.37258 28 16 28Z" stroke="black" stroke-width="2" stroke-miterlimit="10"/>
<path d="M13.2358 11.8324C13.3986 11.4469 13.6404 11.0999 13.9454 10.8134C14.2504 10.5269 14.6119 10.3074 15.0067 10.169C15.4016 10.0306 15.8211 9.97623 16.2382 10.0095C16.6553 10.0428 17.0608 10.1629 17.4287 10.3622C17.7966 10.5615 18.1188 10.8356 18.3745 11.1668C18.6302 11.498 18.8138 11.879 18.9135 12.2854C19.0133 12.6918 19.0269 13.1145 18.9535 13.5264C18.8802 13.9384 18.7215 14.3304 18.4876 14.6774V14.6774L13 22.0001V21.9994H19" stroke="black" stroke-width="2" stroke-linecap="round" stroke-linejoin="round"/>
</svg>
