<svg width="32" height="32" viewBox="0 0 32 32" fill="none" xmlns="http://www.w3.org/2000/svg">
<path d="M21.4912 20C22.3196 20 22.9912 19.3284 22.9912 18.5C22.9912 17.6716 22.3196 17 21.4912 17C20.6628 17 19.9912 17.6716 19.9912 18.5C19.9912 19.3284 20.6628 20 21.4912 20Z" fill="black"/>
<path d="M25.6965 20.4197C25.2433 22.2382 24.2882 23.8927 22.9402 25.1946C21.5923 26.4966 19.9056 27.3936 18.0725 27.7834C16.2394 28.1732 14.3337 28.0401 12.5726 27.3993C10.8115 26.7585 9.26585 25.6358 8.11192 24.1591C6.95799 22.6824 6.24218 20.9112 6.04611 19.0474C5.85003 17.1837 6.18157 15.3023 7.00294 13.6178C7.82431 11.9333 9.10245 10.5135 10.6916 9.52023C12.2808 8.52696 14.1171 8.0002 15.9912 8" stroke="black" stroke-width="2" stroke-linecap="round" stroke-linejoin="round"/>
<path d="M8.40608 11.4833C7.51197 11.395 6.68606 10.9662 6.09934 10.2858C5.51263 9.60534 5.21005 8.72534 5.25424 7.82796C5.29844 6.93059 5.68603 6.08457 6.33676 5.46507C6.9875 4.84557 7.85154 4.50003 8.75001 4.5L23.25 11.5C24.1783 11.5 25.0685 11.1313 25.7249 10.4749C26.3813 9.8185 26.75 8.92826 26.75 8C26.75 7.07174 26.3813 6.1815 25.7249 5.52513C25.0685 4.86875 24.1783 4.5 23.25 4.5" stroke="black" stroke-width="2" stroke-linecap="round" stroke-linejoin="round"/>
<path d="M6.07361 19.2894L15.9912 14V28" stroke="black" stroke-width="2" stroke-linecap="round" stroke-linejoin="round"/>
<path d="M11.9912 16.1333V27.1679" stroke="black" stroke-width="2" stroke-linecap="round" stroke-linejoin="round"/>
</svg>
