<svg width="6" height="10" viewBox="0 0 6 10" fill="none" xmlns="http://www.w3.org/2000/svg">
<path fill-rule="evenodd" clip-rule="evenodd" d="M0.293031 9.70692C0.10556 9.51939 0.000244141 9.26508 0.000244141 8.99992C0.000244141 8.73475 0.10556 8.48045 0.293031 8.29292L3.58603 4.99992L0.293031 1.70692C0.110873 1.51832 0.0100779 1.26571 0.0123563 1.00352C0.0146347 0.741321 0.119804 0.490509 0.305212 0.305101C0.49062 0.119692 0.741433 0.0145233 1.00363 0.0122448C1.26583 0.00996641 1.51843 0.110761 1.70703 0.292919L5.70703 4.29292C5.8945 4.48045 5.99982 4.73475 5.99982 4.99992C5.99982 5.26508 5.8945 5.51939 5.70703 5.70692L1.70703 9.70692C1.5195 9.89439 1.26519 9.99971 1.00003 9.99971C0.734866 9.99971 0.480558 9.89439 0.293031 9.70692Z" fill="#252C32"/>
</svg>
