<svg width="32" height="32" viewBox="0 0 32 32" fill="none" xmlns="http://www.w3.org/2000/svg">
<path d="M27.8706 15.4355L15.8498 27.4564C15.4747 27.8314 14.966 28.0421 14.4356 28.0421C13.9051 28.0421 13.3964 27.8314 13.0213 27.4564L2.41422 16.8492C2.2285 16.6635 2.08118 16.443 1.98067 16.2004C1.88016 15.9577 1.82843 15.6977 1.82843 15.435C1.82843 15.1724 1.88016 14.9123 1.98067 14.6697C2.08118 14.427 2.2285 14.2065 2.41422 14.0208L14.435 2L27.8706 15.4355Z" stroke="black" stroke-width="2" stroke-linecap="round" stroke-linejoin="round"/>
<path d="M15.5 17.0007C16.8807 17.0007 18 15.8814 18 14.5007C18 13.12 16.8807 12.0007 15.5 12.0007C14.1193 12.0007 13 13.12 13 14.5007C13 15.8814 14.1193 17.0007 15.5 17.0007Z" stroke="black" stroke-width="2" stroke-linecap="round" stroke-linejoin="round"/>
<path d="M26 25.5C26 23.0007 28.5 20.5 28.5 20.5C28.5 20.5 31 23.0007 31 25.5C31 26.163 30.7366 26.7989 30.2678 27.2678C29.7989 27.7366 29.163 28 28.5 28C27.837 28 27.2011 27.7366 26.7322 27.2678C26.2634 26.7989 26 26.163 26 25.5V25.5Z" stroke="black" stroke-width="2" stroke-linecap="round" stroke-linejoin="round"/>
<path d="M13.7322 12.7329L4.73224 3.73291" stroke="black" stroke-width="2" stroke-linecap="round" stroke-linejoin="round"/>
</svg>
