<svg width="32" height="32" viewBox="0 0 32 32" fill="none" xmlns="http://www.w3.org/2000/svg">
<path d="M15.1127 4.55803L3.28866 25.6724C3.18919 25.85 3.1463 26.0538 3.16573 26.2564C3.18516 26.4591 3.26598 26.651 3.3974 26.8065C3.52881 26.962 3.70456 27.0737 3.90114 27.1266C4.09772 27.1795 4.30578 27.1712 4.49751 27.1027L15.6489 23.1201C15.8664 23.0424 16.1041 23.0424 16.3216 23.1201L27.4729 27.1027C27.6647 27.1712 27.8727 27.1795 28.0693 27.1266C28.2659 27.0737 28.4416 26.962 28.573 26.8065C28.7044 26.651 28.7853 26.4591 28.8047 26.2564C28.8241 26.0538 28.7812 25.85 28.6818 25.6724L16.8577 4.55803C16.7709 4.40293 16.6442 4.27379 16.4909 4.1839C16.3375 4.09401 16.163 4.04663 15.9852 4.04663C15.8074 4.04663 15.6329 4.09401 15.4795 4.1839C15.3262 4.27379 15.1996 4.40293 15.1127 4.55803V4.55803Z" stroke="black" stroke-width="2" stroke-linecap="round" stroke-linejoin="round"/>
<path d="M15.9852 23V15" stroke="black" stroke-width="2" stroke-linecap="round" stroke-linejoin="round"/>
</svg>
