<svg width="32" height="32" viewBox="0 0 32 32" fill="none" xmlns="http://www.w3.org/2000/svg">
<path d="M26.2813 4.48469L2.99038 11.0539C2.79444 11.1092 2.62003 11.223 2.49047 11.38C2.36091 11.537 2.28237 11.7299 2.26534 11.9328C2.24832 12.1356 2.29362 12.3389 2.39519 12.5153C2.49676 12.6917 2.64977 12.833 2.83376 12.9201L13.5351 17.9892C13.7438 18.0881 13.9119 18.2561 14.0108 18.4648L19.0798 29.1662C19.167 29.3502 19.3082 29.5032 19.4846 29.6048C19.6611 29.7063 19.8643 29.7516 20.0672 29.7346C20.2701 29.7176 20.4629 29.639 20.6199 29.5095C20.777 29.3799 20.8907 29.2055 20.946 29.0096L27.5153 5.7186C27.5635 5.54752 27.5653 5.36666 27.5204 5.19466C27.4755 5.02266 27.3856 4.86573 27.2599 4.74004C27.1342 4.61434 26.9773 4.52442 26.8053 4.47954C26.6333 4.43466 26.4524 4.43644 26.2813 4.48469Z" stroke="black" stroke-width="2" stroke-linecap="round" stroke-linejoin="round"/>
<path d="M13.8578 18.1421L19.5147 12.4852" stroke="black" stroke-width="2" stroke-linecap="round" stroke-linejoin="round"/>
</svg>
