<svg width="32" height="32" viewBox="0 0 32 32" fill="none" xmlns="http://www.w3.org/2000/svg">
<path d="M9.75003 18H23.75C24.2805 18 24.7892 17.7892 25.1642 17.4142C25.5393 17.0391 25.75 16.5304 25.75 16C25.75 15.4696 25.5393 14.9608 25.1642 14.5858C24.7892 14.2107 24.2805 14 23.75 14H5.75003C3.59521 14 1.84839 15.7909 1.84839 18C1.84839 20.2091 3.59521 22 5.75003 22H23.9993C25.5906 22 27.1167 21.3679 28.2419 20.2426C29.3672 19.1174 29.9993 17.5913 29.9993 16C29.9993 14.4087 29.3672 12.8826 28.2419 11.7574C27.1167 10.6321 25.5906 10 23.9993 10H9.99929" stroke="black" stroke-width="2" stroke-linecap="round" stroke-linejoin="round"/>
</svg>
