<svg width="20" height="20" viewBox="0 0 20 20" fill="none" xmlns="http://www.w3.org/2000/svg">
<path d="M17.7884 3.77346L13.6947 18.2969C13.6264 18.5428 13.484 18.7617 13.2869 18.9239C13.0898 19.086 12.8476 19.1835 12.5931 19.2031H12.4837C12.2483 19.2026 12.0178 19.1356 11.8188 19.0098C11.6197 18.8841 11.4603 18.7046 11.3587 18.4922L8.56967 12.6016C8.54228 12.5424 8.5336 12.4763 8.54476 12.4121C8.55593 12.3479 8.58642 12.2886 8.63217 12.2422L12.64 8.23439C12.7027 8.17754 12.7533 8.10854 12.7885 8.03157C12.8238 7.9546 12.843 7.87126 12.8451 7.78662C12.8472 7.70198 12.8321 7.6178 12.8006 7.53919C12.7692 7.46057 12.7221 7.38916 12.6623 7.3293C12.6024 7.26943 12.531 7.22235 12.4524 7.19091C12.3738 7.15948 12.2896 7.14434 12.2049 7.14643C12.1203 7.14851 12.037 7.16777 11.96 7.20304C11.883 7.2383 11.814 7.28884 11.7572 7.35158L7.74935 11.3672C7.70292 11.4129 7.64365 11.4434 7.57943 11.4546C7.51522 11.4658 7.44913 11.4571 7.38998 11.4297L1.5306 8.65627C1.30127 8.54795 1.10874 8.37477 0.976821 8.15815C0.844906 7.94153 0.779402 7.69098 0.788417 7.43752C0.802246 7.17655 0.89803 6.92659 1.06214 6.7232C1.22625 6.51982 1.45032 6.37337 1.70248 6.30471L16.2572 2.20314C16.5117 2.13044 16.7828 2.14045 17.0313 2.23171C17.2798 2.32297 17.493 2.49078 17.64 2.71096C17.7386 2.86742 17.8029 3.04306 17.8285 3.22624C17.854 3.40942 17.8404 3.59595 17.7884 3.77346Z" fill="#C4C4C4"/>
</svg>
