<svg width="32" height="32" viewBox="0 0 32 32" fill="none" xmlns="http://www.w3.org/2000/svg">
<path d="M26.5 16C27.8807 16 29 14.8807 29 13.5C29 12.1193 27.8807 11 26.5 11C25.1193 11 24 12.1193 24 13.5C24 14.8807 25.1193 16 26.5 16Z" stroke="black" stroke-width="2" stroke-linecap="round" stroke-linejoin="round"/>
<path d="M5.5 16C6.88071 16 8 14.8807 8 13.5C8 12.1193 6.88071 11 5.5 11C4.11929 11 3 12.1193 3 13.5C3 14.8807 4.11929 16 5.5 16Z" stroke="black" stroke-width="2" stroke-linecap="round" stroke-linejoin="round"/>
<path d="M11.5 10C12.8807 10 14 8.88071 14 7.5C14 6.11929 12.8807 5 11.5 5C10.1193 5 9 6.11929 9 7.5C9 8.88071 10.1193 10 11.5 10Z" stroke="black" stroke-width="2" stroke-linecap="round" stroke-linejoin="round"/>
<path d="M20.5 10C21.8807 10 23 8.88071 23 7.5C23 6.11929 21.8807 5 20.5 5C19.1193 5 18 6.11929 18 7.5C18 8.88071 19.1193 10 20.5 10Z" stroke="black" stroke-width="2" stroke-linecap="round" stroke-linejoin="round"/>
<path d="M22.9044 19.4817C21.6502 18.785 20.7217 17.6213 20.3211 16.2437L20.3209 16.2438C20.049 15.3082 19.4807 14.4862 18.7015 13.9012C17.9223 13.3162 16.9743 13 16 13C15.0256 13 14.0776 13.3162 13.2984 13.9012C12.5192 14.4862 11.9509 15.3082 11.679 16.2438L11.6789 16.2437C11.2782 17.6213 10.3497 18.785 9.0955 19.4817C8.19201 19.9714 7.51163 20.7901 7.19537 21.7679C6.87912 22.7457 6.95126 23.8077 7.39684 24.7338C7.84241 25.6598 8.62725 26.3789 9.58867 26.742C10.5501 27.1051 11.6143 27.0843 12.5608 26.6839C14.7646 25.7803 17.2354 25.7803 19.4391 26.6839C20.3857 27.0847 21.4502 27.1058 22.4119 26.7428C23.3736 26.3799 24.1587 25.6607 24.6044 24.7344C25.05 23.8081 25.1221 22.7458 24.8056 21.7678C24.4891 20.7899 23.8083 19.9712 22.9044 19.4817H22.9044Z" stroke="black" stroke-width="2" stroke-linecap="round" stroke-linejoin="round"/>
</svg>
