<svg width="32" height="32" viewBox="0 0 32 32" fill="none" xmlns="http://www.w3.org/2000/svg">
<path d="M14.5 20C15.8807 20 17 18.8807 17 17.5C17 16.1193 15.8807 15 14.5 15C13.1193 15 12 16.1193 12 17.5C12 18.8807 13.1193 20 14.5 20Z" stroke="black" stroke-width="2" stroke-linecap="round" stroke-linejoin="round"/>
<path d="M4.00073 28.0005L12.7322 19.2678" stroke="black" stroke-width="2" stroke-linecap="round" stroke-linejoin="round"/>
<path d="M4.00073 28.0005L21.4314 25.0954C21.6045 25.0665 21.767 24.9926 21.9025 24.8811C22.038 24.7696 22.1418 24.6244 22.2034 24.4601L25.0007 17.0005L15.0007 7.00049L7.54112 9.79785C7.37682 9.85946 7.23161 9.96323 7.1201 10.0987C7.00859 10.2342 6.9347 10.3967 6.90585 10.5698L4.00073 28.0005Z" stroke="black" stroke-width="2" stroke-linecap="round" stroke-linejoin="round"/>
<path d="M25.0007 17.0003L28.2936 13.7074C28.3865 13.6146 28.4601 13.5043 28.5104 13.383C28.5607 13.2617 28.5865 13.1317 28.5865 13.0003C28.5865 12.869 28.5607 12.739 28.5104 12.6177C28.4601 12.4963 28.3865 12.3861 28.2936 12.2932L19.7078 3.70744C19.5203 3.51991 19.2659 3.41455 19.0007 3.41455C18.7355 3.41455 18.4812 3.51991 18.2936 3.70744L15.0007 7.00034" stroke="black" stroke-width="2" stroke-linecap="round" stroke-linejoin="round"/>
</svg>
