<svg width="32" height="32" viewBox="0 0 32 32" fill="none" xmlns="http://www.w3.org/2000/svg">
<path d="M16.0007 19.0005V31.0005" stroke="black" stroke-width="2" stroke-linecap="round" stroke-linejoin="round"/>
<path d="M16.0007 19.0005C17.3814 19.0005 18.5007 17.8812 18.5007 16.5005C18.5007 15.1198 17.3814 14.0005 16.0007 14.0005C14.62 14.0005 13.5007 15.1198 13.5007 16.5005C13.5007 17.8812 14.62 19.0005 16.0007 19.0005Z" stroke="black" stroke-width="2" stroke-linecap="round" stroke-linejoin="round"/>
<path d="M9.00073 9.00049V4.00049C9.00073 3.73527 9.10609 3.48092 9.29363 3.29338C9.48116 3.10585 9.73552 3.00049 10.0007 3.00049H22.0007C22.2659 3.00049 22.5203 3.10585 22.7078 3.29338C22.8954 3.48092 23.0007 3.73527 23.0007 4.00049V9.00049" stroke="black" stroke-width="2" stroke-linecap="round" stroke-linejoin="round"/>
<path d="M9.00072 9.00049L5.57739 15.9293C5.49616 16.0938 5.46171 16.2773 5.47779 16.46C5.49388 16.6427 5.5599 16.8174 5.66862 16.9651L16.0007 31.0005L26.3328 16.9651C26.4415 16.8174 26.5075 16.6426 26.5236 16.46C26.5397 16.2773 26.5052 16.0937 26.424 15.9293L23.0007 9.00049H9.00072Z" stroke="black" stroke-width="2" stroke-linecap="round" stroke-linejoin="round"/>
</svg>
