<svg width="32" height="32" viewBox="0 0 32 32" fill="none" xmlns="http://www.w3.org/2000/svg">
<path d="M6 5L26 27" stroke="black" stroke-width="2" stroke-linecap="round" stroke-linejoin="round"/>
<path d="M14.3743 14.2117C13.748 14.3092 13.1318 14.4633 12.5333 14.672C12.3713 14.7299 12.2271 14.8289 12.1149 14.9595C12.0028 15.09 11.9265 15.2474 11.8937 15.4164L11.1564 19.1048C11.1238 19.2679 11.051 19.4203 10.9447 19.5482C10.8383 19.6761 10.7017 19.7755 10.5472 19.8373L4.63315 22.2029C4.43278 22.2838 4.21155 22.2974 4.00279 22.2416C3.79403 22.1858 3.60905 22.0637 3.47572 21.8937C2.58267 20.7389 2.14115 19.2983 2.23382 17.8414C2.3265 16.3846 2.94701 15.0115 3.97917 13.9792C5.80518 12.1479 8.02643 10.7592 10.4725 9.91968" stroke="black" stroke-width="2" stroke-linecap="round" stroke-linejoin="round"/>
<path d="M15.0657 9.02558C17.4523 8.89156 19.8402 9.2636 22.0729 10.1173C24.3056 10.971 26.3325 12.2871 28.0208 13.9792C29.053 15.0115 29.6735 16.3846 29.7662 17.8414C29.8588 19.2983 29.4173 20.739 28.5243 21.8937C28.3909 22.0637 28.206 22.1858 27.9972 22.2416C27.7884 22.2974 27.5672 22.2838 27.3668 22.2029L26.8607 22.0005" stroke="black" stroke-width="2" stroke-linecap="round" stroke-linejoin="round"/>
</svg>
