<svg width="32" height="32" viewBox="0 0 32 32" fill="none" xmlns="http://www.w3.org/2000/svg">
<path d="M2.93006 9.46155C2.79276 9.24458 2.74387 8.98322 2.79346 8.73129C2.84306 8.47936 2.98736 8.25603 3.19667 8.1073C6.9315 5.43614 11.4083 4 16 4C20.5917 4 25.0685 5.43614 28.8033 8.1073C29.0126 8.25603 29.1569 8.47936 29.2065 8.73129C29.2561 8.98322 29.2072 9.24458 29.0699 9.46155L16.8437 28.6742C16.7533 28.8162 16.6287 28.933 16.4812 29.014C16.3337 29.0949 16.1682 29.1374 16 29.1374C15.8318 29.1374 15.6663 29.0949 15.5188 29.014C15.3713 28.933 15.2467 28.8162 15.1563 28.6742L2.93006 9.46155Z" stroke="black" stroke-width="2" stroke-linecap="round" stroke-linejoin="round"/>
<path d="M4.5932 12.075C7.81062 9.4399 11.8412 8 16 8C20.1588 8 24.1894 9.4399 27.4068 12.075" stroke="black" stroke-width="2" stroke-linecap="round" stroke-linejoin="round"/>
<path d="M20.5397 22.8666C20.0157 22.7171 19.5338 22.4474 19.1324 22.0788C18.731 21.7103 18.4212 21.2531 18.2277 20.7437C18.0341 20.2343 17.9622 19.6868 18.0175 19.1447C18.0729 18.6026 18.2541 18.0809 18.5467 17.6212C18.8392 17.1614 19.2351 16.7764 19.7027 16.4966C20.1703 16.2168 20.6968 16.0501 21.2402 16.0096C21.7836 15.9692 22.329 16.0562 22.8328 16.2637C23.3367 16.4712 23.7852 16.7935 24.1425 17.2049" stroke="black" stroke-width="2" stroke-linecap="round" stroke-linejoin="round"/>
<path d="M7.2374 16.2304C7.4684 15.6367 7.85706 15.1173 8.36148 14.7282C8.86591 14.339 9.46697 14.0949 10.0999 14.0222C10.7328 13.9494 11.3736 14.0508 11.9531 14.3153C12.5327 14.5799 13.0291 14.9976 13.3887 15.5234C13.7484 16.0492 13.9578 16.6633 13.9943 17.2993C14.0307 17.9353 13.8929 18.5693 13.5957 19.1328C13.2985 19.6963 12.8531 20.168 12.3076 20.497C11.7621 20.8261 11.1371 21 10.5 21.0001C10.4238 21.0001 10.3482 20.9977 10.2732 20.9929" stroke="black" stroke-width="2" stroke-linecap="round" stroke-linejoin="round"/>
</svg>
