<svg width="32" height="32" viewBox="0 0 32 32" fill="none" xmlns="http://www.w3.org/2000/svg">
<path d="M11 21L6 26" stroke="black" stroke-width="2" stroke-linecap="round" stroke-linejoin="round"/>
<path d="M6 5L26 27" stroke="black" stroke-width="2" stroke-linecap="round" stroke-linejoin="round"/>
<path d="M11.7142 11.2857L11.5 11.5C11.5 11.5 8.03196 9.766 4.32512 12.7563C4.21566 12.8444 4.12596 12.9546 4.06185 13.0796C3.99774 13.2047 3.96066 13.3418 3.95302 13.4821C3.94538 13.6225 3.96734 13.7628 4.01748 13.8941C4.06763 14.0254 4.14483 14.1446 4.24407 14.2441L17.7311 27.7312C17.8321 27.8324 17.9537 27.9108 18.0876 27.961C18.2215 28.0113 18.3647 28.0322 18.5074 28.0223C18.65 28.0124 18.7889 27.9721 18.9147 27.9039C19.0404 27.8358 19.15 27.7414 19.2362 27.6272C20.1865 26.3641 21.6281 23.8932 20.826 21.3086" stroke="black" stroke-width="2" stroke-linecap="round" stroke-linejoin="round"/>
<path d="M23.1173 17.8826L28.2929 12.7071C28.4804 12.5195 28.5858 12.2652 28.5858 12C28.5858 11.7348 28.4804 11.4804 28.2929 11.2929L20.7071 3.70708C20.5196 3.51954 20.2652 3.41418 20 3.41418C19.7348 3.41418 19.4804 3.51954 19.2929 3.70708L14.5459 8.45408" stroke="black" stroke-width="2" stroke-linecap="round" stroke-linejoin="round"/>
</svg>
