<svg width="32" height="32" viewBox="0 0 32 32" fill="none" xmlns="http://www.w3.org/2000/svg">
<path d="M7.99998 27C7.86866 27 7.73862 26.9742 7.61729 26.9239C7.49597 26.8737 7.38573 26.8 7.29287 26.7071C7.20001 26.6143 7.12635 26.504 7.0761 26.3827C7.02584 26.2614 6.99998 26.1313 6.99998 26L7.00005 20.6632C6.46658 20.9158 5.87787 21.0295 5.28869 20.9935C4.6995 20.9576 4.12899 20.7732 3.6302 20.4575C3.13142 20.1419 2.72057 19.7052 2.43587 19.1881C2.15118 18.671 2.00189 18.0903 2.00189 17.5C2.00189 16.9098 2.15118 16.3291 2.43587 15.812C2.72057 15.2949 3.13142 14.8582 3.6302 14.5425C4.12899 14.2269 4.6995 14.0425 5.28869 14.0065C5.87787 13.9706 6.46658 14.0842 7.00005 14.3369L6.99998 9.00004C6.99998 8.86872 7.02585 8.73868 7.0761 8.61735C7.12636 8.49602 7.20002 8.38578 7.29288 8.29292C7.38574 8.20006 7.49598 8.1264 7.61731 8.07615C7.73863 8.02589 7.86867 8.00003 8 8.00003L13.8368 8.00009C13.5842 7.46663 13.4705 6.87792 13.5065 6.28874C13.5424 5.69956 13.7268 5.12904 14.0425 4.63026C14.3581 4.13147 14.7948 3.72063 15.3119 3.43594C15.829 3.15124 16.4097 3.00195 17 3.00195C17.5902 3.00195 18.1709 3.15124 18.688 3.43594C19.2051 3.72063 19.6418 4.13147 19.9574 4.63026C20.2731 5.12904 20.4575 5.69956 20.4935 6.28874C20.5294 6.87792 20.4158 7.46663 20.1631 8.00009L25.9999 8.00003C26.2651 8.00003 26.5195 8.10538 26.707 8.29291C26.8946 8.48045 26.9999 8.7348 26.9999 9.00002L27 14.3369C26.4665 14.0842 25.8778 13.9706 25.2886 14.0065C24.6995 14.0425 24.1289 14.2269 23.6302 14.5425C23.1314 14.8582 22.7205 15.2949 22.4358 15.812C22.1511 16.3291 22.0018 16.9097 22.0018 17.5C22.0018 18.0903 22.1511 18.671 22.4358 19.1881C22.7205 19.7052 23.1314 20.1419 23.6302 20.4575C24.1289 20.7732 24.6995 20.9576 25.2886 20.9935C25.8778 21.0295 26.4665 20.9158 27 20.6632L26.9999 26C26.9999 26.2653 26.8946 26.5196 26.707 26.7071C26.5195 26.8947 26.2651 27 25.9999 27L7.99998 27Z" stroke="black" stroke-width="2" stroke-linecap="round" stroke-linejoin="round"/>
</svg>
