<svg width="32" height="32" viewBox="0 0 32 32" fill="none" xmlns="http://www.w3.org/2000/svg">
<path d="M23.5 6C24.6046 6 25.5 5.10457 25.5 4C25.5 2.89543 24.6046 2 23.5 2C22.3954 2 21.5 2.89543 21.5 4C21.5 5.10457 22.3954 6 23.5 6Z" stroke="black" stroke-width="2" stroke-linecap="round" stroke-linejoin="round"/>
<path d="M20.1282 22C18.8514 22.6571 17.4361 22.9999 16 22.9999C14.564 22.9999 13.1487 22.6571 11.8718 22" stroke="black" stroke-width="2" stroke-linecap="round" stroke-linejoin="round"/>
<path d="M16 9L17 3L21.5231 3.69587" stroke="black" stroke-width="2" stroke-linecap="round" stroke-linejoin="round"/>
<path d="M7.42601 11.2348C9.71458 9.84354 12.715 9 16 9C19.285 9 22.2854 9.84354 24.574 11.2348L24.5739 11.2351C24.836 10.8748 25.1752 10.5774 25.5666 10.3646C25.9581 10.1517 26.392 10.0288 26.837 10.0046C27.2819 9.9804 27.7266 10.0556 28.1388 10.2248C28.551 10.394 28.9204 10.6528 29.2201 10.9826C29.5198 11.3123 29.7422 11.7047 29.8713 12.1311C30.0004 12.5576 30.0329 13.0075 29.9664 13.4481C29.8999 13.8887 29.7362 14.3089 29.487 14.6783C29.2378 15.0477 28.9094 15.3569 28.5258 15.5836L28.5261 15.5835C28.8377 16.3511 28.9986 17.1715 29 18C29 22.9706 23.1797 27 16 27C8.82031 27 3.00001 22.9706 3.00001 18C3.00138 17.1715 3.1623 16.3511 3.47396 15.5835L3.47422 15.5836C3.09056 15.3569 2.76219 15.0477 2.51297 14.6783C2.26375 14.3089 2.09995 13.8887 2.03345 13.448C1.96695 13.0074 1.99943 12.5575 2.12852 12.1311C2.25762 11.7046 2.4801 11.3122 2.77979 10.9824C3.07948 10.6527 3.44886 10.3938 3.8611 10.2246C4.27334 10.0555 4.71809 9.98024 5.16303 10.0044C5.60797 10.0286 6.04194 10.1516 6.4334 10.3645C6.82487 10.5774 7.16401 10.8748 7.42618 11.2351L7.42601 11.2348Z" stroke="black" stroke-width="2" stroke-linecap="round" stroke-linejoin="round"/>
<path d="M11 18.5C12.1046 18.5 13 17.6046 13 16.5C13 15.3954 12.1046 14.5 11 14.5C9.89543 14.5 9 15.3954 9 16.5C9 17.6046 9.89543 18.5 11 18.5Z" fill="black"/>
<path d="M21 18.5C22.1046 18.5 23 17.6046 23 16.5C23 15.3954 22.1046 14.5 21 14.5C19.8954 14.5 19 15.3954 19 16.5C19 17.6046 19.8954 18.5 21 18.5Z" fill="black"/>
</svg>
