<svg width="20" height="20" viewBox="0 0 20 20" fill="none" xmlns="http://www.w3.org/2000/svg">
<path d="M19.3752 8.125C19.3747 7.64644 19.2369 7.17807 18.9781 6.77553C18.7193 6.37298 18.3504 6.05318 17.9152 5.85409C17.48 5.65501 16.9969 5.58502 16.5231 5.65243C16.0493 5.71984 15.6048 5.92182 15.2424 6.23438C13.9299 5.53906 12.3674 5.11719 10.7346 5.02344L11.1408 2.58594L12.844 2.85156C12.9239 3.29083 13.1566 3.68766 13.5011 3.97175C13.8455 4.25584 14.2794 4.40888 14.7258 4.40374C15.1723 4.39861 15.6025 4.23565 15.9403 3.94371C16.2781 3.65178 16.5017 3.24971 16.5715 2.80872C16.6413 2.36773 16.5527 1.91627 16.3215 1.53431C16.0904 1.15234 15.7315 0.864514 15.3084 0.721802C14.8853 0.579091 14.4254 0.590705 14.0101 0.754586C13.5948 0.918468 13.2509 1.22404 13.0393 1.61719L10.719 1.25781C10.5565 1.233 10.3907 1.2732 10.2577 1.36971C10.1246 1.46622 10.0349 1.61127 10.008 1.77344L9.46897 5.01563C7.76585 5.08594 6.12522 5.50781 4.75804 6.23438C4.25974 5.8224 3.62122 5.61949 2.97652 5.66824C2.33182 5.717 1.73107 6.01363 1.3004 6.49585C0.869736 6.97808 0.642638 7.6084 0.666785 8.2545C0.690932 8.90059 0.964448 9.5122 1.42991 9.96094C1.31173 10.3805 1.25128 10.8141 1.25022 11.25C1.25022 12.9609 2.18772 14.5625 3.89866 15.7422C5.6096 16.9219 7.70335 17.5 10.0002 17.5C12.2971 17.5 14.4612 16.875 16.1018 15.7422C17.7424 14.6094 18.7502 12.9609 18.7502 11.25C18.7497 10.8167 18.6893 10.3855 18.5705 9.96875C18.8236 9.73274 19.0255 9.44737 19.1639 9.13025C19.3023 8.81313 19.3742 8.471 19.3752 8.125ZM5.62522 10.3125C5.62522 10.0653 5.69853 9.8236 5.83589 9.61804C5.97324 9.41248 6.16846 9.25226 6.39687 9.15765C6.62528 9.06304 6.87661 9.03829 7.11909 9.08652C7.36156 9.13475 7.58429 9.2538 7.75911 9.42862C7.93392 9.60343 8.05297 9.82616 8.1012 10.0686C8.14944 10.3111 8.12468 10.5624 8.03007 10.7909C7.93546 11.0193 7.77525 11.2145 7.56969 11.3518C7.36412 11.4892 7.12245 11.5625 6.87522 11.5625C6.5437 11.5625 6.22576 11.4308 5.99134 11.1964C5.75692 10.962 5.62522 10.644 5.62522 10.3125ZM12.8674 14.3047C11.9808 14.7617 10.9977 15.0002 10.0002 15.0002C9.00272 15.0002 8.01967 14.7617 7.13304 14.3047C6.99682 14.2231 6.89676 14.0928 6.85316 13.9401C6.80956 13.7875 6.82569 13.6239 6.89828 13.4827C6.97087 13.3415 7.09447 13.2332 7.24399 13.1799C7.39352 13.1265 7.55775 13.132 7.70335 13.1953C8.41369 13.5612 9.20117 13.7521 10.0002 13.7521C10.7993 13.7521 11.5868 13.5612 12.2971 13.1953C12.4427 13.132 12.6069 13.1265 12.7565 13.1799C12.906 13.2332 13.0296 13.3415 13.1022 13.4827C13.1748 13.6239 13.1909 13.7875 13.1473 13.9401C13.1037 14.0928 13.0036 14.2231 12.8674 14.3047ZM13.1252 11.5625C12.878 11.5625 12.6363 11.4892 12.4308 11.3518C12.2252 11.2145 12.065 11.0193 11.9704 10.7909C11.8758 10.5624 11.851 10.3111 11.8992 10.0686C11.9475 9.82616 12.0665 9.60343 12.2413 9.42862C12.4162 9.2538 12.6389 9.13475 12.8814 9.08652C13.1238 9.03829 13.3752 9.06304 13.6036 9.15765C13.832 9.25226 14.0272 9.41248 14.1646 9.61804C14.3019 9.8236 14.3752 10.0653 14.3752 10.3125C14.3752 10.644 14.2435 10.962 14.0091 11.1964C13.7747 11.4308 13.4567 11.5625 13.1252 11.5625Z" fill="#C4C4C4"/>
</svg>
