<svg width="32" height="32" viewBox="0 0 32 32" fill="none" xmlns="http://www.w3.org/2000/svg">
<path d="M1.80849 15.1589L12.9592 7.99061C13.1103 7.8935 13.2847 7.83886 13.4642 7.83243C13.6437 7.826 13.8215 7.86802 13.9792 7.95408C14.1368 8.04013 14.2683 8.16704 14.36 8.32149C14.4516 8.47593 14.5 8.6522 14.5 8.83179V23.1685C14.5 23.348 14.4516 23.5243 14.36 23.6788C14.2683 23.8332 14.1368 23.9601 13.9792 24.0462C13.8215 24.1322 13.6437 24.1742 13.4642 24.1678C13.2847 24.1614 13.1103 24.1067 12.9592 24.0096L1.80849 16.8413C1.66763 16.7508 1.55177 16.6263 1.47153 16.4793C1.39129 16.3323 1.34924 16.1676 1.34924 16.0001C1.34924 15.8327 1.39129 15.6679 1.47153 15.5209C1.55177 15.374 1.66763 15.2495 1.80849 15.1589V15.1589Z" stroke="black" stroke-width="2" stroke-linecap="round" stroke-linejoin="round"/>
<path d="M15.8085 15.1589L26.9592 7.99061C27.1103 7.8935 27.2847 7.83886 27.4642 7.83243C27.6437 7.826 27.8215 7.86802 27.9792 7.95408C28.1368 8.04013 28.2683 8.16704 28.36 8.32149C28.4516 8.47593 28.5 8.6522 28.5 8.83179V23.1685C28.5 23.348 28.4516 23.5243 28.36 23.6788C28.2683 23.8332 28.1368 23.9601 27.9792 24.0462C27.8215 24.1322 27.6437 24.1742 27.4642 24.1678C27.2847 24.1614 27.1103 24.1067 26.9592 24.0096L15.8085 16.8413C15.6676 16.7508 15.5518 16.6263 15.4715 16.4793C15.3913 16.3323 15.3492 16.1676 15.3492 16.0001C15.3492 15.8327 15.3913 15.6679 15.4715 15.5209C15.5518 15.374 15.6676 15.2495 15.8085 15.1589Z" stroke="black" stroke-width="2" stroke-linecap="round" stroke-linejoin="round"/>
</svg>
