<svg width="32" height="32" viewBox="0 0 32 32" fill="none" xmlns="http://www.w3.org/2000/svg">
<path d="M3.99927 12V7C3.99927 6.73478 4.10462 6.48043 4.29216 6.29289C4.4797 6.10536 4.73405 6 4.99927 6H26.9993C27.2645 6 27.5188 6.10536 27.7064 6.29289C27.8939 6.48043 27.9993 6.73478 27.9993 7V25C27.9993 25.2652 27.8939 25.5196 27.7064 25.7071C27.5188 25.8946 27.2645 26 26.9993 26H17.9993" stroke="black" stroke-width="2" stroke-linecap="round" stroke-linejoin="round"/>
<path d="M3.99927 24C4.5297 24 5.03841 24.2107 5.41348 24.5858C5.78855 24.9609 5.99927 25.4696 5.99927 26" stroke="black" stroke-width="2" stroke-linecap="round" stroke-linejoin="round"/>
<path d="M3.99927 20C5.59057 20 7.11669 20.6321 8.24191 21.7574C9.36713 22.8826 9.99927 24.4087 9.99927 26" stroke="black" stroke-width="2" stroke-linecap="round" stroke-linejoin="round"/>
<path d="M3.99927 16C5.31249 16 6.61285 16.2587 7.8261 16.7612C9.03936 17.2638 10.1417 18.0003 11.0703 18.9289C11.9989 19.8575 12.7355 20.9599 13.2381 22.1732C13.7406 23.3864 13.9993 24.6868 13.9993 26" stroke="black" stroke-width="2" stroke-linecap="round" stroke-linejoin="round"/>
</svg>
