<svg width="32" height="32" viewBox="0 0 32 32" fill="none" xmlns="http://www.w3.org/2000/svg">
<path d="M19.9999 10.9993H5.99988C5.44759 10.9993 4.99988 11.447 4.99988 11.9993V25.9993C4.99988 26.5516 5.44759 26.9993 5.99988 26.9993H19.9999C20.5522 26.9993 20.9999 26.5516 20.9999 25.9993V11.9993C20.9999 11.447 20.5522 10.9993 19.9999 10.9993Z" stroke="black" stroke-width="2" stroke-linecap="round" stroke-linejoin="round"/>
<path d="M20 5H18" stroke="black" stroke-width="2" stroke-linecap="round" stroke-linejoin="round"/>
<path d="M25 5H26C26.2652 5 26.5196 5.10536 26.7071 5.29289C26.8946 5.48043 27 5.73478 27 6V6.99995" stroke="black" stroke-width="2" stroke-linecap="round" stroke-linejoin="round"/>
<path d="M27 14V12" stroke="black" stroke-width="2" stroke-linecap="round" stroke-linejoin="round"/>
<path d="M25 21H26C26.2652 21 26.5196 20.8947 26.7071 20.7072C26.8946 20.5196 27 20.2653 27 20V19" stroke="black" stroke-width="2" stroke-linecap="round" stroke-linejoin="round"/>
<path d="M13 5H12C11.7348 5 11.4804 5.10536 11.2929 5.29289C11.1054 5.48043 11 5.73478 11 6V6.99995" stroke="black" stroke-width="2" stroke-linecap="round" stroke-linejoin="round"/>
</svg>
