<svg width="32" height="32" viewBox="0 0 32 32" fill="none" xmlns="http://www.w3.org/2000/svg">
<path d="M7.5 30C8.32843 30 9 29.3284 9 28.5C9 27.6716 8.32843 27 7.5 27C6.67157 27 6 27.6716 6 28.5C6 29.3284 6.67157 30 7.5 30Z" fill="black"/>
<path d="M11 26.5C11.8284 26.5 12.5 25.8284 12.5 25C12.5 24.1716 11.8284 23.5 11 23.5C10.1716 23.5 9.5 24.1716 9.5 25C9.5 25.8284 10.1716 26.5 11 26.5Z" fill="black"/>
<path d="M3.5 26C4.32843 26 5 25.3284 5 24.5C5 23.6716 4.32843 23 3.5 23C2.67157 23 2 23.6716 2 24.5C2 25.3284 2.67157 26 3.5 26Z" fill="black"/>
<path d="M7 22.5C7.82843 22.5 8.5 21.8284 8.5 21C8.5 20.1716 7.82843 19.5 7 19.5C6.17157 19.5 5.5 20.1716 5.5 21C5.5 21.8284 6.17157 22.5 7 22.5Z" fill="black"/>
<path d="M31 5H27.4142C27.2829 5 27.1529 5.02587 27.0315 5.07612C26.9102 5.12638 26.8 5.20004 26.7071 5.29289L23 9L6.91675 11.6805C6.73551 11.7107 6.5661 11.7903 6.42711 11.9105C6.28812 12.0306 6.18492 12.1868 6.12885 12.3618C6.07278 12.5367 6.066 12.7238 6.10925 12.9023C6.1525 13.0809 6.24412 13.2441 6.37404 13.374L18.626 25.626C18.7559 25.7559 18.9191 25.8475 19.0977 25.8907C19.2762 25.934 19.4633 25.9272 19.6382 25.8711C19.8132 25.8151 19.9694 25.7119 20.0895 25.5729C20.2097 25.4339 20.2892 25.2645 20.3195 25.0832L23 9" stroke="black" stroke-width="2" stroke-linecap="round" stroke-linejoin="round"/>
</svg>
