<svg width="32" height="32" viewBox="0 0 32 32" fill="none" xmlns="http://www.w3.org/2000/svg">
<path d="M4 9H6.88306C8.15645 9 9.41145 9.30398 10.5437 9.88666C11.676 10.4693 12.6528 11.3139 13.3929 12.3501L18.6071 19.6499C19.3472 20.6861 20.324 21.5307 21.4563 22.1133C22.5886 22.696 23.8436 23 25.1169 23H29" stroke="black" stroke-width="2" stroke-linecap="round" stroke-linejoin="round"/>
<path d="M26 6L29 9L26 12" stroke="black" stroke-width="2" stroke-linecap="round" stroke-linejoin="round"/>
<path d="M26 20L29 23L26 26" stroke="black" stroke-width="2" stroke-linecap="round" stroke-linejoin="round"/>
<path d="M18.4579 12.559L18.6071 12.3501C19.3473 11.3139 20.3241 10.4693 21.4563 9.88666C22.5886 9.30398 23.8436 9 25.117 9H29" stroke="black" stroke-width="2" stroke-linecap="round" stroke-linejoin="round"/>
<path d="M4 22.9999H6.88306C8.15645 22.9999 9.41145 22.696 10.5437 22.1133C11.676 21.5306 12.6528 20.686 13.3929 19.6498L13.5422 19.4409" stroke="black" stroke-width="2" stroke-linecap="round" stroke-linejoin="round"/>
</svg>
