<svg width="32" height="32" viewBox="0 0 32 32" fill="none" xmlns="http://www.w3.org/2000/svg">
<path d="M8.39628 15.1466L23.4785 5.92968C23.6301 5.83704 23.8037 5.78646 23.9813 5.78313C24.1589 5.77981 24.3342 5.82386 24.4892 5.91076C24.6441 5.99766 24.7731 6.12427 24.8629 6.27757C24.9527 6.43086 25 6.60531 25 6.78296V25.2168C25 25.3945 24.9527 25.5689 24.8629 25.7222C24.7731 25.8755 24.6441 26.0021 24.4892 26.089C24.3342 26.1759 24.1589 26.22 23.9813 26.2167C23.8037 26.2133 23.6301 26.1628 23.4785 26.0701L8.39628 16.8532C8.2501 16.7639 8.12933 16.6385 8.04553 16.4891C7.96173 16.3396 7.91772 16.1712 7.91772 15.9999C7.91772 15.8286 7.96173 15.6602 8.04553 15.5107C8.12933 15.3613 8.2501 15.2359 8.39628 15.1466Z" stroke="black" stroke-width="2" stroke-linecap="round" stroke-linejoin="round"/>
<path d="M7 5V27" stroke="black" stroke-width="2" stroke-linecap="round" stroke-linejoin="round"/>
</svg>
