<svg width="32" height="32" viewBox="0 0 32 32" fill="none" xmlns="http://www.w3.org/2000/svg">
<path d="M23.6037 15.1466L8.52145 5.92968C8.36986 5.83704 8.19633 5.78646 8.01871 5.78313C7.84109 5.77981 7.66579 5.82386 7.51084 5.91076C7.3559 5.99766 7.22689 6.12427 7.13711 6.27757C7.04733 6.43086 7 6.60531 7 6.78296V25.2168C7 25.3945 7.04733 25.5689 7.13711 25.7222C7.22689 25.8755 7.3559 26.0021 7.51084 26.089C7.66579 26.1759 7.84109 26.22 8.01871 26.2167C8.19633 26.2133 8.36986 26.1628 8.52145 26.0701L23.6037 16.8532C23.7499 16.7639 23.8707 16.6385 23.9545 16.4891C24.0383 16.3396 24.0823 16.1712 24.0823 15.9999C24.0823 15.8286 24.0383 15.6602 23.9545 15.5107C23.8707 15.3613 23.7499 15.2359 23.6037 15.1466V15.1466Z" stroke="black" stroke-width="2" stroke-linecap="round" stroke-linejoin="round"/>
<path d="M25 5V27" stroke="black" stroke-width="2" stroke-linecap="round" stroke-linejoin="round"/>
</svg>
