<svg width="32" height="32" viewBox="0 0 32 32" fill="none" xmlns="http://www.w3.org/2000/svg">
<path d="M18.5 21.4993L5 21.4993" stroke="black" stroke-width="2" stroke-linecap="round" stroke-linejoin="round"/>
<path d="M27 21.4993L23.5 21.4993" stroke="black" stroke-width="2" stroke-linecap="round" stroke-linejoin="round"/>
<path d="M21 23.9993C22.3807 23.9993 23.5 22.88 23.5 21.4993C23.5 20.1186 22.3807 18.9993 21 18.9993C19.6193 18.9993 18.5 20.1186 18.5 21.4993C18.5 22.88 19.6193 23.9993 21 23.9993Z" stroke="black" stroke-width="2" stroke-linecap="round" stroke-linejoin="round"/>
<path d="M10.5 10.4991L5 10.499" stroke="black" stroke-width="2" stroke-linecap="round" stroke-linejoin="round"/>
<path d="M27 10.499L15.5 10.4991" stroke="black" stroke-width="2" stroke-linecap="round" stroke-linejoin="round"/>
<path d="M13 12.9993C14.3807 12.9993 15.5 11.88 15.5 10.4993C15.5 9.11856 14.3807 7.99927 13 7.99927C11.6193 7.99927 10.5 9.11856 10.5 10.4993C10.5 11.88 11.6193 12.9993 13 12.9993Z" stroke="black" stroke-width="2" stroke-linecap="round" stroke-linejoin="round"/>
</svg>
