<svg width="32" height="32" viewBox="0 0 32 32" fill="none" xmlns="http://www.w3.org/2000/svg">
<path d="M16 28C22.6274 28 28 22.6274 28 16C28 9.37258 22.6274 4 16 4C9.37258 4 4 9.37258 4 16C4 22.6274 9.37258 28 16 28Z" stroke="black" stroke-width="2" stroke-linecap="round" stroke-linejoin="round"/>
<path d="M11.5 15C12.3284 15 13 14.3284 13 13.5C13 12.6716 12.3284 12 11.5 12C10.6716 12 10 12.6716 10 13.5C10 14.3284 10.6716 15 11.5 15Z" fill="black"/>
<path d="M19 13.5H22" stroke="black" stroke-width="2" stroke-linecap="round" stroke-linejoin="round"/>
<path d="M21.1974 18.9998C20.6706 19.912 19.913 20.6695 19.0006 21.1962C18.0883 21.7228 17.0534 22.0001 16 22.0001C14.9466 22.0001 13.9117 21.7228 12.9993 21.1962C12.087 20.6695 11.3293 19.9121 10.8025 18.9998" stroke="black" stroke-width="2" stroke-linecap="round" stroke-linejoin="round"/>
</svg>
