<svg width="32" height="32" viewBox="0 0 32 32" fill="none" xmlns="http://www.w3.org/2000/svg">
<path d="M19.5272 27.4732C16.9693 28.2576 14.2225 28.1637 11.7241 27.2065C9.2257 26.2493 7.11935 24.4837 5.74038 22.191C4.36141 19.8983 3.7891 17.2101 4.11455 14.5545C4.44 11.8989 5.64451 9.42849 7.53631 7.53659C9.42812 5.6447 11.8985 4.44007 14.5541 4.11449C17.2097 3.78892 19.8978 4.36111 22.1906 5.73997C24.4834 7.11883 26.2491 9.2251 27.2064 11.7234C28.1637 14.2218 28.2577 16.9686 27.4734 19.5265L19.5272 27.4732Z" stroke="black" stroke-width="2" stroke-linecap="round" stroke-linejoin="round"/>
<path d="M11.5 15C12.3284 15 13 14.3284 13 13.5C13 12.6716 12.3284 12 11.5 12C10.6716 12 10 12.6716 10 13.5C10 14.3284 10.6716 15 11.5 15Z" fill="black"/>
<path d="M20.5 15C21.3284 15 22 14.3284 22 13.5C22 12.6716 21.3284 12 20.5 12C19.6716 12 19 12.6716 19 13.5C19 14.3284 19.6716 15 20.5 15Z" fill="black"/>
<path d="M21.1974 18.9998C20.6706 19.912 19.913 20.6695 19.0006 21.1962C18.0883 21.7228 17.0534 22.0001 16 22.0001C14.9466 22.0001 13.9117 21.7228 12.9993 21.1962C12.087 20.6695 11.3293 19.9121 10.8025 18.9998" stroke="black" stroke-width="2" stroke-linecap="round" stroke-linejoin="round"/>
</svg>
