<svg width="32" height="32" viewBox="0 0 32 32" fill="none" xmlns="http://www.w3.org/2000/svg">
<path d="M17.3404 21.933L14.9383 28.453C14.8676 28.6449 14.7397 28.8106 14.5719 28.9276C14.4041 29.0446 14.2045 29.1073 13.9999 29.1073C13.7954 29.1073 13.5958 29.0446 13.428 28.9276C13.2602 28.8106 13.1323 28.6449 13.0616 28.453L10.6595 21.933C10.6095 21.7972 10.5306 21.6739 10.4283 21.5716C10.3259 21.4693 10.2026 21.3904 10.0669 21.3404L3.54687 18.9383C3.35493 18.8676 3.1893 18.7397 3.0723 18.5719C2.95531 18.4041 2.89258 18.2045 2.89258 17.9999C2.89258 17.7954 2.95531 17.5958 3.0723 17.428C3.1893 17.2602 3.35493 17.1323 3.54687 17.0616L10.0669 14.6595C10.2026 14.6095 10.3259 14.5306 10.4283 14.4283C10.5306 14.3259 10.6095 14.2026 10.6595 14.0669L13.0616 7.54687C13.1323 7.35493 13.2602 7.1893 13.428 7.0723C13.5958 6.95531 13.7954 6.89258 13.9999 6.89258C14.2045 6.89258 14.4041 6.95531 14.5719 7.0723C14.7397 7.1893 14.8676 7.35493 14.9383 7.54687L17.3404 14.0669C17.3904 14.2026 17.4693 14.3259 17.5716 14.4283C17.6739 14.5306 17.7972 14.6095 17.933 14.6595L24.453 17.0616C24.6449 17.1323 24.8106 17.2602 24.9276 17.428C25.0446 17.5958 25.1073 17.7954 25.1073 17.9999C25.1073 18.2045 25.0446 18.4041 24.9276 18.5719C24.8106 18.7397 24.6449 18.8676 24.453 18.9383L17.933 21.3404C17.7972 21.3904 17.6739 21.4693 17.5716 21.5716C17.4693 21.6739 17.3904 21.7972 17.3404 21.933V21.933Z" stroke="black" stroke-width="2" stroke-linecap="round" stroke-linejoin="round"/>
<path d="M22 2V8" stroke="black" stroke-width="2" stroke-linecap="round" stroke-linejoin="round"/>
<path d="M25 5H19" stroke="black" stroke-width="2" stroke-linecap="round" stroke-linejoin="round"/>
<path d="M28 9V13" stroke="black" stroke-width="2" stroke-linecap="round" stroke-linejoin="round"/>
<path d="M30 11H26" stroke="black" stroke-width="2" stroke-linecap="round" stroke-linejoin="round"/>
</svg>
