<svg width="32" height="32" viewBox="0 0 32 32" fill="none" xmlns="http://www.w3.org/2000/svg">
<path d="M27.361 9.63745C29.0488 11.3253 29.997 13.6145 29.997 16.0014C29.997 18.3884 29.0488 20.6775 27.361 22.3654" stroke="black" stroke-width="2" stroke-linecap="round" stroke-linejoin="round"/>
<path d="M9.99927 11.0015V21.0015" stroke="black" stroke-width="2" stroke-linecap="round" stroke-linejoin="round"/>
<path d="M23.8254 13.1731C24.5756 13.9232 24.997 14.9407 24.997 16.0015C24.997 17.0624 24.5756 18.0798 23.8254 18.83" stroke="black" stroke-width="2" stroke-linecap="round" stroke-linejoin="round"/>
<path d="M6 5L26 27" stroke="black" stroke-width="2" stroke-linecap="round" stroke-linejoin="round"/>
<path d="M19 19.3V28.0015L10 21.0015H4C3.73478 21.0015 3.48043 20.8961 3.29289 20.7086C3.10536 20.521 3 20.2667 3 20.0015V12.0015C3 11.7362 3.10536 11.4819 3.29289 11.2944C3.48043 11.1068 3.73478 11.0015 4 11.0015H10L10.8528 10.3381" stroke="black" stroke-width="2" stroke-linecap="round" stroke-linejoin="round"/>
<path d="M14.0195 7.87509L19 4.00146V13.3536" stroke="black" stroke-width="2" stroke-linecap="round" stroke-linejoin="round"/>
</svg>
