<svg width="32" height="32" viewBox="0 0 32 32" fill="none" xmlns="http://www.w3.org/2000/svg">
<path d="M27.3603 9.63599C28.196 10.4717 28.859 11.4639 29.3112 12.5558C29.7635 13.6477 29.9963 14.8181 29.9963 15.9999C29.9963 17.1818 29.7635 18.3522 29.3112 19.4441C28.859 20.536 28.196 21.5282 27.3603 22.3639" stroke="black" stroke-width="2" stroke-linecap="round" stroke-linejoin="round"/>
<path d="M10 21H4C3.73478 21 3.48043 20.8946 3.29289 20.7071C3.10536 20.5196 3 20.2652 3 20V12C3 11.7348 3.10536 11.4804 3.29289 11.2929C3.48043 11.1054 3.73478 11 4 11H10L19 4V28L10 21Z" stroke="black" stroke-width="2" stroke-linecap="round" stroke-linejoin="round"/>
<path d="M10 11V21" stroke="black" stroke-width="2" stroke-linecap="round" stroke-linejoin="round"/>
<path d="M23.8248 13.1716C24.1962 13.5431 24.4908 13.984 24.6919 14.4693C24.8929 14.9546 24.9963 15.4748 24.9963 16.0001C24.9963 16.5253 24.8929 17.0455 24.6919 17.5308C24.4908 18.0161 24.1962 18.4571 23.8248 18.8285" stroke="black" stroke-width="2" stroke-linecap="round" stroke-linejoin="round"/>
</svg>
