<svg width="32" height="32" viewBox="0 0 32 32" fill="none" xmlns="http://www.w3.org/2000/svg">
<path d="M19.8406 20.4387L16.9399 28.4157C16.8697 28.6086 16.7419 28.7752 16.5738 28.893C16.4057 29.0108 16.2054 29.0739 16.0001 29.0739C15.7948 29.0739 15.5945 29.0108 15.4264 28.893C15.2583 28.7752 15.1305 28.6086 15.0603 28.4157L12.1596 20.4387C12.1096 20.3013 12.0302 20.1766 11.9269 20.0733C11.8236 19.97 11.6989 19.8906 11.5615 19.8406L3.58453 16.9399C3.39162 16.8697 3.22497 16.7419 3.1072 16.5738C2.98944 16.4057 2.92627 16.2054 2.92627 16.0001C2.92627 15.7948 2.98944 15.5945 3.1072 15.4264C3.22497 15.2583 3.39162 15.1305 3.58453 15.0603L11.5615 12.1596C11.6989 12.1096 11.8236 12.0302 11.9269 11.9269C12.0302 11.8236 12.1096 11.6989 12.1596 11.5615L15.0603 3.58453C15.1305 3.39162 15.2583 3.22497 15.4264 3.1072C15.5945 2.98944 15.7948 2.92627 16.0001 2.92627C16.2054 2.92627 16.4057 2.98944 16.5738 3.1072C16.7419 3.22497 16.8697 3.39162 16.9399 3.58453L19.8406 11.5615C19.8906 11.6989 19.97 11.8236 20.0733 11.9269C20.1766 12.0302 20.3013 12.1096 20.4387 12.1596L28.4157 15.0603C28.6086 15.1305 28.7752 15.2583 28.893 15.4264C29.0108 15.5945 29.0739 15.7948 29.0739 16.0001C29.0739 16.2054 29.0108 16.4057 28.893 16.5738C28.7752 16.7419 28.6086 16.8697 28.4157 16.9399L20.4387 19.8406C20.3013 19.8906 20.1766 19.97 20.0733 20.0733C19.97 20.1766 19.8906 20.3013 19.8406 20.4387Z" stroke="black" stroke-width="2" stroke-linecap="round" stroke-linejoin="round"/>
</svg>
