<svg width="32" height="32" viewBox="0 0 32 32" fill="none" xmlns="http://www.w3.org/2000/svg">
<path d="M11.4915 19C11.4915 20.6569 13.51 22 16 22C18.4899 22 20.5084 20.6569 20.5084 19C20.5084 15 11.742 16.5 11.742 13C11.742 11.3431 13.51 10 16 10C17.8674 10 19.3288 10.7555 19.9428 11.8323" stroke="black" stroke-width="2" stroke-linecap="round" stroke-linejoin="round"/>
<path d="M26 5H6C5.44772 5 5 5.44772 5 6V26C5 26.5523 5.44772 27 6 27H26C26.5523 27 27 26.5523 27 26V6C27 5.44772 26.5523 5 26 5Z" stroke="black" stroke-width="2" stroke-linecap="round" stroke-linejoin="round"/>
</svg>
