<svg width="32" height="32" viewBox="0 0 32 32" fill="none" xmlns="http://www.w3.org/2000/svg">
<path d="M4.58381 21.6312L7.60722 4.48456C7.65327 4.22337 7.8012 3.99118 8.01845 3.83906C8.2357 3.68693 8.50449 3.62735 8.76567 3.6734L15.6593 4.88894C15.9205 4.93499 16.1527 5.08292 16.3048 5.30017C16.457 5.51742 16.5165 5.78621 16.4705 6.04739L13.4316 23.2815C13.227 24.4419 12.5755 25.4757 11.6169 26.161C10.6584 26.8462 9.4693 27.1281 8.30515 26.9462C5.81231 26.5556 4.14565 24.1161 4.58381 21.6312Z" stroke="black" stroke-width="2" stroke-linecap="round" stroke-linejoin="round"/>
<path d="M14.7851 15.6055L23.9055 12.2859C24.1547 12.1952 24.4298 12.2072 24.6701 12.3193C24.9105 12.4314 25.0965 12.6343 25.1872 12.8836L27.5814 19.4614C27.6263 19.5848 27.6464 19.7159 27.6407 19.8471C27.635 19.9782 27.6035 20.107 27.548 20.2261C27.4925 20.3451 27.4141 20.452 27.3173 20.5407C27.2204 20.6294 27.1071 20.6982 26.9837 20.7431L10.5391 26.7285" stroke="black" stroke-width="2" stroke-linecap="round" stroke-linejoin="round"/>
<path d="M27.5 20.3167V26C27.5 26.2652 27.3946 26.5196 27.2071 26.7071C27.0195 26.8947 26.7652 27 26.5 27H8.99997" stroke="black" stroke-width="2" stroke-linecap="round" stroke-linejoin="round"/>
<path d="M9 24C9.82843 24 10.5 23.3284 10.5 22.5C10.5 21.6716 9.82843 21 9 21C8.17157 21 7.5 21.6716 7.5 22.5C7.5 23.3284 8.17157 24 9 24Z" fill="black"/>
</svg>
