<svg width="32" height="32" viewBox="0 0 32 32" fill="none" xmlns="http://www.w3.org/2000/svg">
<path d="M9.52513 16.5251L19.0251 5.02513L27 5L26.9749 12.9749L15.4749 22.4749" stroke="black" stroke-width="2" stroke-linecap="round" stroke-linejoin="round"/>
<path d="M12.5 19.5L20 12" stroke="black" stroke-width="2" stroke-linecap="round" stroke-linejoin="round"/>
<path d="M10.2678 24.6821L6.52513 28.4247C6.43227 28.5176 6.32203 28.5912 6.20071 28.6415C6.07938 28.6917 5.94934 28.7176 5.81802 28.7176C5.6867 28.7176 5.55666 28.6917 5.43534 28.6415C5.31401 28.5912 5.20377 28.5176 5.11092 28.4247L3.57538 26.8892C3.48252 26.7963 3.40886 26.6861 3.35861 26.5648C3.30835 26.4434 3.28249 26.3134 3.28249 26.1821C3.28249 26.0507 3.30835 25.9207 3.35861 25.7994C3.40886 25.6781 3.48252 25.5678 3.57538 25.475L7.31802 21.7323C7.41088 21.6395 7.48454 21.5292 7.53479 21.4079C7.58505 21.2866 7.61091 21.1565 7.61091 21.0252C7.61091 20.8939 7.58505 20.7639 7.53479 20.6425C7.48454 20.5212 7.41088 20.411 7.31802 20.3181L4.70711 17.7072C4.51957 17.5197 4.41422 17.2653 4.41422 17.0001C4.41422 16.7349 4.51957 16.4805 4.70711 16.293L6.2929 14.7072C6.48043 14.5197 6.73479 14.4143 7 14.4143C7.26522 14.4143 7.51957 14.5197 7.70711 14.7072L17.2929 24.293C17.4804 24.4805 17.5858 24.7349 17.5858 25.0001C17.5858 25.2653 17.4804 25.5197 17.2929 25.7072L15.7071 27.293C15.5196 27.4805 15.2652 27.5859 15 27.5859C14.7348 27.5859 14.4804 27.4805 14.2929 27.293L11.682 24.6821C11.4944 24.4945 11.2401 24.3892 10.9749 24.3892C10.7097 24.3892 10.4553 24.4945 10.2678 24.6821V24.6821Z" stroke="black" stroke-width="2" stroke-linecap="round" stroke-linejoin="round"/>
</svg>
