<svg width="32" height="32" viewBox="0 0 32 32" fill="none" xmlns="http://www.w3.org/2000/svg">
<path d="M15.3331 3.235L5.25127 5.25136L3.2349 15.3332C3.20262 15.4946 3.21069 15.6615 3.25839 15.8191C3.3061 15.9766 3.39197 16.12 3.50838 16.2364L16.565 29.293C16.6578 29.3858 16.7681 29.4595 16.8894 29.5098C17.0107 29.56 17.1408 29.5859 17.2721 29.5859C17.4034 29.5859 17.5334 29.56 17.6548 29.5098C17.7761 29.4595 17.8863 29.3858 17.9792 29.293L29.2929 17.9793C29.3858 17.8864 29.4594 17.7762 29.5097 17.6549C29.5599 17.5335 29.5858 17.4035 29.5858 17.2722C29.5858 17.1409 29.5599 17.0108 29.5097 16.8895C29.4594 16.7682 29.3858 16.6579 29.2929 16.5651L16.2363 3.50847C16.1199 3.39206 15.9765 3.30619 15.819 3.25848C15.6614 3.21078 15.4945 3.20271 15.3331 3.235V3.235Z" stroke="black" stroke-width="2" stroke-linecap="round" stroke-linejoin="round"/>
<path d="M10.5 12C11.3284 12 12 11.3284 12 10.5C12 9.67157 11.3284 9 10.5 9C9.67157 9 9 9.67157 9 10.5C9 11.3284 9.67157 12 10.5 12Z" fill="black"/>
</svg>
