<svg width="32" height="32" viewBox="0 0 32 32" fill="none" xmlns="http://www.w3.org/2000/svg">
<path d="M23.2976 24.5537L28.6309 16.5537C28.7404 16.3895 28.7989 16.1964 28.7989 15.999C28.7989 15.8016 28.7404 15.6086 28.6309 15.4443L23.2976 7.44432C23.2063 7.30734 23.0826 7.19503 22.9374 7.11735C22.7923 7.03967 22.6302 6.99902 22.4655 6.99902H3.00073L8.63096 15.4453C8.74047 15.6096 8.79889 15.8026 8.79888 16.0001C8.79887 16.1975 8.74042 16.3905 8.6309 16.5547L3.00073 24.999H22.4655C22.6302 24.999 22.7923 24.9584 22.9374 24.8807C23.0826 24.803 23.2063 24.6907 23.2976 24.5537Z" stroke="black" stroke-width="2" stroke-linecap="round" stroke-linejoin="round"/>
</svg>
