<svg width="32" height="32" viewBox="0 0 32 32" fill="none" xmlns="http://www.w3.org/2000/svg">
<path d="M26 12.5L11.75 26.75C11.3232 27.1768 10.8165 27.5154 10.2589 27.7463C9.70126 27.9773 9.10359 28.0962 8.50001 28.0962C7.89642 28.0962 7.29875 27.9773 6.74112 27.7463C6.18348 27.5154 5.6768 27.1768 5.25001 26.75V26.75C4.82321 26.3232 4.48465 25.8165 4.25367 25.2589C4.02269 24.7013 3.90381 24.1036 3.90381 23.5C3.90381 22.8964 4.02269 22.2987 4.25367 21.7411C4.48465 21.1835 4.82321 20.6768 5.25001 20.25L21.5 4L29 11.5L26 12.5Z" stroke="black" stroke-width="2" stroke-linecap="round" stroke-linejoin="round"/>
<path d="M8.5 17C8.5 17 11 15 15 17C19 19 21.5 17 21.5 17" stroke="black" stroke-width="2" stroke-linecap="round" stroke-linejoin="round"/>
</svg>
