<svg width="32" height="32" viewBox="0 0 32 32" fill="none" xmlns="http://www.w3.org/2000/svg">
<path d="M5 7V22" stroke="black" stroke-width="2" stroke-linecap="round" stroke-linejoin="round"/>
<path d="M18 14.5H5" stroke="black" stroke-width="2" stroke-linecap="round" stroke-linejoin="round"/>
<path d="M18 7V22" stroke="black" stroke-width="2" stroke-linecap="round" stroke-linejoin="round"/>
<path d="M23.9996 13.499H29.9996L26.5004 18.5C27.076 18.5 27.6427 18.642 28.1503 18.9133C28.6579 19.1846 29.0908 19.5769 29.4106 20.0555C29.7303 20.5341 29.9272 21.0841 29.9836 21.6569C30.04 22.2298 29.9543 22.8076 29.734 23.3394C29.5137 23.8712 29.1657 24.3404 28.7208 24.7055C28.2759 25.0707 27.7478 25.3205 27.1832 25.4328C26.6187 25.545 26.0352 25.5164 25.4844 25.3493C24.9336 25.1822 24.4325 24.8819 24.0256 24.4749" stroke="black" stroke-width="2" stroke-linecap="round" stroke-linejoin="round"/>
</svg>
