<svg width="32" height="32" viewBox="0 0 32 32" fill="none" xmlns="http://www.w3.org/2000/svg">
<path d="M15 26C16.3807 26 17.5 24.8807 17.5 23.5C17.5 22.1193 16.3807 21 15 21C13.6193 21 12.5 22.1193 12.5 23.5C12.5 24.8807 13.6193 26 15 26Z" stroke="black" stroke-width="2" stroke-linecap="round" stroke-linejoin="round"/>
<path d="M15 21V6" stroke="black" stroke-width="2" stroke-linecap="round" stroke-linejoin="round"/>
<path d="M30.0354 10.0001C29.5666 10.4689 28.9307 10.7323 28.2677 10.7323C27.6046 10.7323 26.9687 10.4689 26.4999 10.0001C26.031 9.53121 25.3952 9.26782 24.7321 9.26782C24.0691 9.26782 23.4332 9.53121 22.9644 10.0001" stroke="black" stroke-width="2" stroke-linecap="round" stroke-linejoin="round"/>
<path d="M30.0354 15.0001C29.5666 15.4689 28.9307 15.7323 28.2677 15.7323C27.6046 15.7323 26.9687 15.4689 26.4999 15.0001C26.031 14.5312 25.3952 14.2678 24.7321 14.2678C24.0691 14.2678 23.4332 14.5312 22.9644 15.0001" stroke="black" stroke-width="2" stroke-linecap="round" stroke-linejoin="round"/>
<path d="M11 18.3782V6C11 4.93913 11.4214 3.92172 12.1716 3.17157C12.9217 2.42143 13.9391 2 15 2C16.0609 2 17.0783 2.42143 17.8284 3.17157C18.5786 3.92172 19 4.93913 19 6V18.3782L19.001 18.3769C20.0676 19.21 20.8476 20.3552 21.2321 21.6528C21.6166 22.9504 21.5866 24.3357 21.146 25.6153C20.7055 26.895 19.8766 28.0053 18.7748 28.7912C17.673 29.5772 16.3534 29.9996 15 29.9996C13.6466 29.9996 12.327 29.5772 11.2252 28.7912C10.1234 28.0053 9.29448 26.895 8.85396 25.6153C8.41345 24.3357 8.38336 22.9504 8.76789 21.6528C9.15243 20.3552 9.93241 19.21 10.999 18.3769L11 18.3782Z" stroke="black" stroke-width="2" stroke-linecap="round" stroke-linejoin="round"/>
</svg>
