<svg width="32" height="32" viewBox="0 0 32 32" fill="none" xmlns="http://www.w3.org/2000/svg">
<path d="M3.99927 6H9.99927V19H3.99927C3.73405 19 3.4797 18.8946 3.29216 18.7071C3.10462 18.5196 2.99927 18.2652 2.99927 18V7C2.99927 6.73478 3.10462 6.48043 3.29216 6.29289C3.4797 6.10536 3.73405 6 3.99927 6V6Z" stroke="black" stroke-width="2" stroke-linecap="round" stroke-linejoin="round"/>
<path d="M9.99927 19L14.9993 29C15.5246 29 16.0447 28.8965 16.53 28.6955C17.0153 28.4945 17.4563 28.1999 17.8277 27.8284C18.1991 27.457 18.4938 27.016 18.6948 26.5307C18.8958 26.0454 18.9993 25.5253 18.9993 25V22H26.7337C27.0173 22 27.2976 21.9397 27.5561 21.8231C27.8146 21.7065 28.0454 21.5362 28.2331 21.3236C28.4207 21.111 28.5611 20.8609 28.6447 20.59C28.7284 20.319 28.7534 20.0333 28.7183 19.7519L27.2183 7.75193C27.1578 7.26822 26.9228 6.82325 26.5573 6.50064C26.1919 6.17803 25.7212 6 25.2337 6H9.99927" stroke="black" stroke-width="2" stroke-linecap="round" stroke-linejoin="round"/>
</svg>
