<svg width="32" height="32" viewBox="0 0 32 32" fill="none" xmlns="http://www.w3.org/2000/svg">
<path d="M20.9999 13.2479C23.0384 14.7159 25.4879 15.504 28 15.5V10.5C26.1435 10.5 24.363 9.7625 23.0502 8.44975C21.7375 7.13699 21 5.35652 21 3.5H16V19.5C15.9998 20.1263 15.8316 20.7411 15.5129 21.2802C15.1942 21.8194 14.7366 22.2631 14.1879 22.5652C13.6393 22.8672 13.0196 23.0165 12.3936 22.9975C11.7676 22.9784 11.1581 22.7918 10.6288 22.4569C10.0995 22.1221 9.66978 21.6513 9.38441 21.0938C9.09904 20.5363 8.9685 19.9124 9.00641 19.2873C9.04432 18.6621 9.24929 18.0586 9.59993 17.5396C9.95057 17.0206 10.434 16.6053 10.9999 16.3369L11 11.1319C9.40823 11.4172 7.93085 12.1505 6.74123 13.2459C5.55161 14.3413 4.69912 15.7532 4.2838 17.3161C3.86847 18.879 3.90756 20.5279 4.39646 22.0693C4.88536 23.6108 5.8038 24.9808 7.04398 26.0186C8.28416 27.0564 9.79463 27.7189 11.3981 27.9284C13.0016 28.1379 14.6316 27.8856 16.0968 27.2013C17.5619 26.5169 18.8015 25.4288 19.67 24.0647C20.5385 22.7006 20.9999 21.1171 21 19.5L20.9999 13.2479Z" stroke="black" stroke-width="2" stroke-linecap="round" stroke-linejoin="round"/>
</svg>
