<svg width="32" height="32" viewBox="0 0 32 32" fill="none" xmlns="http://www.w3.org/2000/svg">
<path d="M26.105 27H5.89506C5.64896 27 5.41151 26.9093 5.22814 26.7451C5.04476 26.581 4.92835 26.355 4.90117 26.1104L3.1234 10.1104C3.10786 9.97065 3.12199 9.82917 3.16486 9.69522C3.20772 9.56127 3.27836 9.43787 3.37215 9.33308C3.46595 9.22828 3.58079 9.14445 3.70919 9.08706C3.83758 9.02967 3.97664 9 4.11728 9H27.8827C28.0234 9 28.1624 9.02967 28.2908 9.08706C28.4192 9.14445 28.5341 9.22828 28.6279 9.33308C28.7217 9.43787 28.7923 9.56127 28.8352 9.69522C28.878 9.82917 28.8922 9.97065 28.8766 10.1104L27.0989 26.1104C27.0717 26.355 26.9553 26.581 26.7719 26.7451C26.5885 26.9093 26.3511 27 26.105 27Z" stroke="black" stroke-width="2" stroke-linecap="round" stroke-linejoin="round"/>
<path d="M11 9C11 7.67392 11.5268 6.40215 12.4645 5.46447C13.4021 4.52678 14.6739 4 16 4C17.3261 4 18.5979 4.52678 19.5355 5.46447C20.4732 6.40215 21 7.67392 21 9" stroke="black" stroke-width="2" stroke-linecap="round" stroke-linejoin="round"/>
</svg>
