<svg width="32" height="32" viewBox="0 0 32 32" fill="none" xmlns="http://www.w3.org/2000/svg">
<path d="M26 5H6C5.44772 5 5 5.44772 5 6V26C5 26.5523 5.44772 27 6 27H26C26.5523 27 27 26.5523 27 26V6C27 5.44772 26.5523 5 26 5Z" stroke="black" stroke-width="2" stroke-linecap="round" stroke-linejoin="round"/>
<path d="M4.99927 20H9.58505C9.71638 20 9.84641 20.0259 9.96774 20.0761C10.0891 20.1264 10.1993 20.2 10.2922 20.2929L12.7064 22.7071C12.7992 22.8 12.9095 22.8736 13.0308 22.9239C13.1521 22.9741 13.2822 23 13.4135 23H18.5851C18.7164 23 18.8464 22.9741 18.9677 22.9239C19.0891 22.8736 19.1993 22.8 19.2922 22.7071L21.7064 20.2929C21.7992 20.2 21.9095 20.1264 22.0308 20.0761C22.1521 20.0259 22.2822 20 22.4135 20H26.9993" stroke="black" stroke-width="2" stroke-linecap="round" stroke-linejoin="round"/>
</svg>
