<svg width="32" height="32" viewBox="0 0 32 32" fill="none" xmlns="http://www.w3.org/2000/svg">
<path d="M16 29V11" stroke="black" stroke-width="2" stroke-linecap="round" stroke-linejoin="round"/>
<path d="M16 19L10 16" stroke="black" stroke-width="2" stroke-linecap="round" stroke-linejoin="round"/>
<path d="M16 16L22 13" stroke="black" stroke-width="2" stroke-linecap="round" stroke-linejoin="round"/>
<path d="M16.5594 22.6533C17.4772 23.2659 18.5119 23.6821 19.5983 23.8755C20.6848 24.0689 21.7995 24.0355 22.8723 23.7772C23.9452 23.519 24.9531 23.0416 25.8325 22.375C26.7119 21.7085 27.444 20.8671 27.9825 19.904C28.5211 18.9408 28.8545 17.8766 28.9619 16.7783C29.0693 15.6801 28.9483 14.5714 28.6065 13.5222C28.2647 12.473 27.7095 11.5058 26.9759 10.6815C26.2422 9.85717 25.3459 9.19358 24.3434 8.73243C24.1165 8.62787 23.937 8.44203 23.8404 8.21162C23.1921 6.66734 22.1021 5.34892 20.7072 4.42176C19.3124 3.4946 17.6748 3 15.9999 3C14.325 3 12.6874 3.4946 11.2926 4.42176C9.89775 5.34892 8.80776 6.66734 8.15937 8.21162C8.0628 8.44204 7.88336 8.62787 7.65646 8.73244C6.65375 9.19349 5.75728 9.85703 5.02344 10.6813C4.2896 11.5056 3.73427 12.4729 3.39236 13.5222C3.05045 14.5715 2.92936 15.6802 3.03672 16.7786C3.14407 17.877 3.47754 18.9413 4.01616 19.9046C4.55478 20.8679 5.28689 21.7093 6.16645 22.3759C7.04601 23.0425 8.05399 23.5199 9.12699 23.7781C10.2 24.0362 11.3148 24.0696 12.4013 23.876C13.4879 23.6824 14.5226 23.2662 15.4404 22.6533C15.6059 22.5423 15.8006 22.483 15.9999 22.483C16.1992 22.483 16.3939 22.5423 16.5594 22.6533Z" stroke="black" stroke-width="2" stroke-linecap="round" stroke-linejoin="round"/>
</svg>
