<svg width="32" height="32" viewBox="0 0 32 32" fill="none" xmlns="http://www.w3.org/2000/svg">
<path d="M16 11.0004C16.0001 9.85156 16.3957 8.73783 17.1204 7.84641C17.845 6.95498 18.8545 6.34023 19.9791 6.10551C21.1036 5.87078 22.2747 6.0304 23.2954 6.55752C24.3162 7.08464 25.1243 7.94712 25.5839 8.99996L30 9L25.9672 13.0328C25.7046 17.089 23.9081 20.8933 20.9426 23.6731C17.977 26.4529 14.0647 27.9999 10 28C6 28 5 26.5 5 26.5C5 26.5 9 25 11 22C11 22 3 18 5 7C5 7 10 12 15.9983 13L16 11.0004Z" stroke="black" stroke-width="2" stroke-linecap="round" stroke-linejoin="round"/>
</svg>
