<svg width="20" height="20" viewBox="0 0 20 20" fill="none" xmlns="http://www.w3.org/2000/svg">
<path d="M19.1955 6.07032L16.8361 8.42189C16.3674 13.8828 11.758 18.125 6.25021 18.125C5.1174 18.125 4.1799 17.9453 3.46896 17.5938C2.89865 17.3047 2.66427 17 2.60177 16.9063C2.55006 16.8277 2.51674 16.7385 2.50429 16.6453C2.49184 16.5521 2.50058 16.4573 2.52987 16.3679C2.55916 16.2786 2.60823 16.197 2.67343 16.1292C2.73864 16.0614 2.81829 16.0093 2.90646 15.9766C2.92208 15.9688 4.76583 15.2656 5.96115 13.9141C5.21985 13.3863 4.5683 12.7426 4.03146 12.0078C2.96115 10.5547 1.82833 8.03126 2.50802 4.26564C2.52939 4.15369 2.58059 4.04959 2.65622 3.96433C2.73185 3.87907 2.82911 3.81582 2.93771 3.78126C3.04666 3.74559 3.16332 3.74057 3.27493 3.76675C3.38654 3.79293 3.4888 3.8493 3.57052 3.9297C3.59396 3.96095 6.19552 6.52345 9.37521 7.35157V6.87501C9.37828 6.37947 9.47892 5.88939 9.67139 5.43275C9.86387 4.97611 10.1444 4.56185 10.497 4.21363C10.8495 3.86541 11.2673 3.59005 11.7263 3.40326C12.1853 3.21647 12.6765 3.12192 13.1721 3.12501C13.8225 3.13429 14.4594 3.31187 15.0207 3.64047C15.582 3.96906 16.0487 4.43745 16.3752 5.00001H18.7502C18.8736 4.99963 18.9943 5.03577 19.0972 5.1039C19.2001 5.17202 19.2805 5.26907 19.3283 5.38282C19.3734 5.49827 19.3848 5.6241 19.3613 5.74577C19.3378 5.86743 19.2803 5.97996 19.1955 6.07032Z" fill="#C4C4C4"/>
</svg>
