<svg width="32" height="32" viewBox="0 0 32 32" fill="none" xmlns="http://www.w3.org/2000/svg">
<path d="M16 20C18.7614 20 21 17.7614 21 15C21 12.2386 18.7614 10 16 10C13.2386 10 11 12.2386 11 15C11 17.7614 13.2386 20 16 20Z" stroke="black" stroke-width="2" stroke-miterlimit="10"/>
<path d="M7.97485 24.9218C8.72812 23.4408 9.8765 22.1971 11.2929 21.3284C12.7093 20.4598 14.3384 20 16 20C17.6615 20 19.2906 20.4598 20.707 21.3284C22.1234 22.1971 23.2718 23.4407 24.0251 24.9217" stroke="black" stroke-width="2" stroke-linecap="round" stroke-linejoin="round"/>
<path d="M22 7H28" stroke="black" stroke-width="2" stroke-linecap="round" stroke-linejoin="round"/>
<path d="M27.3172 12C28.1904 14.4756 28.2269 17.1694 27.4211 19.6677C26.6152 22.166 25.0116 24.3307 22.8565 25.8295C20.7013 27.3283 18.1138 28.0782 15.4912 27.9641C12.8686 27.8501 10.356 26.8783 8.33912 25.1981C6.32224 23.5178 4.91265 21.222 4.32679 18.6632C3.74092 16.1043 4.01118 13.4239 5.09606 11.0335C6.18093 8.6431 8.02045 6.67488 10.3321 5.43108C12.6438 4.18727 15.2999 3.73665 17.8925 4.1484" stroke="black" stroke-width="2" stroke-linecap="round" stroke-linejoin="round"/>
</svg>
