<svg width="32" height="32" viewBox="0 0 32 32" fill="none" xmlns="http://www.w3.org/2000/svg">
<path d="M16 20C18.7614 20 21 17.7614 21 15C21 12.2386 18.7614 10 16 10C13.2386 10 11 12.2386 11 15C11 17.7614 13.2386 20 16 20Z" stroke="black" stroke-width="2" stroke-miterlimit="10"/>
<path d="M7.97485 24.9218C8.72812 23.4408 9.8765 22.1971 11.2929 21.3284C12.7093 20.4598 14.3384 20 16 20C17.6615 20 19.2906 20.4598 20.707 21.3284C22.1234 22.1971 23.2718 23.4407 24.0251 24.9217" stroke="black" stroke-width="2" stroke-linecap="round" stroke-linejoin="round"/>
<path d="M22 7H28" stroke="black" stroke-width="2" stroke-linecap="round" stroke-linejoin="round"/>
<path d="M25 4V10" stroke="black" stroke-width="2" stroke-linecap="round" stroke-linejoin="round"/>
<path d="M27.8516 14.1072C28.2488 16.6079 27.844 19.1702 26.6953 21.4267C25.5465 23.6831 23.7128 25.5179 21.4569 26.6679C19.2011 27.818 16.6391 28.2242 14.1382 27.8284C11.6373 27.4325 9.32589 26.255 7.53546 24.4646C5.74503 22.6741 4.5675 20.3628 4.17168 17.8618C3.77587 15.3609 4.1821 12.7989 5.33213 10.5431C6.48217 8.28727 8.31695 6.45353 10.5734 5.30477C12.8299 4.15601 15.3921 3.75122 17.8928 4.14845" stroke="black" stroke-width="2" stroke-linecap="round" stroke-linejoin="round"/>
</svg>
