<svg width="32" height="32" viewBox="0 0 32 32" fill="none" xmlns="http://www.w3.org/2000/svg">
<path d="M13.5 20C17.6421 20 21 16.6421 21 12.5C21 8.35786 17.6421 5 13.5 5C9.35786 5 6 8.35786 6 12.5C6 16.6421 9.35786 20 13.5 20Z" stroke="black" stroke-width="2" stroke-miterlimit="10"/>
<path d="M2.776 24.9997C4.09017 23.434 5.73124 22.1751 7.58392 21.3113C9.43659 20.4476 11.4559 20 13.5001 20C15.5442 20 17.5635 20.4476 19.4162 21.3114C21.2689 22.1751 22.9099 23.4341 24.2241 24.9998" stroke="black" stroke-width="2" stroke-linecap="round" stroke-linejoin="round"/>
<path d="M27.5 19C28.6046 19 29.5 18.1046 29.5 17C29.5 15.8954 28.6046 15 27.5 15C26.3954 15 25.5 15.8954 25.5 17C25.5 18.1046 26.3954 19 27.5 19Z" stroke="black" stroke-width="2" stroke-linecap="round" stroke-linejoin="round"/>
<path d="M27.5 15V13.5" stroke="black" stroke-width="2" stroke-linecap="round" stroke-linejoin="round"/>
<path d="M25.7679 16L24.4689 15.25" stroke="black" stroke-width="2" stroke-linecap="round" stroke-linejoin="round"/>
<path d="M25.7679 18L24.4689 18.75" stroke="black" stroke-width="2" stroke-linecap="round" stroke-linejoin="round"/>
<path d="M27.5 19V20.5" stroke="black" stroke-width="2" stroke-linecap="round" stroke-linejoin="round"/>
<path d="M29.2321 18L30.5311 18.75" stroke="black" stroke-width="2" stroke-linecap="round" stroke-linejoin="round"/>
<path d="M29.2321 16L30.5311 15.25" stroke="black" stroke-width="2" stroke-linecap="round" stroke-linejoin="round"/>
</svg>
