<svg width="32" height="32" viewBox="0 0 32 32" fill="none" xmlns="http://www.w3.org/2000/svg">
<path d="M11.986 7.5C13.3667 7.5 14.486 6.38071 14.486 5C14.486 3.61929 13.3667 2.5 11.986 2.5C10.6053 2.5 9.48596 3.61929 9.48596 5C9.48596 6.38071 10.6053 7.5 11.986 7.5Z" stroke="black" stroke-width="2" stroke-linecap="round" stroke-linejoin="round"/>
<path d="M11.9858 7.5V16.5H22.9858L26.9858 24.5L29.9858 23.5" stroke="black" stroke-width="2" stroke-linecap="round" stroke-linejoin="round"/>
<path d="M20.9706 20.5C20.873 22.0579 20.3219 23.5533 19.385 24.8018C18.4481 26.0504 17.1664 26.9976 15.6978 27.5267C14.2292 28.0558 12.638 28.1437 11.12 27.7796C9.60212 27.4155 8.22388 26.6153 7.15513 25.4775C6.08639 24.3398 5.37384 22.9143 5.10527 21.3766C4.8367 19.8389 5.02385 18.2562 5.64366 16.8235C6.26347 15.3909 7.28886 14.1709 8.59349 13.3138C9.89811 12.4567 11.425 12 12.986 12H19.986" stroke="black" stroke-width="2" stroke-linecap="round" stroke-linejoin="round"/>
</svg>
