<svg width="32" height="32" viewBox="0 0 32 32" fill="none" xmlns="http://www.w3.org/2000/svg">
<path d="M11.615 20.7576C12.7959 19.6297 14.366 19.0002 15.9991 19.0002C17.6321 19.0002 19.2022 19.6297 20.3831 20.7576" stroke="black" stroke-width="2" stroke-linecap="round" stroke-linejoin="round"/>
<path d="M28 7L22 13" stroke="black" stroke-width="2" stroke-linecap="round" stroke-linejoin="round"/>
<path d="M28 13L22 7" stroke="black" stroke-width="2" stroke-linecap="round" stroke-linejoin="round"/>
<path d="M3.13306 12.2724C6.55729 8.88498 11.1825 6.98972 15.9991 7.00029C16.6679 7.00016 17.3361 7.03612 18.001 7.10799" stroke="black" stroke-width="2" stroke-linecap="round" stroke-linejoin="round"/>
<path d="M7.37231 16.515C9.67373 14.2545 12.7731 12.9917 15.999 13.0003C16.6702 13 17.3403 13.0539 18.0027 13.1614" stroke="black" stroke-width="2" stroke-linecap="round" stroke-linejoin="round"/>
<path d="M16 26.5C16.8284 26.5 17.5 25.8284 17.5 25C17.5 24.1716 16.8284 23.5 16 23.5C15.1716 23.5 14.5 24.1716 14.5 25C14.5 25.8284 15.1716 26.5 16 26.5Z" fill="black"/>
</svg>
