<svg width="32" height="32" viewBox="0 0 32 32" fill="none" xmlns="http://www.w3.org/2000/svg">
<path d="M6 5L26 27" stroke="black" stroke-width="2" stroke-linecap="round" stroke-linejoin="round"/>
<path d="M13.3911 7.18377C14.255 7.06134 15.1264 7.00003 15.9989 7.00029C20.8155 6.98973 25.4407 8.88498 28.865 12.2724" stroke="black" stroke-width="2" stroke-linecap="round" stroke-linejoin="round"/>
<path d="M3.13306 12.2725C4.83108 10.5926 6.84257 9.26278 9.05325 8.3584" stroke="black" stroke-width="2" stroke-linecap="round" stroke-linejoin="round"/>
<path d="M19.0149 13.3699C21.1322 13.8991 23.0694 14.9851 24.6257 16.5151" stroke="black" stroke-width="2" stroke-linecap="round" stroke-linejoin="round"/>
<path d="M7.37231 16.5151C9.05755 14.8583 11.1865 13.725 13.5019 13.252" stroke="black" stroke-width="2" stroke-linecap="round" stroke-linejoin="round"/>
<path d="M11.615 20.7576C12.7423 19.6815 14.2258 19.0574 15.7833 19.004C17.3409 18.9506 18.8637 19.4716 20.062 20.468" stroke="black" stroke-width="2" stroke-linecap="round" stroke-linejoin="round"/>
<path d="M16 26.5C16.8284 26.5 17.5 25.8284 17.5 25C17.5 24.1716 16.8284 23.5 16 23.5C15.1716 23.5 14.5 24.1716 14.5 25C14.5 25.8284 15.1716 26.5 16 26.5Z" fill="black"/>
</svg>
