<svg width="32" height="32" viewBox="0 0 32 32" fill="none" xmlns="http://www.w3.org/2000/svg">
<path d="M23.1239 4.63351L17.8787 9.87875L18.5858 13.4143L22.1213 14.1214L27.3666 8.87615L27.3671 8.87594C28.0163 10.4085 28.1716 12.1053 27.8113 13.7302C27.451 15.3551 26.593 16.8273 25.3569 17.9418C24.1207 19.0563 22.5678 19.7576 20.9144 19.9482C19.261 20.1388 17.5892 19.8091 16.1319 19.0051L16.1321 19.0049L9.12133 27.1214C8.55861 27.6835 7.79572 27.9991 7.00037 27.9989C6.20501 27.9986 5.4423 27.6826 4.8799 27.1202C4.3175 26.5578 4.00145 25.7951 4.00122 24.9997C4.00099 24.2044 4.31661 23.4415 4.87869 22.8787L12.9951 15.8681L12.9949 15.8682C12.1909 14.4108 11.8613 12.7391 12.0519 11.0857C12.2425 9.43225 12.9438 7.87937 14.0583 6.64321C15.1728 5.40704 16.6449 4.5491 18.2699 4.1888C19.8948 3.8285 21.5916 3.98377 23.1241 4.633L23.1239 4.63351Z" stroke="black" stroke-width="2" stroke-linecap="round" stroke-linejoin="round"/>
</svg>
