<svg width="30" height="40" viewBox="0 0 30 40" fill="none" xmlns="http://www.w3.org/2000/svg">
<path d="M0.5 36V4C0.5 2.067 2.067 0.5 4 0.5H17.9C18.7987 0.5 19.663 0.845712 20.3138 1.46552L28.4138 9.1798C29.1074 9.8404 29.5 10.7564 29.5 11.7143V36C29.5 37.933 27.933 39.5 26 39.5H4C2.067 39.5 0.5 37.933 0.5 36Z" fill="white" stroke="#E5E9EB"/>
<path d="M8.48 20.33L6.16 24H7.91L9.35 21.55L10.72 24H12.55L10.21 20.27L12.41 16.8H10.67L9.35 19.14L8.07 16.8H6.27L8.48 20.33ZM14.4899 22.71V16.8H12.9799V24H18.0499V22.71H14.4899ZM19.7332 21.78H18.3032C18.3032 22.53 18.5632 23.12 19.1032 23.54C19.6432 23.97 20.3832 24.19 21.3132 24.19C22.2332 24.19 22.9432 23.97 23.4532 23.53C23.9532 23.1 24.2032 22.55 24.2032 21.9C24.2032 21.26 23.9832 20.76 23.5532 20.43C23.2832 20.21 22.8732 20.04 22.3232 19.9L21.0832 19.61C20.6032 19.49 20.2932 19.39 20.1532 19.31C19.9232 19.18 19.8032 18.99 19.8032 18.73C19.8032 18.45 19.9232 18.23 20.1532 18.08C20.3832 17.92 20.6932 17.84 21.0832 17.84C21.4232 17.84 21.7232 17.9 21.9532 18.02C22.3032 18.2 22.4932 18.51 22.5232 18.95H23.9632C23.9432 18.18 23.6632 17.6 23.1232 17.19C22.5932 16.79 21.9432 16.59 21.1832 16.59C20.2732 16.59 19.5832 16.81 19.1232 17.23C18.6532 17.66 18.4132 18.19 18.4132 18.84C18.4132 19.55 18.6632 20.06 19.1432 20.4C19.4332 20.6 19.9532 20.78 20.6932 20.95L21.4532 21.12C21.9032 21.22 22.2332 21.33 22.4432 21.46C22.6532 21.59 22.7532 21.77 22.7532 22.01C22.7532 22.41 22.5432 22.69 22.1232 22.84C21.9032 22.92 21.6132 22.96 21.2532 22.96C20.6632 22.96 20.2432 22.81 20.0032 22.52C19.8732 22.35 19.7732 22.11 19.7332 21.78Z" fill="#47D16C"/>
</svg>
