<svg width="160" height="24" viewBox="0 0 160 24" fill="none" xmlns="http://www.w3.org/2000/svg">
<path d="M34.8626 12.9558C30.6043 14.4424 27.238 18.537 26.4409 23.6534C26.4137 23.8281 26.5519 23.9877 26.7278 23.9877H30.1374C31.3071 23.9877 32.3271 23.1859 32.6102 22.0441L34.8626 12.9558Z" fill="#FF5100"/>
<path d="M13.7799 23.5806C13.698 23.7711 13.8402 23.9874 14.0467 23.9874H21.1035C21.3143 23.9874 21.497 23.8468 21.5573 23.6435C23.3458 17.613 27.9209 12.7848 34.9327 11.345C35.1425 11.3022 35.3111 11.1444 35.3632 10.9355L35.7652 9.32007C26.7649 9.75369 17.7893 14.2405 13.7799 23.5806Z" fill="#FF5100"/>
<path d="M37.156 3.68063L37.5081 2.28589H26.7462H15.9844H7.46602C6.14821 2.28589 5.00012 3.18912 4.68303 4.47569L3.40015 9.67962C3.31159 10.039 3.66945 10.3394 4.00648 10.1899C12.9293 6.23191 24.3254 4.15397 36.6133 4.10498C36.8695 4.10404 37.0929 3.93024 37.156 3.68063Z" fill="#FF5100"/>
<path d="M1.53396 17.1761L0.421128 21.7024C0.135566 22.8643 1.00971 23.9875 2.19944 23.9875H7.50498C7.74763 23.9875 7.96641 23.8467 8.07274 23.6279C12.5544 14.4153 21.8219 8.3393 35.7616 7.69711C36.0077 7.68569 36.2194 7.51468 36.2779 7.27429L36.6468 5.76245C21.8608 5.92299 10.9384 9.49679 2.17463 16.1894C1.85505 16.4338 1.63016 16.7842 1.53396 17.1761Z" fill="#FF5100"/>
<path d="M45.064 12H43.264L45.1 3.384H46.9L46.156 6.888L50.188 3.384H52.516L48.244 6.912L50.884 12H48.568L46.708 8.22L45.688 9.084L45.064 12ZM57.4322 3.156C58.2242 3.156 58.9002 3.332 59.4602 3.684C60.3242 4.228 60.7562 5.108 60.7562 6.324C60.7562 6.74 60.7042 7.196 60.6002 7.692C60.3362 8.924 59.8562 9.916 59.1602 10.668C58.6082 11.252 57.9362 11.68 57.1442 11.952C56.6002 12.136 56.0522 12.228 55.5002 12.228C54.7002 12.228 54.0202 12.052 53.4602 11.7C52.5962 11.156 52.1642 10.272 52.1642 9.048C52.1642 8.632 52.2162 8.18 52.3202 7.692C52.5842 6.46 53.0682 5.468 53.7722 4.716C54.3242 4.124 54.9962 3.696 55.7882 3.432C56.3322 3.248 56.8802 3.156 57.4322 3.156ZM55.8242 10.704C56.4322 10.704 56.9842 10.504 57.4802 10.104C58.1362 9.576 58.5762 8.772 58.8002 7.692C58.8802 7.316 58.9202 6.964 58.9202 6.636C58.9202 5.948 58.7202 5.432 58.3202 5.088C58.0002 4.816 57.5962 4.68 57.1082 4.68C56.5002 4.68 55.9482 4.88 55.4522 5.28C54.7962 5.808 54.3522 6.612 54.1202 7.692C54.0402 8.068 54.0002 8.412 54.0002 8.724C54.0002 9.436 54.2002 9.96 54.6002 10.296C54.9202 10.568 55.3282 10.704 55.8242 10.704ZM62.932 12H61.132L62.968 3.384H66.904C67.6 3.384 68.136 3.56 68.512 3.912C68.888 4.264 69.076 4.752 69.076 5.376C69.076 5.528 69.072 5.648 69.064 5.736C69.056 5.824 69.032 5.96 68.992 6.144C68.856 6.768 68.572 7.324 68.14 7.812C67.5 8.532 66.672 8.892 65.656 8.892H63.592L62.932 12ZM65.572 7.404C66.148 7.404 66.576 7.228 66.856 6.876C67.008 6.684 67.124 6.412 67.204 6.06C67.228 5.924 67.24 5.804 67.24 5.7C67.24 5.42 67.128 5.212 66.904 5.076C66.688 4.94 66.344 4.872 65.872 4.872H64.444L63.904 7.404H65.572ZM72.3879 4.908L70.8759 12H69.0759L70.9119 3.384H77.8719L76.0359 12H74.2359L75.7479 4.908H72.3879ZM83.4361 3.156C84.2281 3.156 84.9041 3.332 85.4641 3.684C86.3281 4.228 86.7601 5.108 86.7601 6.324C86.7601 6.74 86.7081 7.196 86.6041 7.692C86.3401 8.924 85.8601 9.916 85.1641 10.668C84.6121 11.252 83.9401 11.68 83.1481 11.952C82.6041 12.136 82.0561 12.228 81.5041 12.228C80.7041 12.228 80.0241 12.052 79.4641 11.7C78.6001 11.156 78.1681 10.272 78.1681 9.048C78.1681 8.632 78.2201 8.18 78.3241 7.692C78.5881 6.46 79.0721 5.468 79.7761 4.716C80.3281 4.124 81.0001 3.696 81.7921 3.432C82.3361 3.248 82.8841 3.156 83.4361 3.156ZM81.8281 10.704C82.4361 10.704 82.9881 10.504 83.4841 10.104C84.1401 9.576 84.5801 8.772 84.8041 7.692C84.8841 7.316 84.9241 6.964 84.9241 6.636C84.9241 5.948 84.7241 5.432 84.3241 5.088C84.0041 4.816 83.6001 4.68 83.1121 4.68C82.5041 4.68 81.9521 4.88 81.4561 5.28C80.8001 5.808 80.3561 6.612 80.1241 7.692C80.0441 8.068 80.0041 8.412 80.0041 8.724C80.0041 9.436 80.2041 9.96 80.6041 10.296C80.9241 10.568 81.3321 10.704 81.8281 10.704ZM88.9359 12H87.1359L88.9719 3.384H92.9079C93.6039 3.384 94.1399 3.56 94.5159 3.912C94.8919 4.264 95.0799 4.752 95.0799 5.376C95.0799 5.528 95.0759 5.648 95.0679 5.736C95.0599 5.824 95.0359 5.96 94.9959 6.144C94.8599 6.768 94.5759 7.324 94.1439 7.812C93.5039 8.532 92.6759 8.892 91.6599 8.892H89.5959L88.9359 12ZM91.5759 7.404C92.1519 7.404 92.5799 7.228 92.8599 6.876C93.0119 6.684 93.1279 6.412 93.2079 6.06C93.2319 5.924 93.2439 5.804 93.2439 5.7C93.2439 5.42 93.1319 5.212 92.9079 5.076C92.6919 4.94 92.3479 4.872 91.8759 4.872H90.4479L89.9079 7.404H91.5759ZM96.3638 12H94.4678L99.3758 3.384H101.452L102.652 12H100.696L100.516 10.224H97.3358L96.3638 12ZM98.1398 8.736H100.336L99.9878 5.328L98.1398 8.736ZM107.46 12H105.66L107.172 4.908H104.568L104.892 3.384H111.9L111.576 4.908H108.972L107.46 12ZM113.272 9.384L118 3.384H119.896L118.06 12H116.38L117.688 5.856L112.84 12H111.04L112.876 3.384H114.556L113.272 9.384ZM121.632 3.384H125.82C126.628 3.384 127.22 3.572 127.596 3.948C127.9 4.252 128.052 4.648 128.052 5.136C128.052 5.264 128.048 5.36 128.04 5.424C128.016 5.504 128.004 5.56 128.004 5.592C127.892 6.12 127.668 6.544 127.332 6.864C127.14 7.048 126.884 7.212 126.564 7.356C126.9 7.5 127.144 7.696 127.296 7.944C127.448 8.192 127.524 8.48 127.524 8.808C127.524 9.016 127.5 9.228 127.452 9.444C127.3 10.148 126.928 10.74 126.336 11.22C126 11.492 125.664 11.68 125.328 11.784C124.88 11.928 124.252 12 123.444 12H119.796L121.632 3.384ZM121.836 10.512H124.044C124.484 10.512 124.844 10.412 125.124 10.212C125.412 10.004 125.604 9.684 125.7 9.252C125.716 9.14 125.724 9.06 125.724 9.012C125.724 8.748 125.616 8.548 125.4 8.412C125.192 8.276 124.932 8.208 124.62 8.208H122.328L121.836 10.512ZM122.64 6.756H124.752C125.136 6.756 125.452 6.684 125.7 6.54C125.98 6.372 126.156 6.124 126.228 5.796C126.244 5.756 126.252 5.712 126.252 5.664C126.252 5.616 126.252 5.58 126.252 5.556C126.252 5.308 126.152 5.132 125.952 5.028C125.76 4.924 125.476 4.872 125.1 4.872H123.036L122.64 6.756ZM131.012 8.136L130.196 12H128.396L130.232 3.384H132.032L131.336 6.648H134.696L135.392 3.384H137.192L135.356 12H133.556L134.372 8.136H131.012ZM140.092 6.492H142.156C142.98 6.492 143.58 6.736 143.956 7.224C144.236 7.592 144.376 8.064 144.376 8.64C144.376 8.784 144.372 8.892 144.364 8.964C144.356 9.036 144.34 9.128 144.316 9.24C144.132 10.088 143.748 10.76 143.164 11.256C142.588 11.752 141.884 12 141.052 12H137.116L138.952 3.384H140.752L140.092 6.492ZM146.62 12H144.82L146.656 3.384H148.456L146.62 12ZM139.768 7.98L139.228 10.512H140.656C141.216 10.512 141.64 10.42 141.928 10.236C142.224 10.044 142.412 9.74 142.492 9.324C142.508 9.212 142.52 9.116 142.528 9.036C142.544 8.948 142.552 8.892 142.552 8.868C142.552 8.612 142.484 8.412 142.348 8.268C142.164 8.076 141.86 7.98 141.436 7.98H139.768ZM150.584 9.384L155.312 3.384H157.208L155.372 12H153.692L155 5.856L150.152 12H148.352L150.188 3.384H151.868L150.584 9.384ZM156.2 1.608C156.072 2.04 155.86 2.4 155.564 2.688C155.1 3.136 154.476 3.36 153.692 3.36C153.092 3.36 152.664 3.188 152.408 2.844C152.224 2.596 152.132 2.28 152.132 1.896C152.132 1.8 152.14 1.704 152.156 1.608H152.948C152.948 1.848 152.988 2.024 153.068 2.136C153.22 2.344 153.516 2.448 153.956 2.448C154.324 2.448 154.6 2.408 154.784 2.328C155.072 2.208 155.284 1.968 155.42 1.608H156.2ZM48.8 23L50.32 15.82H44.68L43.16 23H44.12L45.46 16.66H49.18L47.84 23H48.8ZM57.5968 18.58C57.5968 18.15 57.5268 17.75 57.4068 17.38C57.2868 17.03 57.0968 16.72 56.8568 16.46C56.6168 16.2 56.3168 16 55.9668 15.86C55.6068 15.71 55.1968 15.64 54.7368 15.64C54.3168 15.64 53.9368 15.7 53.5768 15.81C53.2168 15.92 52.8968 16.08 52.6068 16.28C52.3168 16.48 52.0568 16.72 51.8368 16.99C51.6168 17.27 51.4268 17.57 51.2768 17.9C51.1268 18.22 51.0168 18.58 50.9368 18.94C50.8568 19.31 50.8168 19.68 50.8168 20.07C50.8168 20.59 50.8868 21.04 51.0368 21.43C51.1768 21.82 51.3668 22.14 51.6268 22.4C51.8868 22.66 52.1868 22.85 52.5468 22.99C52.9068 23.12 53.3068 23.18 53.7368 23.18C54.1368 23.18 54.5068 23.13 54.8468 23.01C55.1968 22.9 55.5068 22.74 55.7968 22.54C56.0768 22.34 56.3368 22.09 56.5568 21.81C56.7768 21.53 56.9668 21.21 57.1268 20.87C57.2768 20.53 57.3968 20.16 57.4768 19.78C57.5568 19.39 57.5968 19 57.5968 18.58ZM56.6368 18.69C56.6368 18.92 56.6168 19.17 56.5668 19.44C56.5168 19.71 56.4468 19.98 56.3468 20.25C56.2468 20.52 56.1168 20.79 55.9668 21.04C55.8168 21.29 55.6368 21.51 55.4268 21.7C55.2168 21.9 54.9768 22.05 54.7068 22.17C54.4368 22.28 54.1468 22.34 53.8168 22.34C53.5268 22.34 53.2668 22.3 53.0168 22.22C52.7668 22.14 52.5468 22.01 52.3668 21.83C52.1868 21.66 52.0368 21.43 51.9368 21.14C51.8268 20.86 51.7768 20.51 51.7768 20.11C51.7768 19.79 51.8068 19.48 51.8668 19.18C51.9168 18.88 51.9968 18.59 52.1068 18.32C52.2168 18.05 52.3468 17.81 52.5068 17.58C52.6768 17.36 52.8568 17.16 53.0668 17C53.2768 16.84 53.5068 16.71 53.7568 16.62C54.0168 16.53 54.2868 16.48 54.5868 16.48C54.9568 16.48 55.2768 16.54 55.5368 16.64C55.7968 16.75 56.0068 16.9 56.1668 17.09C56.3268 17.29 56.4568 17.52 56.5268 17.79C56.5968 18.06 56.6368 18.36 56.6368 18.69ZM59.89 15.82L58.37 23H59.33L59.96 20.02H62.25C62.64 20.02 62.98 19.95 63.27 19.82C63.55 19.68 63.79 19.5 63.97 19.28C64.15 19.06 64.29 18.81 64.38 18.52C64.46 18.23 64.51 17.94 64.51 17.64C64.51 17.35 64.46 17.1 64.37 16.87C64.28 16.65 64.15 16.46 63.97 16.3C63.79 16.14 63.57 16.03 63.3 15.94C63.03 15.86 62.72 15.82 62.36 15.82H59.89ZM62.11 19.18H60.14L60.67 16.66H62.28C62.51 16.66 62.71 16.69 62.87 16.74C63.03 16.79 63.16 16.86 63.26 16.96C63.37 17.05 63.44 17.17 63.48 17.31C63.53 17.45 63.55 17.6 63.55 17.78C63.55 17.86 63.54 17.95 63.53 18.04C63.51 18.14 63.48 18.24 63.44 18.35C63.4 18.45 63.34 18.55 63.27 18.65C63.2 18.75 63.11 18.84 63.01 18.92C62.9 19 62.78 19.06 62.63 19.11C62.48 19.16 62.31 19.18 62.11 19.18ZM65.6499 15.82L65.4699 16.66H67.7099L66.3099 23H67.2699L68.6699 16.66H70.6299L70.8099 15.82H65.6499ZM75.2366 23H76.1966L75.0166 15.82H73.7966L69.8866 23H70.9666L72.0166 20.93H74.9266L75.2366 23ZM72.4466 20.15L74.2566 16.72H74.2666L74.7966 20.15H72.4466ZM78.9665 20.83L80.0065 16.66H82.6265L81.2865 23H82.2465L83.7665 15.82H79.2165L78.1865 19.96C78.1065 20.29 78.0265 20.59 77.9565 20.84C77.8965 21.09 77.8265 21.3 77.7665 21.48C77.7065 21.66 77.6465 21.8 77.5865 21.91C77.5265 22.02 77.4665 22.11 77.4065 22.17C77.3365 22.23 77.2665 22.28 77.1865 22.3C77.1065 22.33 77.0265 22.34 76.9265 22.34C76.8365 22.34 76.7465 22.33 76.6865 22.31C76.6165 22.29 76.5365 22.26 76.4465 22.23L76.2765 23.01C76.3765 23.06 76.4965 23.1 76.6265 23.14C76.7565 23.17 76.8765 23.18 76.9765 23.18C77.2965 23.18 77.5565 23.13 77.7665 23.02C77.9765 22.91 78.1565 22.75 78.3065 22.55C78.4565 22.35 78.5765 22.1 78.6765 21.81C78.7765 21.52 78.8765 21.19 78.9665 20.83Z" fill="#404040"/>
</svg>
