<svg width="357" height="56" viewBox="0 0 357 56" fill="none" xmlns="http://www.w3.org/2000/svg">
<path d="M243.046 29.9464C244.018 29.9464 244.618 29.7519 245.286 29.2749C245.239 30.4947 244.348 31.3112 244.348 31.3112L243.046 29.9464Z" fill="black"/>
<path d="M89.4981 27.8867C78.5664 31.6707 69.9245 42.0932 67.8785 55.1167C67.8086 55.5616 68.1633 55.9678 68.6148 55.9678H77.3676C80.3708 55.9678 82.9892 53.9268 83.716 51.0205L89.4981 27.8867Z" fill="black"/>
<path d="M35.3753 54.9318C35.1653 55.4166 35.5303 55.9673 36.0604 55.9673H54.1765C54.7176 55.9673 55.1864 55.6096 55.3414 55.0919C59.9325 39.7418 71.6775 27.4516 89.678 23.7868C90.2168 23.6778 90.6494 23.2762 90.783 22.7443L91.815 18.6325C68.7098 19.7362 45.6682 31.1572 35.3753 54.9318Z" fill="black"/>
<path d="M95.3854 4.27736L96.2892 0.727112H68.662H41.0349H19.1669C15.7839 0.727112 12.8367 3.02622 12.0225 6.30113L8.72918 19.5475C8.50186 20.4621 9.42056 21.2269 10.2857 20.8465C33.1921 10.7715 62.4474 5.48221 93.9925 5.35749C94.6501 5.35514 95.2235 4.91273 95.3854 4.27736Z" fill="black"/>
<path d="M3.93805 38.63L1.08125 50.1514C0.348176 53.1086 2.59224 55.9678 5.64645 55.9678H19.2666C19.8895 55.9678 20.4511 55.6093 20.7241 55.0524C32.2291 31.6024 56.0202 16.1362 91.8057 14.5016C92.4373 14.4725 92.9808 14.0371 93.131 13.4253L94.078 9.57703C56.1202 9.98571 28.0807 19.0825 5.58275 36.1184C4.76236 36.7404 4.18503 37.6322 3.93805 38.63Z" fill="black"/>
<path d="M164.641 15.635C165.968 15.635 166.376 15.5839 166.785 15.278C167.346 14.8207 167.907 13.8026 168.519 11.3606C169.08 9.02001 168.978 8.05361 168.672 7.64571C168.416 7.39157 168.009 7.23939 166.631 7.23939H157.234L155.204 15.635H164.641ZM165.458 21.9431C165.152 21.6381 164.744 21.4859 163.417 21.4859H153.725L151.56 30.083H161.173C162.448 30.083 162.959 30.032 163.417 29.6751C163.928 29.2688 164.438 28.8616 165.152 25.9115C165.918 22.8585 165.763 22.4012 165.458 21.9431ZM150.458 0.879395H170.917C173.875 0.879395 175.763 1.38847 176.732 2.6098C177.906 4.13548 178.212 6.47616 177.192 10.4453C175.915 15.5322 173.518 17.6187 169.539 18.5349L169.489 18.6369C173.417 19.4503 174.845 21.078 173.417 26.7257C172.244 31.4055 170.815 33.1351 168.927 34.6106C167.243 35.8822 164.948 36.4932 162.142 36.4932H141.583L150.458 0.879395Z" fill="black"/>
<path d="M200.385 7.4938L193.141 36.4927H184.825L192.07 7.4938H181.203L182.835 0.879639H212.345L210.714 7.4938H200.385Z" fill="black"/>
<path d="M217.888 29.421C218.195 29.7269 218.604 29.8791 220.236 29.8791H227.02C228.654 29.93 229.163 29.7269 229.573 29.421C230.134 28.9636 231.152 27.6913 233.398 18.6863C235.643 9.63107 235.286 8.35798 234.928 7.95165C234.673 7.59552 234.264 7.44256 232.632 7.44256H225.847C224.214 7.44256 223.707 7.59552 223.246 7.95165C222.685 8.35798 221.716 9.63107 219.471 18.6863C217.175 27.7415 217.531 28.9636 217.888 29.421ZM236.408 0.879395C239.928 0.879395 241.458 1.38848 242.427 2.60903C243.959 4.49161 244.621 7.74848 241.918 18.6863C239.163 29.5739 236.867 32.8299 234.366 34.7636C232.784 35.9841 231.051 36.4932 227.531 36.4932H216.461C212.941 36.4932 211.411 35.9841 210.44 34.7636C208.86 32.8299 208.196 29.5739 210.951 18.6863C213.654 7.74848 215.951 4.49161 218.5 2.60903C220.082 1.38848 221.818 0.879395 225.337 0.879395H236.408Z" fill="black"/>
<path d="M294.742 29.421C295.047 29.7269 295.458 29.8791 297.089 29.8791H303.874C305.506 29.93 306.016 29.7269 306.426 29.421C306.987 28.9636 308.005 27.6913 310.251 18.6863C312.496 9.63107 312.138 8.35798 311.781 7.95165C311.527 7.59552 311.118 7.44256 309.485 7.44256H302.7C301.067 7.44256 300.559 7.59552 300.1 7.95165C299.538 8.35798 298.569 9.63107 296.324 18.6863C294.029 27.7415 294.386 28.9636 294.742 29.421ZM313.261 0.879395C316.781 0.879395 318.311 1.38848 319.281 2.60903C320.812 4.49161 321.474 7.74848 318.77 18.6863C316.016 29.5739 313.721 32.8299 311.221 34.7636C309.639 35.9841 307.904 36.4932 304.385 36.4932H293.313C289.794 36.4932 288.264 35.9841 287.294 34.7636C285.713 32.8299 285.05 29.5739 287.804 18.6863C290.509 7.74848 292.805 4.49161 295.354 2.60903C296.937 1.38848 298.671 0.879395 302.191 0.879395H313.261Z" fill="black"/>
<path d="M341.557 17.8723C343.445 17.8723 344.004 17.7703 344.463 17.4652C345.127 16.9569 345.842 16.0407 346.709 12.5807C347.576 9.12144 347.271 8.25702 346.862 7.79893C346.608 7.4938 346.046 7.34083 344.158 7.34083H336.525L333.923 17.8723H341.557ZM349.618 22.9091C348.138 23.9782 346.097 24.3845 343.189 24.3845H332.291L329.281 36.4927H320.964L329.841 0.879639H349.055C351.964 0.879639 353.8 1.23576 354.769 2.30336C356.045 3.77961 356.913 6.06852 355.229 12.6835C353.647 19.1439 351.556 21.4846 349.618 22.9091Z" fill="black"/>
<path d="M117.615 17.4347C118.579 13.6733 119.357 10.6416 119.552 9.90036C120.229 7.33769 122.17 7.22474 123.884 7.22474H133.173L130.422 17.4347H117.615ZM125.248 0.879639C115.63 0.879639 113.016 2.52691 110.334 12.9596C107.743 23.04 104.284 36.4927 104.284 36.4927H112.741C112.741 36.4927 114.353 30.1837 116.014 23.6918H128.861L125.667 36.4927H134.112L142.996 0.879639H125.248Z" fill="black"/>
<path d="M260.421 16.1119C261.638 12.0627 262.218 10.3346 262.763 8.58701C263.011 7.78378 263.536 7.22449 264.579 7.22449H274.514L268.935 29.93H253.867C256.793 27.1352 258.591 22.2067 260.421 16.1119ZM247.004 41.14L248.312 36.4923H271.991L270.944 41.14H278.243L281.097 29.93H277.301L284.543 0.879395H261.544C257.671 0.879395 257.087 2.48979 256.232 4.98736C255.039 8.46543 254.223 11.2611 253.463 13.739C251.586 19.877 250.111 25.5396 244.355 29.93H242.283L239.509 41.14H247.004Z" fill="black"/>
<path d="M103.758 55.9657L104.882 51.7487C104.993 51.3204 105.114 50.9039 105.142 50.8043L105.286 50.3328L105.433 49.8606H105.377L101.081 55.9657H98.9333L100.882 48.6408H102.259L101.147 52.8469C101.034 53.2862 100.914 53.7042 100.875 53.803L100.728 54.2863L100.594 54.7577H100.638L104.947 48.6408H107.105L105.156 55.9657H103.758Z" fill="black"/>
<path d="M113.47 55.9657H112.062L112.897 52.8359H109.494L108.658 55.9657H107.248L109.197 48.6408H110.606L109.811 51.6389H113.213L114.01 48.6408H115.421L113.47 55.9657Z" fill="black"/>
<path d="M119.503 55.9657L120.338 52.8359H119.723L116.65 55.9657H114.876L118.708 52.2209L117.134 48.6408H118.852L120.05 51.6279H120.656L121.452 48.6408H122.818L122.033 51.6279H122.628L125.418 48.6408H127.135L123.665 52.2209L125.506 55.9657H123.732L122.311 52.8359H121.704L120.879 55.9657H119.503Z" fill="black"/>
<path d="M131.714 55.9657L132.839 51.7487C132.951 51.3204 133.071 50.9039 133.098 50.8043L133.245 50.3328L133.39 49.8606H133.335L129.038 55.9657H126.89L128.84 48.6408H130.215L129.103 52.8469C128.992 53.2862 128.872 53.7042 128.831 53.803L128.685 54.2863L128.552 54.7577H128.595L132.904 48.6408H135.062L133.112 55.9657H131.714Z" fill="black"/>
<path d="M141.428 55.9657H140.017L140.854 52.8359H137.45L136.615 55.9657H135.205L137.154 48.6408H138.564L137.767 51.6389H141.171L141.967 48.6408H143.377L141.428 55.9657Z" fill="black"/>
<path d="M148.344 55.9657L149.469 51.7487C149.579 51.3204 149.701 50.9039 149.728 50.8043L149.873 50.3328L150.019 49.8606H149.964L145.668 55.9657H143.52L145.468 48.6408H146.845L145.734 52.8469C145.621 53.2862 145.5 53.7042 145.462 53.803L145.316 54.2863L145.181 54.7577H145.225L149.533 48.6408H151.693L149.743 55.9657H148.344Z" fill="black"/>
<path d="M155.779 52.398C156.726 52.398 157.017 52.2991 157.269 51.903C157.425 51.6504 157.669 50.8048 157.688 50.4424C157.715 49.9035 157.557 49.8046 156.61 49.8046H154.88L154.192 52.398H155.779ZM153.784 48.6414H156.758C157.97 48.6414 158.112 48.6531 158.457 48.7849C158.954 48.9827 159.218 49.4328 159.185 50.0361C159.157 50.5522 158.936 51.4315 158.681 52.0787C158.315 52.969 157.581 53.5173 156.665 53.5722C156.498 53.584 156.322 53.5942 155.516 53.6059H153.875L153.245 55.9662H151.835L153.784 48.6414Z" fill="black"/>
<path d="M164.125 55.9657L165.249 51.7487C165.361 51.3204 165.482 50.9039 165.508 50.8043L165.654 50.3328L165.8 49.8606H165.746L161.449 55.9657H159.301L161.251 48.6408H162.626L161.514 52.8469C161.402 53.2862 161.282 53.7042 161.243 53.803L161.096 54.2863L160.962 54.7577H161.006L165.315 48.6408H167.473L165.524 55.9657H164.125Z" fill="black"/>
<path d="M173.839 55.9657H172.428L173.265 52.8359H169.861L169.025 55.9657H167.616L169.564 48.6408H170.975L170.178 51.6389H173.582L174.378 48.6408H175.788L173.839 55.9657Z" fill="black"/>
<path d="M175.931 55.9657L177.88 48.6408H182.715L182.387 49.8709H178.961L177.34 55.9657H175.931Z" fill="black"/>
</svg>
