<svg width="357" height="57" viewBox="0 0 357 57" fill="none" xmlns="http://www.w3.org/2000/svg">
<path d="M243.159 30.4815C244.131 30.4815 244.732 30.2834 245.4 29.798C245.353 31.0395 244.462 31.8706 244.462 31.8706L243.159 30.4815Z" fill="#595959"/>
<path d="M89.5398 28.3849C78.603 32.2365 69.9571 42.8451 67.9101 56.1014C67.8401 56.5539 68.1952 56.9674 68.6469 56.9674H77.4038C80.4082 56.9674 83.0278 54.8901 83.755 51.9317L89.5398 28.3849Z" fill="#FF5100"/>
<path d="M35.3916 55.913C35.1814 56.4064 35.5465 56.9669 36.077 56.9669H54.2013C54.7427 56.9669 55.2119 56.6026 55.3668 56.0757C59.9603 40.4514 71.7106 27.9419 89.7194 24.2116C90.2583 24.1006 90.6912 23.6918 90.825 23.1505L91.8575 18.9651C68.7416 20.0886 45.6893 31.7136 35.3916 55.913Z" fill="#FF5100"/>
<path d="M95.4295 4.35407L96.3338 0.740417H68.6936H41.0536H19.1755C15.7909 0.740417 12.8422 3.0806 12.0278 6.414L8.73293 19.8969C8.50549 20.8279 9.42461 21.6064 10.2902 21.2191C33.2072 10.9642 62.4761 5.58045 94.0358 5.45351C94.6938 5.45108 95.2676 5.00078 95.4295 4.35407Z" fill="#FF5100"/>
<path d="M3.93985 39.3199L1.08172 51.0472C0.348296 54.0573 2.59341 56.9674 5.64903 56.9674H19.2755C19.8987 56.9674 20.4606 56.6026 20.7337 56.0358C32.2441 32.167 56.0462 16.4245 91.8482 14.7606C92.4802 14.731 93.0241 14.288 93.1742 13.6652L94.1218 9.74811C56.1463 10.1641 28.0938 19.4234 5.58531 36.7634C4.76454 37.3967 4.18694 38.3044 3.93985 39.3199Z" fill="#FF5100"/>
<path d="M164.718 15.914C166.046 15.914 166.453 15.8621 166.863 15.5508C167.424 15.0852 167.985 14.0489 168.598 11.5634C169.159 9.18092 169.057 8.19726 168.751 7.78207C168.496 7.52338 168.087 7.36851 166.709 7.36851H157.308L155.276 15.914H164.718ZM165.535 22.3349C165.229 22.0243 164.821 21.8694 163.494 21.8694H153.796L151.632 30.62H161.248C162.524 30.62 163.034 30.5681 163.494 30.205C164.004 29.7915 164.515 29.3771 165.229 26.3741C165.995 23.2666 165.841 22.8012 165.535 22.3349ZM150.529 0.894897H170.997C173.957 0.894897 175.845 1.41307 176.815 2.65622C177.989 4.20915 178.295 6.59163 177.274 10.6317C175.998 15.8094 173.6 17.9333 169.619 18.8658L169.567 18.9695C173.497 19.7976 174.926 21.4542 173.497 27.2029C172.324 31.9663 170.894 33.7268 169.005 35.2288C167.321 36.523 165.025 37.1448 162.217 37.1448H141.649L150.529 0.894897Z" fill="#202A26"/>
<path d="M200.478 7.62725L193.231 37.1442H184.911L192.159 7.62725H181.287L182.92 0.894958H212.444L210.811 7.62725H200.478Z" fill="#202A26"/>
<path d="M217.99 29.9462C218.296 30.2578 218.705 30.4125 220.338 30.4125H227.125C228.76 30.4644 229.27 30.2578 229.679 29.9462C230.24 29.4808 231.261 28.1857 233.506 19.0198C235.752 9.80288 235.395 8.50703 235.038 8.09348C234.782 7.73098 234.374 7.57529 232.741 7.57529H225.952C224.319 7.57529 223.81 7.73098 223.35 8.09348C222.789 8.50703 221.818 9.80288 219.573 19.0198C217.276 28.2368 217.633 29.4808 217.99 29.9462ZM236.518 0.894897C240.039 0.894897 241.571 1.41308 242.54 2.65541C244.072 4.57163 244.734 7.88668 242.03 19.0198C239.274 30.1018 236.977 33.4162 234.476 35.3844C232.893 36.6267 231.158 37.1448 227.637 37.1448H216.562C213.04 37.1448 211.509 36.6267 210.538 35.3844C208.957 33.4162 208.292 30.1018 211.049 19.0198C213.754 7.88668 216.051 4.57163 218.602 2.65541C220.184 1.41308 221.92 0.894897 225.442 0.894897H236.518Z" fill="#202A26"/>
<path d="M294.879 29.9462C295.186 30.2578 295.596 30.4125 297.229 30.4125H304.015C305.648 30.4644 306.16 30.2578 306.567 29.9462C307.13 29.4808 308.15 28.1857 310.396 19.0198C312.642 9.80288 312.285 8.50703 311.928 8.09348C311.672 7.73098 311.265 7.57529 309.629 7.57529H302.843C301.207 7.57529 300.698 7.73098 300.24 8.09348C299.678 8.50703 298.708 9.80288 296.462 19.0198C294.165 28.2368 294.522 29.4808 294.879 29.9462ZM313.407 0.894897C316.929 0.894897 318.461 1.41308 319.431 2.65541C320.963 4.57163 321.623 7.88668 318.919 19.0198C316.164 30.1018 313.868 33.4162 311.366 35.3844C309.783 36.6267 308.046 37.1448 304.527 37.1448H293.451C289.929 37.1448 288.4 36.6267 287.427 35.3844C285.845 33.4162 285.181 30.1018 287.939 19.0198C290.643 7.88668 292.94 4.57163 295.492 2.65541C297.075 1.41308 298.809 0.894897 302.331 0.894897H313.407Z" fill="#202A26"/>
<path d="M341.714 18.1911C343.603 18.1911 344.165 18.0873 344.623 17.7768C345.286 17.2594 346.003 16.3268 346.869 12.805C347.738 9.28397 347.431 8.40411 347.024 7.93784C346.768 7.62725 346.206 7.47155 344.317 7.47155H336.682L334.079 18.1911H341.714ZM349.779 23.3178C348.3 24.4061 346.256 24.8196 343.347 24.8196H332.446L329.432 37.1442H321.114L329.995 0.894958H349.216C352.126 0.894958 353.964 1.25744 354.934 2.3441C356.21 3.84673 357.079 6.17651 355.395 12.9096C353.809 19.4855 351.718 21.8678 349.779 23.3178Z" fill="#202A26"/>
<path d="M117.669 17.7457C118.633 13.9172 119.412 10.8314 119.607 10.0769C120.284 7.46841 122.227 7.35345 123.941 7.35345H133.234L130.482 17.7457H117.669ZM125.306 0.89502C115.683 0.89502 113.068 2.5717 110.384 13.1907C107.792 23.4513 104.331 37.1443 104.331 37.1443H112.793C112.793 37.1443 114.406 30.7223 116.067 24.1147H128.92L125.725 37.1443H134.173L143.062 0.89502H125.306Z" fill="#202A26"/>
<path d="M260.543 16.3996C261.759 12.2782 262.341 10.5192 262.885 8.74038C263.134 7.92279 263.659 7.3535 264.703 7.3535H274.643L269.061 30.4646H253.986C256.913 27.6198 258.712 22.6033 260.543 16.3996ZM247.119 41.8749L248.427 37.1442H272.117L271.07 41.8749H278.374L281.229 30.4646H277.431L284.675 0.895081H261.668C257.791 0.895081 257.207 2.53423 256.351 5.0764C255.157 8.6166 254.342 11.4622 253.582 13.9844C251.704 20.2321 250.228 25.9958 244.469 30.4646H242.396L239.621 41.8749H247.119Z" fill="#202A26"/>
<path d="M103.805 56.9655L104.931 52.673C105.042 52.2373 105.163 51.8132 105.19 51.7117L105.335 51.232L105.482 50.7512H105.427L101.128 56.9655H98.9792L100.928 49.5098H102.306L101.194 53.7908C101.081 54.2379 100.961 54.6635 100.921 54.764L100.775 55.256L100.641 55.7359H100.685L104.995 49.5098H107.155L105.205 56.9655H103.805Z" fill="#595959"/>
<path d="M113.523 56.9655H112.113L112.95 53.7797H109.545L108.708 56.9655H107.298L109.247 49.5098H110.658L109.862 52.5613H113.267L114.063 49.5098H115.474L113.523 56.9655Z" fill="#595959"/>
<path d="M119.559 56.9655L120.395 53.7797H119.778L116.705 56.9655H114.93L118.764 53.1538L117.189 49.5098H118.907L120.106 52.5502H120.712L121.509 49.5098H122.874L122.09 52.5502H122.685L125.476 49.5098H127.194L123.723 53.1538L125.564 56.9655H123.79L122.368 53.7797H121.761L120.936 56.9655H119.559Z" fill="#595959"/>
<path d="M131.775 56.9655L132.901 52.673C133.012 52.2373 133.133 51.8132 133.16 51.7117L133.306 51.232L133.452 50.7512H133.397L129.099 56.9655H126.949L128.899 49.5098H130.277L129.164 53.7908C129.052 54.2379 128.931 54.6635 128.892 54.764L128.745 55.256L128.611 55.7359H128.655L132.965 49.5098H135.126L133.175 56.9655H131.775Z" fill="#595959"/>
<path d="M141.493 56.9655H140.083L140.92 53.7797H137.515L136.678 56.9655H135.268L137.217 49.5098H138.628L137.832 52.5613H141.237L142.032 49.5098H143.443L141.493 56.9655Z" fill="#595959"/>
<path d="M148.413 56.9655L149.538 52.673C149.649 52.2373 149.771 51.8132 149.797 51.7117L149.944 51.232L150.089 50.7512H150.034L145.736 56.9655H143.587L145.536 49.5098H146.913L145.801 53.7908C145.689 54.2379 145.568 54.6635 145.529 54.764L145.382 55.256L145.248 55.7359H145.292L149.603 49.5098H151.763L149.812 56.9655H148.413Z" fill="#595959"/>
<path d="M155.851 53.3334C156.799 53.3334 157.09 53.2328 157.343 52.8295C157.499 52.5725 157.743 51.7117 157.761 51.3429C157.789 50.7943 157.63 50.6937 156.682 50.6937H154.951L154.264 53.3334H155.851ZM153.856 49.5098H156.83C158.043 49.5098 158.186 49.5217 158.531 49.656C159.027 49.8569 159.291 50.3155 159.26 50.9294C159.232 51.4547 159.009 52.3498 158.755 53.0085C158.389 53.9148 157.654 54.4729 156.738 54.5287C156.571 54.5407 156.394 54.5509 155.589 54.5629H153.947L153.316 56.9655H151.906L153.856 49.5098Z" fill="#595959"/>
<path d="M164.202 56.9655L165.327 52.673C165.438 52.2373 165.559 51.8132 165.586 51.7117L165.731 51.232L165.878 50.7512H165.823L161.525 56.9655H159.375L161.326 49.5098H162.703L161.59 53.7908C161.477 54.2379 161.357 54.6635 161.318 54.764L161.171 55.256L161.037 55.7359H161.081L165.391 49.5098H167.552L165.601 56.9655H164.202Z" fill="#595959"/>
<path d="M173.919 56.9655H172.509L173.346 53.7797H169.941L169.104 56.9655H167.694L169.643 49.5098H171.054L170.258 52.5613H173.663L174.458 49.5098H175.869L173.919 56.9655Z" fill="#595959"/>
<path d="M176.013 56.9655L177.963 49.5098H182.8L182.471 50.7618H179.044L177.423 56.9655H176.013Z" fill="#595959"/>
</svg>
